<svg xmlns="http://www.w3.org/2000/svg" width="36" height="32" fill="none" viewBox="0 0 36 32"><g filter="url(#filter0_dii_408_1688)"><path fill="#fff5ee" d="M8.54 19.74 8 9.564 28 9v10.174L26.378 22H10.162z"/></g><g filter="url(#filter1_dii_408_1688)"><path fill="#fff5ee" d="M28 9H8V6l2.222-2h14.445L28 5.5z"/></g><path fill="#ff943d" d="M14.333 12H12.5a1.835 1.835 0 0 0-1.833 1.833v1.834c0 1.01.822 1.833 1.833 1.833h1.833a1.835 1.835 0 0 0 1.834-1.833v-1.834A1.835 1.835 0 0 0 14.333 12M12.5 15.667v-1.834h1.833v1.834zM24.417 2.833H23.5v-.916a.916.916 0 1 0-1.833 0v.916h-7.334v-.916a.916.916 0 1 0-1.833 0v.916h-.917A4.59 4.59 0 0 0 7 7.417v11A4.59 4.59 0 0 0 11.583 23h12.834A4.59 4.59 0 0 0 29 18.417v-11a4.59 4.59 0 0 0-4.583-4.584M11.583 4.667h12.834a2.753 2.753 0 0 1 2.75 2.75v.916H8.833v-.916a2.753 2.753 0 0 1 2.75-2.75m12.834 16.5H11.583a2.753 2.753 0 0 1-2.75-2.75v-8.25h18.334v8.25a2.753 2.753 0 0 1-2.75 2.75"/><defs><filter id="filter0_dii_408_1688" width="36" height="29" x="0" y="5" color-interpolation-filters="sRGB" filterUnits="userSpaceOnUse"><feFlood flood-opacity="0" result="BackgroundImageFix"/><feColorMatrix in="SourceAlpha" result="hardAlpha" values="0 0 0 0 0 0 0 0 0 0 0 0 0 0 0 0 0 0 127 0"/><feOffset dy="4"/><feGaussianBlur stdDeviation="4"/><feComposite in2="hardAlpha" operator="out"/><feColorMatrix values="0 0 0 0 1 0 0 0 0 0.705882 0 0 0 0 0.466667 0 0 0 0.15 0"/><feBlend in2="BackgroundImageFix" result="effect1_dropShadow_408_1688"/><feBlend in="SourceGraphic" in2="effect1_dropShadow_408_1688" result="shape"/><feColorMatrix in="SourceAlpha" result="hardAlpha" values="0 0 0 0 0 0 0 0 0 0 0 0 0 0 0 0 0 0 127 0"/><feOffset/><feGaussianBlur stdDeviation="1"/><feComposite in2="hardAlpha" k2="-1" k3="1" operator="arithmetic"/><feColorMatrix values="0 0 0 0 1 0 0 0 0 0.835827 0 0 0 0 0.702299 0 0 0 0.6 0"/><feBlend in2="shape" result="effect2_innerShadow_408_1688"/><feColorMatrix in="SourceAlpha" result="hardAlpha" values="0 0 0 0 0 0 0 0 0 0 0 0 0 0 0 0 0 0 127 0"/><feOffset dy="-2"/><feGaussianBlur stdDeviation="2"/><feComposite in2="hardAlpha" k2="-1" k3="1" operator="arithmetic"/><feColorMatrix values="0 0 0 0 1 0 0 0 0 0.607607 0 0 0 0 0.288462 0 0 0 0.25 0"/><feBlend in2="effect2_innerShadow_408_1688" result="effect3_innerShadow_408_1688"/></filter><filter id="filter1_dii_408_1688" width="36" height="21" x="0" y="0" color-interpolation-filters="sRGB" filterUnits="userSpaceOnUse"><feFlood flood-opacity="0" result="BackgroundImageFix"/><feColorMatrix in="SourceAlpha" result="hardAlpha" values="0 0 0 0 0 0 0 0 0 0 0 0 0 0 0 0 0 0 127 0"/><feOffset dy="4"/><feGaussianBlur stdDeviation="4"/><feComposite in2="hardAlpha" operator="out"/><feColorMatrix values="0 0 0 0 1 0 0 0 0 0.705882 0 0 0 0 0.466667 0 0 0 0.15 0"/><feBlend in2="BackgroundImageFix" result="effect1_dropShadow_408_1688"/><feBlend in="SourceGraphic" in2="effect1_dropShadow_408_1688" result="shape"/><feColorMatrix in="SourceAlpha" result="hardAlpha" values="0 0 0 0 0 0 0 0 0 0 0 0 0 0 0 0 0 0 127 0"/><feOffset/><feGaussianBlur stdDeviation="1"/><feComposite in2="hardAlpha" k2="-1" k3="1" operator="arithmetic"/><feColorMatrix values="0 0 0 0 1 0 0 0 0 0.835827 0 0 0 0 0.702299 0 0 0 0.6 0"/><feBlend in2="shape" result="effect2_innerShadow_408_1688"/><feColorMatrix in="SourceAlpha" result="hardAlpha" values="0 0 0 0 0 0 0 0 0 0 0 0 0 0 0 0 0 0 127 0"/><feOffset dy="-2"/><feGaussianBlur stdDeviation="2"/><feComposite in2="hardAlpha" k2="-1" k3="1" operator="arithmetic"/><feColorMatrix values="0 0 0 0 1 0 0 0 0 0.607607 0 0 0 0 0.288462 0 0 0 0.25 0"/><feBlend in2="effect2_innerShadow_408_1688" result="effect3_innerShadow_408_1688"/></filter></defs></svg>