<svg xmlns="http://www.w3.org/2000/svg" width="32" height="32" fill="none"><path fill="#ffb477" fill-rule="evenodd" d="M10.281 27.593c.637 1.66.494 3.25-.915 4.073-1.961 1.142-3.929-.911-4.61-2.176-.994-1.842-1.416-5.174-1-8.669.675-5.677 4.564-11 9.947-12.224 6.35-1.442 12.578 1.896 13.526 6.676.428 2.183-.435 5.25-1.91 6.86-1.603 1.755-4.558 3.047-7.272 3.217-1.071.068-3.2-.53-3.571-2.815-.312-1.945 1.363-3.624 3.584-3.509 2.344.123 4.916-.72 4.02-3.154-1.052-2.87-5.935-3.094-8.903-1.585-2.48 1.265-3.935 3.774-4.103 6.405-.17 2.638.136 4.1 1.214 6.895zM14.78 5.1c-1.275.3-2.38-.537-2.81-1.765-.443-1.266.465-2.557 1.5-2.896 1.873-.62 4.338-.55 6.014 0 1.232.403 1.873 1.49 1.598 2.768-.274 1.286-1.274 1.995-2.549 1.746-1.845-.358-3.753.147-3.753.147M8.162 7.837c-1.88 1.001-3.665 3.169-4.84 2.274s-1.387-5.057 2.37-6.754c1.348-.61 3.133-.12 3.83 1.173.704 1.293-.06 2.611-1.36 3.307m16.504-.583c1.848 1.235 3.588 3.788 4.836 2.876s1.78-5.561-1.922-7.702c-1.33-.765-3.231-.287-4.02 1.096-.79 1.383-.169 2.869 1.106 3.722z" clip-rule="evenodd"/></svg>