<svg xmlns="http://www.w3.org/2000/svg" width="24" height="24" fill="none" viewBox="0 0 24 24"><g clip-path="url(#clip0_337_3377)"><path fill="#272727" fill-rule="evenodd" d="M6.948 19.139c.21-.035.434-.013.646.075 3.07 1.28 5.661 1.188 7.667.286 2.911-1.31 4.564-4.278 4.564-6.82 0-4.247-3.4-7.695-7.589-7.695-4.188 0-7.588 3.448-7.588 7.695 0 .67-.536 1.213-1.196 1.213s-1.196-.544-1.196-1.213c0-5.586 4.472-10.121 9.98-10.121 5.509 0 9.981 4.535 9.981 10.12 0 2.627-1.31 5.615-3.72 7.62l.945 1.77a1.223 1.223 0 0 1-.483 1.644 1.19 1.19 0 0 1-1.622-.49l-.863-1.619q-.12.058-.242.113c-2.35 1.057-5.345 1.306-8.873.006l-.833 1.562a1.19 1.19 0 0 1-1.621.49 1.22 1.22 0 0 1-.483-1.644l1.266-2.374a1.19 1.19 0 0 1 1.26-.618m4.354-5.486a1 1 0 0 1-.136-.502l-.042-5.565a1.005 1.005 0 0 1 .99-1.019c.55-.004 1 .446 1.004 1.004l.035 4.626 2.513-.03c.55-.005 1 .445 1.004 1.003a1.005 1.005 0 0 1-.989 1.018l-3.471.042a1 1 0 0 1-.908-.577M2.64 5.488a1.187 1.187 0 0 1-1.657.345 1.224 1.224 0 0 1-.34-1.68C1.807 2.362 3.257 1.058 5.117.137a1.19 1.19 0 0 1 1.6.558c.29.601.043 1.328-.55 1.622-1.468.727-2.609 1.758-3.527 3.17m21.13-1.35a1.224 1.224 0 0 1-.34 1.68 1.187 1.187 0 0 1-1.657-.345c-.918-1.412-2.059-2.443-3.526-3.17a1.22 1.22 0 0 1-.55-1.622 1.19 1.19 0 0 1 1.6-.558c1.86.921 3.31 2.224 4.473 4.014" clip-rule="evenodd"/></g><defs><clipPath id="clip0_337_3377"><path fill="#fff" d="M0 0h24v24H0z"/></clipPath></defs></svg>