<svg xmlns="http://www.w3.org/2000/svg" width="30" height="30" fill="none" viewBox="0 0 30 30"><path fill="#3d3d3d" fill-rule="evenodd" d="M17.292 18.266a.756.756 0 0 1-1.011.34.75.75 0 0 1-.341-1.009c.365-.736 1.162-1.195 1.997-1.24.84-.046 1.696.316 2.158 1.139a.75.75 0 0 1-.29 1.025.756.756 0 0 1-1.026-.289c-.16-.285-.468-.388-.76-.372-.295.017-.597.145-.727.406" clip-rule="evenodd"/><path fill="#3d3d3d" fill-rule="evenodd" d="M11.034 18.334a.756.756 0 0 1-1.01.34.753.753 0 0 1-.342-1.009c.365-.736 1.162-1.195 1.998-1.24.84-.046 1.695.316 2.157 1.139a.75.75 0 0 1-.289 1.025.756.756 0 0 1-1.027-.289c-.16-.285-.468-.387-.76-.372-.295.016-.597.145-.727.406" clip-rule="evenodd"/><path fill="#3d3d3d" fill-rule="evenodd" d="M15.044 21.877c.126.002.273.082.352.136.715.484 1.57.553 2.53.183.859-.33.39-1.573-.113-1.358-.898.384-1.297.044-2.3-.528-.148-.083-.366-.091-.457-.092h-.004c-.09 0-.31.009-.457.092-1.003.573-1.381.86-2.3.528-.637-.231-.996 1.027-.138 1.358.96.37 1.815.3 2.53-.183.08-.054.226-.134.353-.136z" clip-rule="evenodd"/><path fill="#3d3d3d" fill-rule="evenodd" d="M20.128 25.404a1.154 1.154 0 1 1 .887-2.133c.847.35 1.515.424 2.016.162.794-.413 1.04-1.486 1.036-2.724-.014-3.872-3.068-9.525-9.002-9.525-6.696 0-9.584 5.626-9.365 9.447.07 1.226.41 2.28 1.232 2.653.517.234 1.175.133 1.98-.257a1.154 1.154 0 1 1 1.012 2.077c-1.596.774-2.924.747-3.949.282-1.49-.675-2.458-2.403-2.585-4.623-.275-4.787 3.288-11.888 11.675-11.888 7.41 0 11.299 6.99 11.316 11.826.008 2.249-.837 4.027-2.277 4.779-.987.515-2.312.613-3.976-.076" clip-rule="evenodd"/><path fill="#3d3d3d" fill-rule="evenodd" d="M14.65 2.056c.85-.782 2.085-.668 2.754-.098.755.644.864 1.928.112 3.215-.386.7-1.256 1.415-2.112 1.956a1.41 1.41 0 0 1-1.506 0c-.856-.54-1.726-1.255-2.111-1.954-.754-1.288-.645-2.573.11-3.217.67-.57 1.904-.684 2.754.098m-.437 1.059c-.416-.71-1.24-.742-1.657-.388-.195.167-.276.422-.276.713 0 .375.133.8.385 1.23l.007.012c.317.58 1.06 1.145 1.768 1.592a.39.39 0 0 0 .421 0c.708-.447 1.451-1.013 1.768-1.592l.008-.013c.251-.428.385-.854.385-1.23 0-.29-.082-.546-.277-.712-.416-.354-1.24-.322-1.657.388a.507.507 0 0 1-.875 0" clip-rule="evenodd"/></svg>