<svg xmlns="http://www.w3.org/2000/svg" width="44" height="44" fill="none" viewBox="0 0 44 44"><path fill="#272727" fill-rule="evenodd" d="M25.362 26.79c-.271.546-.936.77-1.483.499a1.104 1.104 0 0 1-.5-1.48c.536-1.08 1.704-1.752 2.93-1.82 1.232-.067 2.486.464 3.164 1.671a1.103 1.103 0 0 1-.424 1.503 1.11 1.11 0 0 1-1.506-.423c-.235-.418-.687-.569-1.114-.545-.434.023-.877.212-1.067.595" clip-rule="evenodd"/><path fill="#272727" fill-rule="evenodd" d="M16.186 26.889c-.271.546-.935.77-1.483.499a1.104 1.104 0 0 1-.5-1.48c.536-1.079 1.704-1.752 2.93-1.82 1.232-.066 2.486.464 3.164 1.671a1.103 1.103 0 0 1-.424 1.503 1.11 1.11 0 0 1-1.506-.423c-.235-.418-.687-.568-1.114-.545-.434.024-.877.212-1.067.595" clip-rule="evenodd"/><path fill="#272727" fill-rule="evenodd" d="M22.065 32.087c.185.002.4.12.516.198 1.05.71 2.304.812 3.712.269 1.258-.485.57-2.307-.166-1.992-1.318.563-1.903.066-3.374-.773-.216-.123-.537-.135-.67-.136h-.006c-.133 0-.454.013-.67.136-1.471.839-2.026 1.26-3.373.773-.935-.338-1.462 1.507-.203 1.992 1.408.542 2.662.441 3.711-.269.117-.079.331-.196.517-.198z" clip-rule="evenodd"/><path fill="#272727" fill-rule="evenodd" d="M29.52 37.259a1.693 1.693 0 1 1 1.302-3.128c1.241.514 2.22.622 2.957.238 1.163-.607 1.525-2.18 1.518-3.995-.02-5.68-4.5-13.97-13.202-13.97-9.82 0-14.057 8.25-13.735 13.855.103 1.798.6 3.343 1.807 3.89.758.344 1.723.196 2.904-.377a1.7 1.7 0 0 1 2.268.783c.41.84.058 1.855-.784 2.263-2.342 1.136-4.289 1.096-5.792.415-2.186-.99-3.606-3.525-3.792-6.78-.403-7.021 4.822-17.436 17.124-17.436 10.868 0 16.571 10.25 16.597 17.345.012 3.297-1.228 5.906-3.34 7.008-1.448.756-3.391.9-5.832-.111" clip-rule="evenodd"/><path fill="#272727" fill-rule="evenodd" d="M21.487 3.015c1.246-1.147 3.057-.979 4.037-.143 1.108.944 1.268 2.828.165 4.715-.567 1.028-1.842 2.075-3.097 2.868a2.07 2.07 0 0 1-2.21 0c-1.255-.793-2.53-1.84-3.096-2.865-1.105-1.89-.945-3.774.163-4.718.98-.836 2.791-1.004 4.038.143m-.642 1.553c-.61-1.04-1.82-1.088-2.43-.568-.286.244-.406.619-.406 1.045 0 .55.196 1.175.565 1.803l.01.019c.466.85 1.555 1.679 2.593 2.335.19.12.43.12.619 0 1.038-.656 2.127-1.485 2.593-2.335l.01-.02c.37-.627.565-1.252.565-1.802 0-.426-.12-.801-.405-1.045-.61-.52-1.82-.472-2.43.568a.744.744 0 0 1-1.284 0" clip-rule="evenodd"/></svg>