<svg xmlns="http://www.w3.org/2000/svg" width="54" height="54" fill="none"><path fill="#ff8f57" fill-rule="evenodd" d="M27.161 41.356c-.237.003-.51.153-.659.253-1.338.904-2.938 1.033-4.734.343-1.606-.619-.729-2.94.212-2.538 1.68.717 2.427.083 4.304-.986.275-.156.684-.171.854-.172h.007c.17 0 .58.016.855.172 1.877 1.07 2.585 1.607 4.304.986 1.192-.431 1.864 1.92.258 2.538-1.796.69-3.396.562-4.734-.343-.149-.1-.422-.25-.66-.253z" clip-rule="evenodd"/><path fill="#ff8f57" fill-rule="evenodd" d="M26.915 21.543c2.198-.049 3.805.13 5.91.538l5.009-3.127a2.17 2.17 0 0 1 3.069.829c4.753 9.069 5.244 18.421-.372 25.508-.87 1.096-1.928 1.943-2.957 2.732a2.17 2.17 0 0 1-3.037-.393 2.154 2.154 0 0 1 .395-3.026c.758-.581 1.56-1.18 2.2-1.988 4.153-5.24 3.913-11.997.95-18.725l-3.69 2.304a2.17 2.17 0 0 1-1.591.284c-2.046-.426-3.474-.64-5.395-.627a2 2 0 0 1-.313.012l-.178-.005-.178.005a2 2 0 0 1-.313-.012c-1.92-.012-3.349.201-5.394.627a2.17 2.17 0 0 1-1.592-.284l-3.69-2.304c-2.963 6.728-3.203 13.486.95 18.725.64.807 1.442 1.407 2.2 1.988a2.154 2.154 0 0 1 .395 3.026 2.17 2.17 0 0 1-3.036.393c-1.03-.79-2.088-1.636-2.957-2.733-5.617-7.086-5.126-16.438-.372-25.507a2.17 2.17 0 0 1 3.069-.83l5.008 3.128c2.105-.408 3.713-.587 5.91-.538" clip-rule="evenodd"/><path fill="#ff8f57" fill-rule="evenodd" d="M30.984 35.095a1.25 1.25 0 0 1-1.67.562 1.24 1.24 0 0 1-.564-1.664c.604-1.214 1.92-1.971 3.3-2.046 1.387-.076 2.8.521 3.563 1.878a1.24 1.24 0 0 1-.478 1.69c-.6.336-1.36.122-1.696-.475-.264-.47-.773-.64-1.253-.614-.49.027-.989.24-1.202.67m-10.334.111a1.25 1.25 0 0 1-1.67.562 1.24 1.24 0 0 1-.564-1.664c.604-1.214 1.92-1.971 3.3-2.046 1.387-.076 2.8.52 3.563 1.878a1.24 1.24 0 0 1-.478 1.69c-.6.335-1.36.122-1.696-.476-.265-.47-.773-.64-1.254-.613-.488.027-.988.239-1.201.669M27.004 6.4c1.53-1.407 3.752-1.201 4.956-.176 1.36 1.16 1.556 3.472.202 5.788-.696 1.261-2.261 2.546-3.802 3.52a2.54 2.54 0 0 1-2.712 0c-1.54-.973-3.105-2.258-3.8-3.517-1.355-2.318-1.159-4.632.201-5.79 1.203-1.026 3.426-1.232 4.955.175m-.787 1.906c-.749-1.276-2.234-1.335-2.983-.697-.35.3-.498.76-.498 1.283 0 .675.24 1.441.693 2.212l.014.024c.57 1.043 1.908 2.06 3.182 2.865a.71.71 0 0 0 .758 0c1.275-.805 2.612-1.822 3.183-2.865l.014-.024c.452-.77.693-1.537.693-2.212 0-.524-.148-.984-.499-1.283-.749-.638-2.233-.58-2.982.697a.913.913 0 0 1-1.575 0" clip-rule="evenodd"/></svg>