<svg xmlns="http://www.w3.org/2000/svg" width="104" height="84" fill="none" viewBox="0 0 104 84"><path fill="#3d3d3d" fill-rule="evenodd" stroke="#3d3d3d" stroke-linejoin="round" stroke-miterlimit="2" stroke-width="4" d="m70.244 37.873-.532-.507a.74.74 0 0 1-.024-1.045l8.83-9.258a4.857 4.857 0 0 1 7.205-6.436 4.857 4.857 0 0 1 7.946 2.678 4.86 4.86 0 0 1 3.186 7.739 4.86 4.86 0 0 1-.153 6.534 4.86 4.86 0 0 1-6.163.718l-8.949 9.381a.74.74 0 0 1-1.044.025l-.528-.503 1.236-1.296-.007-.006 8.678-9.099a.74.74 0 0 1 1.025-.043 3.379 3.379 0 1 0 4.414-5.112.74.74 0 0 1-.036-1.097l.102-.103a3.38 3.38 0 0 0-2.416-5.708.74.74 0 0 1-.73-.687 3.378 3.378 0 0 0-5.998-1.882.738.738 0 0 1-1.16-.014 3.38 3.38 0 0 0-5.123-.274 3.38 3.38 0 0 0 .034 4.698c.28.284.283.74.007 1.028l-8.562 8.976-.003-.002z" clip-rule="evenodd"/><path fill="#3d3d3d" fill-rule="evenodd" d="M59.55 19.643c-.659-1.302-3.255-1.27-3.991 0-.782 1.35-.697 2.86 0 4.231.633 1.247 3.201 1.473 3.992 0 .75-1.397.676-2.896 0-4.23" clip-rule="evenodd"/><path fill="#3d3d3d" fill-rule="evenodd" d="M46.55 19.643c-.648-1.302-3.197-1.27-3.92 0-.767 1.35-.684 2.86 0 4.231.623 1.247 3.143 1.473 3.92 0 .737-1.397.664-2.896 0-4.23" clip-rule="evenodd"/><path fill="#3d3d3d" fill-rule="evenodd" d="M51.216 31.624c-.305.004-.657.197-.848.327-1.72 1.167-3.777 1.333-6.086.442-2.065-.798-.937-3.793.272-3.275 2.16.926 3.12.108 5.534-1.271.354-.203.88-.222 1.098-.223h.01c.218 0 .744.02 1.099.223 2.413 1.379 3.323 2.073 5.533 1.27 1.532-.556 2.397 2.478.332 3.276-2.31.891-4.366.725-6.087-.442-.191-.13-.543-.323-.848-.327z" clip-rule="evenodd"/><path fill="#3d3d3d" fill-rule="evenodd" d="M28.236 58.679c-10.952-5.382-17.08-20.677-9.673-33.365a2.785 2.785 0 0 1 4.808 2.808c-5.53 9.472-1.282 20.865 6.709 25.241q.13-.316.25-.577c1.055-2.26 2.652-4.383 3.783-6.611.612-1.207 1.087-2.443 1.005-3.814-.084-1.403-.762-2.893-2.193-4.622a3 3 0 0 1-.124-.162c-8.292-8.618-7.078-23.038-1.104-33.669a2.784 2.784 0 0 1 4.015-.923l6.048 4.201a42.4 42.4 0 0 1 17.504-.428l6.448-4.042a2.784 2.784 0 0 1 3.946 1.07c4.23 8.1 5.832 16.398 4.025 23.739a2.785 2.785 0 0 1-3.368 2.038 2.786 2.786 0 0 1-2.038-3.37c1.31-5.32.34-11.218-2.245-17.106l-4.744 2.973a2.78 2.78 0 0 1-2.047.366c-5.773-1.205-11.545-1.074-17.318.458-.79.21-1.63.062-2.302-.404l-4.456-3.095c-3.69 8.222-4.341 18.29 1.794 24.482.074.074.502.673.502.673l-.248-.353c2.398 2.896 3.321 5.49 3.462 7.84.143 2.384-.533 4.57-1.597 6.667-1.104 2.175-2.673 4.24-3.701 6.445-.407.873-.93 2.455-1.22 3.885-.113.558-.237 1.077-.212 1.456q.007.067.017.136l.006.033q.057.252.068.5C35.7 72.05 45.562 76.891 54.368 75.828c6.242-.753 12.008-4.475 13.772-11.259.229-.88.328-2.322-.017-4.05a12.6 12.6 0 0 0-.539-1.895 2.785 2.785 0 0 1 5.223-1.928c.35.947.602 1.863.775 2.732.558 2.79.316 5.12-.054 6.542-2.385 9.174-10.052 14.367-18.493 15.386-12.389 1.495-26.326-6.017-26.799-22.677" clip-rule="evenodd"/></svg>