<svg xmlns="http://www.w3.org/2000/svg" width="44" height="44" fill="none" viewBox="0 0 44 44"><path fill="#272727" fill-rule="evenodd" d="M22.132 33.698c-.194.002-.417.124-.538.206-1.09.737-2.394.842-3.857.279-1.309-.504-.594-2.395.173-2.068 1.369.584 1.977.068 3.506-.803.225-.128.558-.14.697-.14h.005c.14 0 .472.012.697.14 1.53.871 2.106 1.31 3.507.803.971-.351 1.519 1.564.21 2.068-1.463.563-2.767.458-3.858-.28-.12-.081-.343-.203-.537-.205z" clip-rule="evenodd"/><path fill="#272727" fill-rule="evenodd" d="M21.932 17.554c1.79-.04 3.1.106 4.816.438l4.08-2.548a1.77 1.77 0 0 1 2.501.675c3.873 7.39 4.274 15.01-.303 20.785-.708.893-1.57 1.583-2.41 2.226a1.77 1.77 0 0 1-2.473-.32 1.755 1.755 0 0 1 .321-2.466c.618-.474 1.272-.962 1.793-1.62 3.384-4.269 3.188-9.775.774-15.257l-3.006 1.877a1.77 1.77 0 0 1-1.297.231c-1.667-.346-2.831-.52-4.396-.51q-.126.013-.255.01l-.145-.004q-.072 0-.145.004a2 2 0 0 1-.255-.01c-1.565-.01-2.73.164-4.395.51a1.77 1.77 0 0 1-1.298-.23l-3.006-1.878c-2.414 5.482-2.61 10.988.774 15.257.521.658 1.175 1.146 1.793 1.62.771.592.915 1.697.321 2.465a1.77 1.77 0 0 1-2.474.321c-.838-.643-1.701-1.333-2.41-2.227-4.576-5.773-4.175-13.394-.302-20.783a1.764 1.764 0 0 1 2.5-.676l4.081 2.548c1.716-.332 3.025-.478 4.816-.438" clip-rule="evenodd"/><path fill="#272727" fill-rule="evenodd" d="M25.246 28.596c-.25.5-.859.706-1.36.458a1.01 1.01 0 0 1-.46-1.356c.492-.99 1.564-1.606 2.688-1.667 1.13-.062 2.281.424 2.904 1.53a1.01 1.01 0 0 1-.39 1.378 1.02 1.02 0 0 1-1.382-.388c-.215-.383-.63-.521-1.021-.5-.398.022-.805.195-.98.545" clip-rule="evenodd"/><path fill="#272727" fill-rule="evenodd" d="M16.826 28.687c-.249.5-.859.706-1.36.458a1.01 1.01 0 0 1-.46-1.356c.492-.99 1.564-1.606 2.688-1.667 1.13-.062 2.282.424 2.904 1.53a1.01 1.01 0 0 1-.39 1.378 1.02 1.02 0 0 1-1.382-.388c-.215-.383-.63-.521-1.021-.5-.398.022-.805.195-.98.545" clip-rule="evenodd"/><path fill="#272727" fill-rule="evenodd" d="M22.004 5.215c1.246-1.147 3.058-.979 4.038-.143 1.108.944 1.268 2.828.165 4.715-.567 1.028-1.843 2.075-3.098 2.868a2.07 2.07 0 0 1-2.21 0c-1.255-.792-2.53-1.84-3.096-2.865-1.104-1.89-.945-3.774.164-4.718.98-.836 2.79-1.004 4.037.143m-.641 1.553c-.61-1.04-1.82-1.088-2.43-.568-.287.244-.406.619-.406 1.045 0 .55.196 1.175.564 1.803l.011.02c.465.849 1.555 1.678 2.593 2.334.189.12.43.12.618 0 1.039-.656 2.128-1.485 2.593-2.335l.011-.019c.369-.628.565-1.253.565-1.803 0-.426-.12-.801-.406-1.045-.61-.52-1.82-.472-2.43.568a.744.744 0 0 1-1.283 0" clip-rule="evenodd"/></svg>