<svg xmlns="http://www.w3.org/2000/svg" width="30" height="30" fill="none" viewBox="0 0 30 30"><path fill="#3d3d3d" fill-rule="evenodd" d="M15.09 22.976c-.131.001-.283.084-.366.14-.743.503-1.632.574-2.63.19-.892-.343-.405-1.633.118-1.41.933.399 1.348.047 2.39-.547.154-.087.38-.096.476-.096h.003c.095 0 .322.009.475.096 1.043.594 1.437.893 2.391.547.663-.239 1.036 1.067.144 1.41-.998.384-1.887.313-2.63-.19-.083-.056-.235-.139-.367-.14z" clip-rule="evenodd"/><path fill="#3d3d3d" fill-rule="evenodd" d="M14.953 11.968c1.22-.027 2.114.072 3.284.3l2.782-1.738a1.206 1.206 0 0 1 1.705.46c2.64 5.039 2.913 10.235-.207 14.171-.483.61-1.071 1.08-1.643 1.518a1.206 1.206 0 0 1-1.686-.218 1.196 1.196 0 0 1 .219-1.681c.421-.323.867-.656 1.222-1.105 2.307-2.91 2.174-6.665.528-10.403l-2.05 1.28a1.2 1.2 0 0 1-.884.158c-1.137-.236-1.93-.355-2.997-.348a1 1 0 0 1-.174.007l-.099-.003-.099.003q-.088.003-.174-.007c-1.067-.007-1.86.112-2.997.348a1.2 1.2 0 0 1-.884-.157l-2.05-1.28c-1.646 3.737-1.78 7.492.528 10.402.355.449.801.782 1.222 1.105.526.403.624 1.157.22 1.68a1.206 1.206 0 0 1-1.687.22c-.572-.44-1.16-.91-1.643-1.519-3.12-3.936-2.848-9.132-.207-14.17a1.203 1.203 0 0 1 1.705-.461l2.783 1.737c1.17-.227 2.062-.326 3.283-.299" clip-rule="evenodd"/><path fill="#3d3d3d" fill-rule="evenodd" d="M17.213 19.497a.694.694 0 0 1-.928.312.69.69 0 0 1-.313-.924c.336-.675 1.067-1.095 1.833-1.137.771-.042 1.556.29 1.98 1.044a.69.69 0 0 1-.265.939.694.694 0 0 1-.943-.265c-.147-.26-.43-.355-.696-.34-.272.015-.55.133-.668.371" clip-rule="evenodd"/><path fill="#3d3d3d" fill-rule="evenodd" d="M11.473 19.56a.694.694 0 0 1-.928.311.69.69 0 0 1-.313-.924c.335-.674 1.066-1.095 1.833-1.137.77-.042 1.556.29 1.98 1.044a.69.69 0 0 1-.266.939.694.694 0 0 1-.942-.265c-.147-.26-.43-.355-.696-.34-.272.015-.55.133-.668.371" clip-rule="evenodd"/><path fill="#3d3d3d" fill-rule="evenodd" d="M15.002 3.556c.85-.782 2.085-.668 2.753-.098.756.644.865 1.928.113 3.215-.387.7-1.256 1.415-2.112 1.956a1.41 1.41 0 0 1-1.507 0c-.856-.54-1.725-1.255-2.111-1.954-.753-1.288-.644-2.573.111-3.217.669-.57 1.904-.684 2.753.098m-.437 1.059c-.416-.71-1.241-.742-1.657-.388-.195.167-.277.422-.277.713 0 .375.134.8.385 1.229l.008.013c.317.58 1.06 1.145 1.768 1.592a.39.39 0 0 0 .421 0c.708-.447 1.45-1.013 1.768-1.592l.008-.013c.25-.428.385-.854.385-1.23 0-.29-.082-.545-.277-.712-.416-.354-1.241-.322-1.657.388a.507.507 0 0 1-.875 0" clip-rule="evenodd"/></svg>