<svg xmlns="http://www.w3.org/2000/svg" width="32" height="32" data-name="Layer 1"><path d="M0 0v32h32V0zm24.3 19.4c-.1.9-.2 1.5-.4 2-.3.6-.5 1-1 1.5s-1 .8-1.5 1-1.1.4-2 .4h-6.8c-.9-.1-1.5-.2-2-.4-.6-.3-1-.5-1.5-1s-.8-1-1-1.5-.4-1.1-.4-2v-6.8c.1-.9.2-1.5.4-2 .3-.6.5-1 1-1.5s1-.8 1.5-1 1.1-.4 2-.4h6.8c.9.1 1.5.2 2 .4.6.3 1 .5 1.5 1s.8 1 1 1.5.4 1.1.4 2z" style="fill:none"/><path d="M29.33 6.89c-.34-.84-.84-1.69-1.69-2.53s-1.52-1.18-2.53-1.69c-.84-.34-1.86-.51-3.37-.67H10.27c-1.52 0-2.53.34-3.37.67-.84.34-1.69.84-2.53 1.69S3.19 5.88 2.68 6.89c-.34.84-.51 1.86-.67 3.37v11.47c0 1.52.34 2.53.67 3.37s.84 1.69 1.69 2.53 1.52 1.18 2.53 1.69c.84.34 1.86.51 3.37.67h11.47c1.52 0 2.53-.34 3.37-.67.84-.34 1.69-.84 2.53-1.69s1.18-1.52 1.69-2.53c.34-.84.51-1.86.67-3.37V10.26c0-1.52-.34-2.53-.67-3.37m-1.86 14.84c0 1.13-.24 1.79-.4 2.28-.03.08-.07.17-.1.25-.07.13-.13.27-.19.39-.24.49-.42.89-.83 1.3-.51.51-1.01.84-1.69 1.01-.51.17-1.18.34-2.53.51H10.26c-1.13 0-1.79-.25-2.28-.42-.08-.03-.17-.07-.25-.08-.13-.08-.27-.13-.39-.2-.49-.24-.89-.42-1.3-.81-.51-.51-.84-1.01-1.01-1.69-.17-.51-.34-1.18-.51-2.53V10.27c0-1.15.25-1.8.42-2.29.03-.08.07-.17.08-.24.08-.15.13-.29.2-.4.22-.49.42-.89.81-1.28.51-.51 1.01-.84 1.69-1.01.51-.17 1.18-.34 2.53-.51h11.47c1.15 0 1.8.24 2.29.4.08.03.17.07.24.1.15.07.29.12.4.19.49.24.89.42 1.28.83.51.51.84 1.01 1.01 1.69.17.51.34 1.18.51 2.53v11.47Z" style="fill:#fff;fill-rule:evenodd"/><path d="M25.11 8.58c0 .93-.74 1.69-1.69 1.69s-1.69-.76-1.69-1.69.76-1.69 1.69-1.69 1.69.74 1.69 1.69M16 8.75c-4.05 0-7.25 3.2-7.25 7.25s3.2 7.25 7.25 7.25 7.25-3.2 7.25-7.25-3.2-7.25-7.25-7.25m0 11.97c-2.53 0-4.72-2.02-4.72-4.72 0-2.53 2.02-4.72 4.72-4.72 2.53 0 4.72 2.02 4.72 4.72 0 2.53-2.19 4.72-4.72 4.72" style="fill:#fff;fill-rule:evenodd"/></svg>