<svg xmlns="http://www.w3.org/2000/svg" width="106" height="90" fill="none" viewBox="0 0 106 90"><g fill="#fefeff" fill-rule="evenodd" clip-path="url(#clip0_337_3441)" clip-rule="evenodd"><path d="M35.28 39.035c-.534-1.046-2.641-1.02-3.238 0-.634 1.084-.565 2.296 0 3.397.514 1 2.597 1.182 3.239 0 .609-1.123.549-2.326 0-3.397"/><path d="M24.733 39.035c-.526-1.046-2.594-1.02-3.18 0-.622 1.084-.555 2.296 0 3.397.505 1 2.55 1.182 3.18 0 .598-1.123.538-2.326 0-3.397"/><path d="M28.518 48.654c-.248.003-.533.158-.688.262-1.396.937-3.065 1.071-4.939.355-1.675-.64-.76-3.046.221-2.63 1.753.744 2.532.087 4.49-1.02.288-.163.714-.178.892-.179h.007c.178 0 .604.016.892.179 1.958 1.107 2.697 1.664 4.49 1.02 1.243-.446 1.944 1.99.269 2.63-1.874.716-3.543.582-4.939-.355-.155-.104-.44-.259-.688-.262z"/><path d="M74.263 39.876c.535-1.045 2.642-1.02 3.239 0 .634 1.084.565 2.296 0 3.398-.514 1-2.598 1.181-3.24 0-.609-1.123-.548-2.326 0-3.398"/><path d="M84.811 39.876c.526-1.045 2.594-1.02 3.18 0 .623 1.084.555 2.296 0 3.398-.505 1-2.55 1.181-3.18 0-.598-1.123-.538-2.326 0-3.398"/><path d="M81.025 49.496c.248.003.533.158.688.262 1.396.937 3.065 1.07 4.939.355 1.675-.64.76-3.046-.221-2.63-1.753.744-2.532.087-4.49-1.02-.287-.163-.714-.178-.892-.179h-.007c-.177 0-.604.016-.892.179-1.958 1.107-2.696 1.664-4.49 1.02-1.243-.446-1.944 1.99-.268 2.63 1.873.716 3.542.582 4.938-.355.155-.104.44-.259.688-.262z"/><path d="M90.444 82.704c2.825-1.915 4.807-4.865 4.988-8.843.084-1.831-.21-4.007-2.109-6.467-2.177-2.822-5.927-6.117-3.683-13.771a2.264 2.264 0 0 1 3.225-1.354c1.564.614 2.806.727 3.749.24 1.548-.802 2.03-2.878 2.02-5.274-.026-7.497-5.988-18.44-17.569-18.44-13.07 0-18.707 10.89-18.279 18.288.137 2.374.799 4.413 2.405 5.136 1.009.453 2.293.258 3.865-.498a2.27 2.27 0 0 1 3.019 1.033 2.226 2.226 0 0 1-1.044 2.988c-3.116 1.5-5.708 1.446-7.708.547-2.909-1.308-4.798-4.653-5.047-8.95-.536-9.267 6.418-23.015 22.789-23.015 14.463 0 22.053 13.531 22.087 22.895.016 4.353-1.633 7.796-4.445 9.251-1.381.715-3.101 1.015-5.162.636-.327 3.931 2.035 5.847 3.368 7.575 1.2 1.555 1.954 3.033 2.411 4.427.612-.162 1.333-.446 1.811-1.172.493-.749.689-1.877.528-3.558-.118-1.228.795-2.32 2.036-2.436s2.344.787 2.461 2.015c.333 3.478-.532 5.604-1.647 6.974-1.215 1.493-3.447 2.292-4.551 2.612q-.006.262-.017.52c-.439 9.638-8.46 15.09-17.092 15.708-8.567.613-17.535-3.582-19.93-12.7-.105-.4-.17-1.638-.48-3.186-.546-2.727-2.092-6.778-7.7-6.939a2 2 0 0 1-.3-.028 2 2 0 0 1-.263.025c-5.092.188-6.548 3.866-7.08 6.347-.305 1.42-.378 2.559-.478 2.94-1.935 7.365-8.156 11.535-15.005 12.353-10.051 1.2-21.36-4.832-21.743-18.208-8.886-4.32-13.858-16.6-7.849-26.788a2.273 2.273 0 0 1 3.09-.803 2.224 2.224 0 0 1 .811 3.057c-4.486 7.605-1.04 16.753 5.443 20.267q.106-.255.204-.464c.855-1.815 2.152-3.519 3.07-5.308.496-.969.88-1.961.814-3.062-.068-1.127-.618-2.323-1.78-3.711a2 2 0 0 1-.1-.13c-6.727-6.92-5.742-18.497-.896-27.033a2.26 2.26 0 0 1 1.464-1.083 2.28 2.28 0 0 1 1.794.342l4.907 3.373a34.8 34.8 0 0 1 14.202-.344l5.232-3.245a2.28 2.28 0 0 1 1.79-.263c.609.163 1.12.57 1.412 1.122 4.958 9.396 5.47 19.086-.388 26.428-.907 1.136-2.012 2.013-3.085 2.831a2.275 2.275 0 0 1-3.168-.407 2.22 2.22 0 0 1 .412-3.135c.79-.603 1.628-1.224 2.296-2.06 4.332-5.428 4.081-12.43.99-19.4l-3.849 2.387a2.28 2.28 0 0 1-1.66.294c-4.684-.968-9.367-.863-14.051.367a2.28 2.28 0 0 1-1.868-.324l-3.615-2.485c-2.995 6.601-3.523 14.684 1.455 19.656.06.06.408.54.408.54l-.202-.283c1.945 2.325 2.695 4.407 2.81 6.295.115 1.914-.433 3.67-1.297 5.353-.895 1.746-2.169 3.404-3.003 5.175-.33.7-.755 1.97-.99 3.118-.091.449-.192.865-.171 1.17l.019.135q.046.202.054.402c.635 4.116 2.742 7.156 5.538 9.133 3.363 1.595 6.632 1.534 6.663-.457.037-2.44 0-5.483 0-6.575 0-2.648 4.532-2.648 4.532 0v6.67c0 1.78 4.566 2.148 8.552-1.421a11.5 11.5 0 0 0 2.386-4.604c.38-1.449.673-12.22 11.761-12.63q.231-.008.45.028.203-.031.413-.025c7.46.213 10.35 4.794 11.557 8.764.67 2.205.727 4.182.864 4.705.69 2.626 2.123 4.677 3.99 6.185q0-.006-.003-.01c3.55 1.877 8 1.784 8.033-.318.037-2.44 0-5.483 0-6.575 0-2.648 4.532-2.648 4.532 0V81.9c0 1.439 3.226 2.347 6.597.804"/><path d="M53.924 6.599c2.713-2.44 6.656-2.082 8.79-.305 2.412 2.009 2.76 6.017.359 10.032-1.234 2.187-4.01 4.415-6.744 6.102a4.59 4.59 0 0 1-4.811 0c-2.733-1.687-5.509-3.914-6.74-6.097-2.406-4.018-2.058-8.028.355-10.037 2.134-1.777 6.077-2.134 8.79.305m-1.398 3.304c-1.328-2.213-3.962-2.315-5.29-1.208-.623.518-.884 1.316-.884 2.223 0 1.17.427 2.499 1.23 3.835l.023.04c1.013 1.809 3.385 3.573 5.645 4.968.411.254.935.254 1.346 0 2.261-1.395 4.633-3.16 5.646-4.967l.024-.04c.802-1.337 1.23-2.666 1.23-3.836 0-.907-.262-1.705-.885-2.223-1.328-1.107-3.962-1.005-5.29 1.208-.29.484-.823.781-1.398.781a1.63 1.63 0 0 1-1.397-.78"/></g><defs><clipPath id="clip0_337_3441"><path fill="#fff" d="M0 0h106v90H0z"/></clipPath></defs></svg>