<svg xmlns="http://www.w3.org/2000/svg" width="32" height="32" data-name="Layer 1"><path d="M0 0v32h32V0zm11.6 24H8.2V13.3h3.4zM9.9 11.8C8.8 11.8 8 11 8 9.9S8.9 8 9.9 8c1.1 0 1.9.8 1.9 1.9s-.8 1.9-1.9 1.9M23.8 24h-3.2v-5.8c0-1.7-.7-2.2-1.7-2.2s-2 .8-2 2.3V24h-3.4V13.3h3.2v1.5c.3-.7 1.5-1.8 3.2-1.8 1.9 0 3.9 1.1 3.9 4.4z" style="fill:none"/><path d="M25.78 17.75V26h-4v-7.25c0-2.13-.88-2.75-2.13-2.75s-2.5 1-2.5 2.87V26H12.9V12.62h4v1.88c.37-.88 1.88-2.25 4-2.25 2.38 0 4.88 1.37 4.88 5.5m-15-9.37c0 1.37-1 2.37-2.38 2.37s-2.38-1-2.38-2.37S7.15 6 8.4 6c1.37 0 2.38 1 2.38 2.38" style="fill:#fff;fill-rule:evenodd"/><path d="M6.28 12.62h4.25V26H6.28z" style="fill:#fff"/></svg>