<svg xmlns="http://www.w3.org/2000/svg" width="25" height="24" fill="none" viewBox="0 0 25 24"><path fill="#272727" fill-rule="evenodd" d="M18.752 5.612c1.375.844 2.672 2.587 3.601 1.965.93-.623 1.325-3.8-1.432-5.26-.988-.523-2.405-.195-2.995.751s-.126 1.96.826 2.544" clip-rule="evenodd"/><path fill="#272727" fill-rule="evenodd" d="M5.578 6.187c-1.424.758-2.773 2.403-3.663 1.725s-1.048-3.83 1.794-5.12c1.018-.462 2.369-.092 2.9.889.532.98-.044 1.98-1.03 2.506" clip-rule="evenodd"/><path fill="#272727" fill-rule="evenodd" d="M10.869 4.27c-.91.234-1.698-.421-2.005-1.384-.317-.996.33-2.008 1.069-2.277C11.27.121 13.025.178 14.22.608c.877.316 1.336 1.168 1.142 2.176-.194 1.007-.909 1.567-1.818 1.371-1.314-.282-2.677.114-2.677.114" clip-rule="evenodd"/><path fill="#272727" fill-rule="evenodd" d="M7.56 20.741c.494 1.227.383 2.403-.708 3.01-1.518.842-3.04-.673-3.568-1.61-.768-1.364-1.096-3.823-.775-6.404.522-4.194 3.534-8.128 7.694-9.03 4.911-1.065 9.73 1.401 10.462 4.934.33 1.611-.335 3.879-1.476 5.07-1.24 1.296-3.527 2.249-5.628 2.377-.83.05-2.478-.393-2.764-2.078-.243-1.436 1.053-2.675 2.773-2.592 1.813.088 3.804-.532 3.11-2.332-.815-2.119-4.59-2.286-6.885-1.172a5.66 5.66 0 0 0-3.176 4.732c-.13 1.952.108 3.03.94 5.095" clip-rule="evenodd"/></svg>