<svg width="142" height="48" viewBox="0 0 142 48" fill="none" xmlns="http://www.w3.org/2000/svg">
<g clip-path="url(#clip0_543_3820)">
<path fill-rule="evenodd" clip-rule="evenodd" d="M12.3738 40.7612C13.3582 43.2033 13.1373 45.545 10.9638 46.7517C7.94298 48.4287 4.91353 45.4139 3.86199 43.5476C2.33247 40.8329 1.68002 35.9363 2.31959 30.7991C3.359 22.4498 9.35413 14.6181 17.6355 12.8225C27.4119 10.7027 37.0059 15.6119 38.4617 22.6447C39.1178 25.8529 37.796 30.366 35.524 32.7392C33.0548 35.3182 28.5026 37.2149 24.3195 37.4701C22.6676 37.5699 19.387 36.687 18.8182 33.3328C18.3335 30.4746 20.9143 28.0072 24.3385 28.1734C27.9476 28.3487 31.9116 27.1143 30.531 23.5306C28.906 19.313 21.393 18.9802 16.823 21.1981C13 23.0534 10.7602 26.7464 10.5016 30.6185C10.2422 34.503 10.7159 36.6483 12.3738 40.7612Z" fill="#272727"/>
<path fill-rule="evenodd" clip-rule="evenodd" d="M18.9625 7.97055C17.153 8.43825 15.5825 7.13257 14.973 5.21543C14.342 3.23449 15.6304 1.21991 17.0998 0.683774C19.7619 -0.287373 23.2549 -0.175097 25.6358 0.681286C27.3828 1.3097 28.2951 3.00665 27.9096 5.0124C27.524 7.01815 26.1011 8.13246 24.29 7.74286C21.6748 7.18033 18.9625 7.97055 18.9625 7.97055Z" fill="#272727"/>
<path fill-rule="evenodd" clip-rule="evenodd" d="M8.43101 11.7861C5.59607 13.2958 2.90946 16.5703 1.13818 15.2204C-0.633112 13.8706 -0.948436 7.59411 4.70872 5.02727C6.73646 4.10717 9.42537 4.84559 10.483 6.7975C11.5407 8.74941 10.3944 10.7406 8.43101 11.7861Z" fill="#272727"/>
<path fill-rule="evenodd" clip-rule="evenodd" d="M34.6545 10.6438C37.3919 12.323 39.974 15.7935 41.8241 14.5541C43.6742 13.3148 44.4613 6.99068 38.9717 4.08462C37.0064 3.04267 34.1856 3.69534 33.011 5.57906C31.8364 7.46277 32.7587 9.48088 34.6545 10.6438Z" fill="#272727"/>
<path fill-rule="evenodd" clip-rule="evenodd" d="M56.4737 35.7786V47.0102C56.4737 47.3812 56.3466 47.6243 56.1757 47.7714C56.0398 47.8929 55.8602 47.9633 55.6322 47.9633H52.1959C51.8934 47.9633 51.6744 47.8545 51.521 47.6882C51.3851 47.5347 51.2974 47.3172 51.2974 47.0102V16.5582C51.2974 16.264 51.3938 16.0529 51.5384 15.9058C51.6874 15.7586 51.8978 15.6691 52.1959 15.6691H52.4852C53.6774 15.6691 54.5759 16.0273 55.1939 16.7053C55.5884 17.1402 55.8908 17.6199 56.1012 18.1572C56.7367 17.4089 57.5388 16.7564 58.5118 16.2128C59.7785 15.5028 61.2863 15.1446 63.0395 15.1446C66.41 15.1446 69.0222 16.2575 70.8893 18.4514C72.7389 20.6261 73.6725 23.3892 73.6725 26.7408C73.6725 28.8515 73.2693 30.7768 72.4672 32.5293C71.6563 34.301 70.4773 35.7082 68.9389 36.7572C67.3917 37.8062 65.5245 38.3371 63.3287 38.3371C61.7552 38.3371 60.3001 38.0556 58.9633 37.4928C57.9991 37.0834 57.1663 36.5142 56.4737 35.7786ZM62.5135 33.4312C63.3857 33.4312 64.2755 33.2137 65.1872 32.7788C66.0857 32.3502 66.8308 31.6531 67.4225 30.6872C68.0317 29.7022 68.3253 28.3846 68.3253 26.7408C68.3253 24.4957 67.7556 22.82 66.5678 21.7326C65.3844 20.6517 63.9949 20.108 62.3995 20.108C61.5536 20.108 60.6638 20.2935 59.7259 20.6581C58.8142 21.0099 58.0471 21.6687 57.4204 22.6089C56.7761 23.5747 56.4737 24.9563 56.4737 26.7408C56.4737 28.4933 56.7893 29.8621 57.4512 30.8471C58.0955 31.8066 58.8844 32.4782 59.818 32.8556C60.7735 33.2393 61.672 33.4312 62.5135 33.4312ZM94.2683 35.5867C93.5451 36.3734 92.7166 36.9811 91.7962 37.4288C90.5339 38.03 89.1313 38.3371 87.5885 38.3371C85.3532 38.3371 83.4554 37.8062 81.8951 36.7572C80.3303 35.7146 79.1425 34.301 78.3317 32.5293C77.5296 30.7768 77.1263 28.8515 77.1263 26.7408C77.1263 24.5085 77.5733 22.5257 78.4587 20.7924C79.3484 19.0398 80.5976 17.6647 82.1974 16.6605C83.7972 15.6499 85.6513 15.1446 87.7595 15.1446C89.4689 15.1446 90.9634 15.4708 92.2432 16.1168C93.2425 16.6221 94.0753 17.249 94.7415 17.9973C94.9913 17.3065 95.3639 16.782 95.8372 16.4175C96.4903 15.9249 97.3143 15.6691 98.3136 15.6691H98.6074C98.8353 15.6691 99.0105 15.7395 99.1464 15.8546C99.3217 16.0017 99.4445 16.2447 99.4445 16.6157V36.866C99.4445 37.2369 99.3217 37.4799 99.1464 37.6271C99.0105 37.7486 98.8353 37.8126 98.6074 37.8126H95.1668C94.8644 37.8126 94.6452 37.7102 94.4962 37.5439C94.3603 37.3904 94.2683 37.173 94.2683 36.866V35.5867ZM88.2285 33.4312C89.1445 33.4312 90.0736 33.2393 91.0072 32.8556C91.9233 32.4846 92.6903 31.813 93.317 30.8471C93.9613 29.8621 94.2683 28.4933 94.2683 26.7408C94.2683 24.9563 93.9658 23.5747 93.3215 22.6089C92.6947 21.6623 91.9365 21.0099 91.0423 20.6581C90.1263 20.2935 89.2453 20.108 88.4038 20.108C86.8391 20.108 85.4584 20.6517 84.2619 21.7326C83.0566 22.82 82.478 24.4957 82.478 26.7408C82.478 28.3846 82.7717 29.7022 83.3765 30.6872C83.9726 31.6531 84.7046 32.3502 85.59 32.7788C86.4797 33.2137 87.3563 33.4312 88.2285 33.4312ZM107.097 20.3383H103.564C103.271 20.3383 103.056 20.2423 102.907 20.1016C102.762 19.9545 102.666 19.7434 102.666 19.4492V16.5582C102.666 16.264 102.762 16.0529 102.907 15.9058C103.056 15.7586 103.271 15.6691 103.564 15.6691H107.097V9.57357C107.097 9.20259 107.22 8.95952 107.395 8.8124C107.531 8.69727 107.711 8.62695 107.934 8.62695H108.228C109.49 8.62695 110.477 9.01708 111.195 9.77183C111.897 10.5138 112.273 11.6204 112.273 13.1043V15.6691H116.332C116.617 15.6691 116.819 15.765 116.963 15.9249C117.086 16.072 117.169 16.2767 117.169 16.5582V19.4492C117.169 19.7306 117.086 19.9353 116.963 20.0761C116.819 20.236 116.617 20.3383 116.332 20.3383H112.273V36.866C112.273 37.173 112.181 37.3904 112.046 37.5439C111.897 37.7102 111.677 37.8126 111.375 37.8126H107.934C107.711 37.8126 107.531 37.7486 107.395 37.6271C107.22 37.4799 107.097 37.2369 107.097 36.866V20.3383ZM136.774 35.5867C136.051 36.3734 135.223 36.9811 134.302 37.4288C133.04 38.03 131.638 38.3371 130.095 38.3371C127.859 38.3371 125.962 37.8062 124.401 36.7572C122.837 35.7146 121.649 34.301 120.838 32.5293C120.036 30.7768 119.633 28.8515 119.633 26.7408C119.633 24.5085 120.08 22.5257 120.965 20.7924C121.855 19.0398 123.104 17.6647 124.704 16.6605C126.303 15.6499 128.157 15.1446 130.27 15.1446C131.975 15.1446 133.47 15.4708 134.749 16.1168C135.749 16.6221 136.582 17.249 137.248 17.9973C137.498 17.3065 137.87 16.782 138.343 16.4175C138.997 15.9249 139.821 15.6691 140.82 15.6691H141.113C141.341 15.6691 141.517 15.7395 141.653 15.8546C141.828 16.0017 141.951 16.2447 141.951 16.6157V36.866C141.951 37.2369 141.828 37.4799 141.653 37.6271C141.517 37.7486 141.341 37.8126 141.113 37.8126H137.673C137.37 37.8126 137.151 37.7102 137.002 37.5439C136.867 37.3904 136.779 37.173 136.779 36.866L136.774 35.5867ZM130.735 33.4312C131.651 33.4312 132.58 33.2393 133.513 32.8556C134.43 32.4846 135.196 31.813 135.823 30.8471C136.468 29.8621 136.779 28.4933 136.779 26.7408C136.779 24.9563 136.472 23.5747 135.828 22.6089C135.201 21.6623 134.443 21.0099 133.549 20.6581C132.633 20.2935 131.752 20.108 130.91 20.108C129.345 20.108 127.965 20.6517 126.768 21.7326C125.563 22.82 124.984 24.4957 124.984 26.7408C124.984 28.3846 125.278 29.7022 125.883 30.6872C126.479 31.6531 127.211 32.3502 128.096 32.7788C128.986 33.2137 129.863 33.4312 130.735 33.4312Z" fill="#272727"/>
<path d="M62.5815 44.8668C62.4422 44.7919 62.3114 44.7346 62.188 44.6972C62.0638 44.6597 61.9139 44.6406 61.7368 44.6406C61.4393 44.6406 61.1934 44.741 61.0003 44.9424C60.8073 45.1431 60.7112 45.4321 60.7112 45.8095C60.7112 46.1741 60.8058 46.461 60.9958 46.6716C61.1858 46.8822 61.4582 46.9875 61.8125 46.9875C62.0214 46.9875 62.1971 46.95 62.3394 46.8744C62.4817 46.7988 62.5944 46.7204 62.677 46.6391C62.6891 46.6264 62.7064 46.6123 62.7291 46.596C62.7511 46.5805 62.7716 46.5727 62.7905 46.5727C62.8541 46.5727 62.8858 46.62 62.8858 46.714C62.8858 46.8398 62.8396 46.9734 62.7481 47.1147C62.6557 47.256 62.5203 47.3754 62.3394 47.473C62.1592 47.5705 61.9328 47.6185 61.6604 47.6185C61.1608 47.6185 60.7551 47.4574 60.4448 47.1338C60.1352 46.8101 59.98 46.3656 59.98 45.8003C59.98 45.4293 60.0527 45.107 60.198 44.8343C60.3441 44.5608 60.5462 44.3488 60.8058 44.1975C61.0654 44.047 61.3659 43.9714 61.708 43.9714C61.8723 43.9714 62.0169 43.9827 62.1402 44.0046C62.2636 44.0265 62.3855 44.0626 62.5058 44.1128C62.7526 44.2138 62.8412 44.3862 62.7716 44.6315L62.7238 44.8201C62.7117 44.8703 62.689 44.895 62.6572 44.895C62.6383 44.895 62.6133 44.8859 62.5815 44.8668Z" fill="#272727"/>
<path d="M65.0884 47.6187C64.5692 47.6187 64.1801 47.4668 63.9205 47.1622C63.6609 46.8569 63.5315 46.4379 63.5315 45.9036V44.1412C63.5315 44.0847 63.5565 44.0564 63.6072 44.0564H63.6549C64.0409 44.0564 64.2339 44.2734 64.2339 44.7073V45.9793C64.2339 46.3121 64.3111 46.5601 64.4663 46.7241C64.6214 46.8873 64.8288 46.9686 65.0884 46.9686C65.3481 46.9686 65.5554 46.8951 65.7106 46.7474C65.8658 46.5997 65.943 46.3531 65.943 46.0075V44.1412C65.943 44.0847 65.9687 44.0564 66.0194 44.0564H66.0664C66.4592 44.0564 66.6553 44.2734 66.6553 44.7073V45.951C66.6553 46.4661 66.5243 46.8732 66.2617 47.1714C65.9982 47.4696 65.6077 47.6187 65.0884 47.6187Z" fill="#272727"/>
<path d="M67.5476 43.1236C67.5476 42.9978 67.5892 42.8947 67.671 42.8127C67.7535 42.7307 67.8549 42.6904 67.9753 42.6904C68.0888 42.6904 68.1872 42.7307 68.2697 42.8127C68.3522 42.8947 68.3931 42.9978 68.3931 43.1236C68.3931 43.243 68.3522 43.3434 68.2697 43.4254C68.1872 43.5066 68.0888 43.5476 67.9753 43.5476C67.8549 43.5476 67.7535 43.5066 67.671 43.4254C67.5892 43.3434 67.5476 43.243 67.5476 43.1236ZM67.6906 47.5247C67.6399 47.5247 67.6142 47.4965 67.6142 47.4399V44.1412C67.6142 44.0847 67.6399 44.0564 67.6906 44.0564H67.7376C67.9215 44.0564 68.0653 44.1101 68.1698 44.2168C68.2742 44.3235 68.3265 44.4868 68.3265 44.7073V47.4399C68.3265 47.4965 68.3015 47.5247 68.2508 47.5247H67.6906Z" fill="#272727"/>
<path d="M71.9734 44.5086V42.3695C71.9734 42.3129 71.9984 42.2847 72.0491 42.2847H72.0968C72.2799 42.2847 72.4245 42.3384 72.5282 42.4451C72.6334 42.5518 72.6857 42.715 72.6857 42.9348V47.4398C72.6857 47.4964 72.66 47.5246 72.6092 47.5246H72.0491C71.9984 47.5246 71.9734 47.4964 71.9734 47.4398V47.0349C71.8402 47.2292 71.6737 47.3741 71.4746 47.4681C71.2748 47.5621 71.0553 47.6094 70.8146 47.6094C70.4725 47.6094 70.1802 47.5281 69.9365 47.3642C69.6928 47.2009 69.5059 46.9812 69.3757 46.7049C69.2463 46.4286 69.1812 46.1233 69.1812 45.7904C69.1812 45.4385 69.2508 45.1262 69.39 44.8527C69.5293 44.5792 69.7238 44.3644 69.9744 44.2075C70.2241 44.0499 70.5201 43.9715 70.8623 43.9715C71.103 43.9715 71.321 44.0188 71.517 44.1128C71.7138 44.2075 71.8652 44.339 71.9734 44.5086ZM70.919 46.9501C71.0772 46.9501 71.2369 46.9169 71.3989 46.8512C71.5601 46.7847 71.6964 46.6667 71.8069 46.4971C71.9174 46.3275 71.9734 46.0922 71.9734 45.7904C71.9734 45.483 71.9174 45.2456 71.8069 45.0788C71.6964 44.9128 71.5617 44.7983 71.4035 44.7347C71.2453 44.6725 71.0931 44.6407 70.9478 44.6407C70.6753 44.6407 70.4346 44.7347 70.2257 44.9234C70.0168 45.112 69.9123 45.4011 69.9123 45.7904C69.9123 46.0731 69.9645 46.2992 70.069 46.4688C70.1734 46.6392 70.3037 46.7614 70.4588 46.837C70.614 46.9119 70.7669 46.9501 70.919 46.9501Z" fill="#272727"/>
<path d="M76.322 47.0348C76.1828 47.2292 76.0155 47.374 75.8195 47.468C75.6227 47.562 75.4047 47.6094 75.164 47.6094C74.8158 47.6094 74.5198 47.5281 74.2761 47.3641C74.0323 47.2009 73.8469 46.9811 73.7205 46.7048C73.5941 46.4285 73.5305 46.1232 73.5305 45.7904C73.5305 45.4385 73.6001 45.1261 73.7394 44.8526C73.8787 44.5792 74.0732 44.3643 74.3237 44.2075C74.5735 44.0499 74.8635 43.9714 75.192 43.9714C75.4584 43.9714 75.6907 44.0216 75.8906 44.1227C76.0896 44.223 76.2463 44.3551 76.3606 44.5184C76.3916 44.3551 76.4553 44.2371 76.5507 44.165C76.6453 44.093 76.7656 44.0562 76.9109 44.0562H76.9586C77.0025 44.0562 77.0252 44.0845 77.0252 44.141V47.4398C77.0252 47.4963 77.0025 47.5245 76.9586 47.5245H76.3985C76.3477 47.5245 76.322 47.4963 76.322 47.4398V47.0348ZM75.2684 46.95C75.4266 46.95 75.5863 46.9168 75.7475 46.8511C75.9095 46.7847 76.0457 46.6666 76.1562 46.497C76.2667 46.3274 76.322 46.0921 76.322 45.7904C76.322 45.483 76.2667 45.2456 76.1562 45.0788C76.0457 44.9127 75.9111 44.7982 75.7529 44.7346C75.5947 44.6724 75.4425 44.6406 75.2972 44.6406C75.0247 44.6406 74.784 44.7346 74.5751 44.9233C74.3661 45.112 74.2617 45.401 74.2617 45.7904C74.2617 46.073 74.3139 46.2992 74.4183 46.4688C74.5228 46.6391 74.653 46.7613 74.8075 46.837C74.9626 46.9119 75.1163 46.95 75.2684 46.95Z" fill="#272727"/>
<path d="M78.7245 44.5185C78.8199 44.3736 78.9577 44.2485 79.1378 44.1411C79.3187 44.0344 79.5352 43.9814 79.7887 43.9814C80.0665 43.9814 80.3072 44.038 80.5101 44.151C80.713 44.2641 80.8742 44.421 80.9946 44.6224C81.1081 44.4584 81.2648 44.3107 81.4646 44.1793C81.6637 44.0472 81.9127 43.9814 82.2101 43.9814C82.659 43.9814 83.0095 44.1164 83.2593 44.3864C83.509 44.6563 83.6339 45.0238 83.6339 45.4887V47.4399C83.6339 47.4964 83.6089 47.5247 83.5582 47.5247H83.0072C82.9565 47.5247 82.9315 47.4964 82.9315 47.4399V45.6117C82.9315 45.2789 82.8558 45.0322 82.7036 44.8718C82.5515 44.7114 82.3457 44.6316 82.086 44.6316C81.8143 44.6316 81.597 44.715 81.4358 44.881C81.2745 45.0478 81.1936 45.3036 81.1936 45.6492V47.4399C81.1936 47.4964 81.1686 47.5247 81.1179 47.5247H80.5578C80.5071 47.5247 80.4813 47.4964 80.4813 47.4399V45.6117C80.4813 45.2789 80.4071 45.0322 80.2588 44.8718C80.1097 44.7114 79.9053 44.6316 79.6457 44.6316C79.3672 44.6316 79.1477 44.715 78.9857 44.881C78.8245 45.0478 78.7435 45.3036 78.7435 45.6492V47.4399C78.7435 47.4964 78.7215 47.5247 78.6776 47.5247H78.1167C78.0668 47.5247 78.041 47.4964 78.041 47.4399V44.132C78.041 44.0818 78.0668 44.0563 78.1167 44.0563H78.1644C78.4808 44.0563 78.6678 44.2104 78.7245 44.5185Z" fill="#272727"/>
<path d="M86.236 47.6094C85.6978 47.6094 85.2686 47.4447 84.9492 47.1147C84.6298 46.7847 84.4692 46.3465 84.4692 45.8003C84.4692 45.2533 84.6298 44.8117 84.9492 44.476C85.2686 44.1396 85.6947 43.9714 86.226 43.9714C86.7642 43.9714 87.1949 44.1396 87.5174 44.476C87.8406 44.8117 88.0018 45.2505 88.0018 45.7904C88.0018 46.3373 87.8421 46.7769 87.5227 47.1098C87.2025 47.4433 86.7741 47.6094 86.236 47.6094ZM86.226 46.9401C86.5235 46.9401 86.7726 46.8461 86.9717 46.6575C87.1715 46.4688 87.2707 46.1833 87.2707 45.8003C87.2707 45.4293 87.1715 45.1431 86.9717 44.9424C86.7726 44.741 86.5235 44.6406 86.226 44.6406C85.9225 44.6406 85.6758 44.741 85.4858 44.9424C85.2958 45.1431 85.2004 45.4293 85.2004 45.8003C85.2004 46.1706 85.2958 46.4532 85.4858 46.6483C85.6758 46.8426 85.9225 46.9401 86.226 46.9401Z" fill="#272727"/>
<path d="M90.8033 44.8103C90.6512 44.729 90.5058 44.6689 90.3666 44.6315C90.2273 44.5933 90.0752 44.5749 89.9109 44.5749C89.7467 44.5749 89.6119 44.606 89.5075 44.6689C89.403 44.7318 89.3508 44.8258 89.3508 44.9516C89.3508 45.071 89.4106 45.1685 89.5309 45.2441C89.6513 45.319 89.8004 45.3883 89.9775 45.4512C90.1546 45.5141 90.3333 45.5862 90.5142 45.6681C90.6943 45.7494 90.8449 45.8547 90.9653 45.984C91.0849 46.1126 91.1454 46.2872 91.1454 46.507C91.1454 46.8398 91.0266 47.1098 90.7889 47.3175C90.552 47.5246 90.2273 47.6284 89.8163 47.6284C89.5567 47.6284 89.3319 47.5825 89.1419 47.4914C88.9519 47.4009 88.8065 47.2857 88.7051 47.1479C88.6037 47.0094 88.553 46.8709 88.553 46.7331C88.553 46.6264 88.5878 46.5727 88.6574 46.5727C88.6824 46.5727 88.7112 46.5882 88.7429 46.62C88.8633 46.7267 89.0026 46.8207 89.1608 46.9027C89.319 46.9847 89.5151 47.0249 89.7497 47.0249C89.9775 47.0249 90.1486 46.9847 90.2621 46.9027C90.3764 46.8207 90.4332 46.7112 90.4332 46.5727C90.4332 46.4469 90.3726 46.3465 90.253 46.2709C90.1327 46.196 89.982 46.1282 89.8019 46.0688C89.621 46.0088 89.4409 45.9381 89.2607 45.8568C89.0798 45.7749 88.93 45.6682 88.8096 45.536C88.6893 45.4039 88.6287 45.2286 88.6287 45.0081C88.6287 44.6753 88.7559 44.4194 89.0087 44.24C89.2623 44.0612 89.5658 43.9714 89.92 43.9714C90.2304 43.9714 90.4998 44.028 90.7276 44.141C90.8541 44.1919 90.9365 44.2562 90.9744 44.3347C91.0122 44.4131 91.0152 44.5184 90.9842 44.6498L90.9555 44.7728C90.9494 44.8166 90.9267 44.8385 90.8889 44.8385C90.876 44.8385 90.8623 44.8357 90.8464 44.8293C90.8305 44.823 90.8162 44.8166 90.8033 44.8103Z" fill="#272727"/>
<path d="M94.1368 46.0448C94.1746 46.372 94.295 46.6122 94.4971 46.7663C94.6999 46.9196 94.9656 46.9967 95.2948 46.9967C95.5613 46.9967 95.7732 46.962 95.9314 46.8928C96.0896 46.8242 96.2349 46.7423 96.3681 46.6483C96.3931 46.6356 96.4174 46.62 96.4393 46.6009C96.4613 46.5819 96.4817 46.5727 96.5013 46.5727C96.5324 46.5727 96.5566 46.5868 96.5725 46.6151C96.5877 46.6434 96.596 46.673 96.596 46.7048C96.596 46.837 96.5438 46.9734 96.4393 47.1147C96.3349 47.256 96.1797 47.374 95.9738 47.468C95.7679 47.562 95.5136 47.6094 95.2093 47.6094C94.8997 47.6094 94.6098 47.5451 94.3403 47.4164C94.0716 47.2871 93.8529 47.0892 93.6857 46.8221C93.5176 46.5557 93.4336 46.2116 93.4336 45.7904C93.4336 45.4385 93.5032 45.1261 93.6425 44.8526C93.7818 44.5792 93.9763 44.3643 94.2268 44.2075C94.4766 44.0499 94.7665 43.9714 95.0958 43.9714C95.4689 43.9714 95.7702 44.0485 95.998 44.2025C96.2259 44.3566 96.3916 44.5544 96.4961 44.7961C96.6005 45.0378 96.6527 45.2943 96.6527 45.5643C96.6527 45.6462 96.6512 45.7155 96.6482 45.7713C96.6452 45.8285 96.6406 45.8815 96.6338 45.9317C96.6277 46.0073 96.5801 46.0448 96.4915 46.0448H94.1368ZM94.1557 45.5077H95.9504C95.9564 45.3636 95.9359 45.2222 95.8883 45.0837C95.8413 44.9452 95.7543 44.8293 95.6271 44.7346C95.5007 44.6406 95.3206 44.5933 95.086 44.5933C94.8203 44.5933 94.6068 44.6739 94.4448 44.8343C94.2836 44.994 94.1875 45.2187 94.1557 45.5077Z" fill="#272727"/>
<path d="M101.867 47.0348C101.727 47.2292 101.559 47.374 101.363 47.468C101.166 47.562 100.948 47.6094 100.708 47.6094C100.359 47.6094 100.064 47.5281 99.8198 47.3641C99.5761 47.2009 99.3914 46.9811 99.2642 46.7048C99.1378 46.4285 99.0742 46.1232 99.0742 45.7904C99.0742 45.4385 99.1438 45.1261 99.2831 44.8526C99.4224 44.5792 99.6177 44.3643 99.8675 44.2075C100.117 44.0499 100.407 43.9714 100.736 43.9714C101.002 43.9714 101.235 44.0216 101.434 44.1227C101.633 44.223 101.79 44.3551 101.904 44.5184C101.936 44.3551 101.999 44.2371 102.094 44.165C102.189 44.093 102.309 44.0562 102.455 44.0562H102.502C102.547 44.0562 102.569 44.0845 102.569 44.141V47.4398C102.569 47.4963 102.547 47.5245 102.502 47.5245H101.942C101.892 47.5245 101.867 47.4963 101.867 47.4398V47.0348ZM100.812 46.95C100.97 46.95 101.13 46.9168 101.292 46.8511C101.453 46.7847 101.589 46.6666 101.7 46.497C101.811 46.3274 101.867 46.0921 101.867 45.7904C101.867 45.483 101.811 45.2456 101.7 45.0788C101.589 44.9127 101.455 44.7982 101.297 44.7346C101.138 44.6724 100.986 44.6406 100.841 44.6406C100.568 44.6406 100.328 44.7346 100.119 44.9233C99.9098 45.112 99.8054 45.401 99.8054 45.7904C99.8054 46.073 99.8577 46.2992 99.9621 46.4688C100.067 46.6391 100.197 46.7613 100.352 46.837C100.507 46.9119 100.66 46.95 100.812 46.95Z" fill="#272727"/>
<path d="M104.269 44.5185C104.364 44.3736 104.501 44.2485 104.682 44.1411C104.862 44.0344 105.079 43.9814 105.333 43.9814C105.611 43.9814 105.852 44.038 106.054 44.151C106.257 44.2641 106.418 44.421 106.538 44.6224C106.653 44.4584 106.809 44.3107 107.008 44.1793C107.208 44.0472 107.456 43.9814 107.754 43.9814C108.203 43.9814 108.553 44.1164 108.803 44.3864C109.053 44.6563 109.178 45.0238 109.178 45.4887V47.4399C109.178 47.4964 109.153 47.5247 109.102 47.5247H108.552C108.501 47.5247 108.475 47.4964 108.475 47.4399V45.6117C108.475 45.2789 108.4 45.0322 108.247 44.8718C108.096 44.7114 107.89 44.6316 107.63 44.6316C107.358 44.6316 107.142 44.715 106.98 44.881C106.818 45.0478 106.738 45.3036 106.738 45.6492V47.4399C106.738 47.4964 106.712 47.5247 106.662 47.5247H106.101C106.051 47.5247 106.026 47.4964 106.026 47.4399V45.6117C106.026 45.2789 105.951 45.0322 105.803 44.8718C105.653 44.7114 105.449 44.6316 105.19 44.6316C104.912 44.6316 104.691 44.715 104.53 44.881C104.368 45.0478 104.288 45.3036 104.288 45.6492V47.4399C104.288 47.4964 104.266 47.5247 104.221 47.5247H103.661C103.611 47.5247 103.585 47.4964 103.585 47.4399V44.132C103.585 44.0818 103.611 44.0563 103.661 44.0563H103.708C104.025 44.0563 104.211 44.2104 104.269 44.5185Z" fill="#272727"/>
<path d="M112.805 47.0348C112.666 47.2292 112.498 47.374 112.302 47.468C112.106 47.562 111.887 47.6094 111.647 47.6094C111.299 47.6094 111.003 47.5281 110.759 47.3641C110.515 47.2009 110.33 46.9811 110.204 46.7048C110.077 46.4285 110.014 46.1232 110.014 45.7904C110.014 45.4385 110.084 45.1261 110.223 44.8526C110.362 44.5792 110.557 44.3643 110.806 44.2075C111.057 44.0499 111.346 43.9714 111.675 43.9714C111.941 43.9714 112.174 44.0216 112.373 44.1227C112.573 44.223 112.73 44.3551 112.843 44.5184C112.875 44.3551 112.939 44.2371 113.033 44.165C113.129 44.093 113.249 44.0562 113.394 44.0562H113.442C113.486 44.0562 113.508 44.0845 113.508 44.141V47.4398C113.508 47.4963 113.486 47.5245 113.442 47.5245H112.881C112.831 47.5245 112.805 47.4963 112.805 47.4398V47.0348ZM111.751 46.95C111.91 46.95 112.07 46.9168 112.231 46.8511C112.392 46.7847 112.528 46.6666 112.639 46.497C112.75 46.3274 112.805 46.0921 112.805 45.7904C112.805 45.483 112.75 45.2456 112.639 45.0788C112.528 44.9127 112.394 44.7982 112.235 44.7346C112.077 44.6724 111.926 44.6406 111.78 44.6406C111.508 44.6406 111.267 44.7346 111.058 44.9233C110.85 45.112 110.745 45.401 110.745 45.7904C110.745 46.073 110.797 46.2992 110.902 46.4688C111.006 46.6391 111.136 46.7613 111.291 46.837C111.446 46.9119 111.6 46.95 111.751 46.95Z" fill="#272727"/>
<path d="M115.208 44.5185C115.303 44.3736 115.44 44.2485 115.621 44.1411C115.801 44.0344 116.019 43.9814 116.271 43.9814C116.55 43.9814 116.791 44.038 116.993 44.151C117.196 44.2641 117.357 44.421 117.477 44.6224C117.591 44.4584 117.748 44.3107 117.947 44.1793C118.147 44.0472 118.395 43.9814 118.693 43.9814C119.142 43.9814 119.492 44.1164 119.742 44.3864C119.992 44.6563 120.117 45.0238 120.117 45.4887V47.4399C120.117 47.4964 120.092 47.5247 120.042 47.5247H119.491C119.44 47.5247 119.415 47.4964 119.415 47.4399V45.6117C119.415 45.2789 119.338 45.0322 119.187 44.8718C119.035 44.7114 118.829 44.6316 118.569 44.6316C118.297 44.6316 118.08 44.715 117.919 44.881C117.758 45.0478 117.677 45.3036 117.677 45.6492V47.4399C117.677 47.4964 117.651 47.5247 117.601 47.5247H117.04C116.99 47.5247 116.965 47.4964 116.965 47.4399V45.6117C116.965 45.2789 116.891 45.0322 116.741 44.8718C116.593 44.7114 116.389 44.6316 116.129 44.6316C115.851 44.6316 115.63 44.715 115.469 44.881C115.308 45.0478 115.227 45.3036 115.227 45.6492V47.4399C115.227 47.4964 115.205 47.5247 115.16 47.5247H114.6C114.549 47.5247 114.524 47.4964 114.524 47.4399V44.132C114.524 44.0818 114.549 44.0563 114.6 44.0563H114.648C114.964 44.0563 115.151 44.2104 115.208 44.5185Z" fill="#272727"/>
<path d="M122.719 47.6094C122.181 47.6094 121.752 47.4447 121.433 47.1147C121.113 46.7847 120.953 46.3465 120.953 45.8003C120.953 45.2533 121.113 44.8117 121.433 44.476C121.752 44.1396 122.178 43.9714 122.71 43.9714C123.248 43.9714 123.679 44.1396 124.001 44.476C124.324 44.8117 124.485 45.2505 124.485 45.7904C124.485 46.3373 124.326 46.7769 124.006 47.1098C123.686 47.4433 123.257 47.6094 122.719 47.6094ZM122.71 46.9401C123.007 46.9401 123.255 46.8461 123.455 46.6575C123.654 46.4688 123.754 46.1833 123.754 45.8003C123.754 45.4293 123.654 45.1431 123.455 44.9424C123.255 44.741 123.007 44.6406 122.71 44.6406C122.406 44.6406 122.159 44.741 121.969 44.9424C121.779 45.1431 121.684 45.4293 121.684 45.8003C121.684 46.1706 121.779 46.4532 121.969 46.6483C122.159 46.8426 122.406 46.9401 122.71 46.9401Z" fill="#272727"/>
<path d="M127.287 44.8103C127.135 44.729 126.989 44.6689 126.85 44.6315C126.711 44.5933 126.559 44.5749 126.394 44.5749C126.229 44.5749 126.095 44.606 125.99 44.6689C125.886 44.7318 125.833 44.8258 125.833 44.9516C125.833 45.071 125.894 45.1685 126.014 45.2441C126.135 45.319 126.283 45.3883 126.46 45.4512C126.638 45.5141 126.817 45.5862 126.997 45.6681C127.178 45.7494 127.328 45.8547 127.448 45.984C127.568 46.1126 127.629 46.2872 127.629 46.507C127.629 46.8398 127.51 47.1098 127.272 47.3175C127.035 47.5246 126.711 47.6284 126.299 47.6284C126.039 47.6284 125.815 47.5825 125.625 47.4914C125.435 47.4009 125.289 47.2857 125.188 47.1479C125.087 47.0094 125.036 46.8709 125.036 46.7331C125.036 46.6264 125.071 46.5727 125.141 46.5727C125.166 46.5727 125.195 46.5882 125.226 46.62C125.346 46.7267 125.485 46.8207 125.644 46.9027C125.802 46.9847 125.998 47.0249 126.232 47.0249C126.46 47.0249 126.631 46.9847 126.746 46.9027C126.859 46.8207 126.917 46.7112 126.917 46.5727C126.917 46.4469 126.856 46.3465 126.736 46.2709C126.615 46.196 126.465 46.1282 126.285 46.0688C126.104 46.0088 125.924 45.9381 125.743 45.8568C125.563 45.7749 125.413 45.6682 125.292 45.536C125.172 45.4039 125.112 45.2286 125.112 45.0081C125.112 44.6753 125.239 44.4194 125.492 44.24C125.745 44.0612 126.049 43.9714 126.403 43.9714C126.714 43.9714 126.982 44.028 127.21 44.141C127.337 44.1919 127.419 44.2562 127.458 44.3347C127.496 44.4131 127.499 44.5184 127.467 44.6498L127.439 44.7728C127.432 44.8166 127.41 44.8385 127.372 44.8385C127.359 44.8385 127.345 44.8357 127.329 44.8293C127.313 44.823 127.3 44.8166 127.287 44.8103Z" fill="#272727"/>
<path d="M130.639 46.9366H132.606C132.864 46.9366 132.992 47.056 132.992 47.2942V47.4305C132.992 47.4934 132.961 47.5245 132.898 47.5245H129.952C129.907 47.5245 129.884 47.4991 129.884 47.4482C129.884 47.0956 129.942 46.7974 130.059 46.5529C130.177 46.3084 130.327 46.1027 130.511 45.9353C130.694 45.7671 130.887 45.6166 131.09 45.483C131.293 45.3494 131.487 45.2173 131.67 45.0865C131.853 44.9558 132.003 44.8109 132.121 44.6519C132.238 44.4929 132.297 44.2965 132.297 44.064C132.297 43.8138 132.218 43.6209 132.061 43.4845C131.903 43.3481 131.681 43.2796 131.395 43.2796C131.189 43.2796 130.991 43.3121 130.803 43.3778C130.614 43.4428 130.427 43.5326 130.244 43.6463C130.199 43.6746 130.162 43.6887 130.133 43.6887C130.104 43.6887 130.081 43.6661 130.064 43.6209L130.012 43.4499C129.972 43.3248 129.978 43.223 130.029 43.1432C130.081 43.064 130.178 42.9955 130.321 42.939C130.476 42.8761 130.645 42.8195 130.828 42.7679C131.012 42.7171 131.214 42.6917 131.438 42.6917C131.902 42.6917 132.271 42.8068 132.546 43.0365C132.821 43.2669 132.958 43.6068 132.958 44.0555C132.958 44.317 132.905 44.5452 132.799 44.7417C132.694 44.9374 132.556 45.1113 132.387 45.2618C132.218 45.4123 132.036 45.5515 131.842 45.6794C131.647 45.8066 131.462 45.9331 131.288 46.0582C131.113 46.1833 130.965 46.3154 130.846 46.4547C130.725 46.5939 130.657 46.755 130.639 46.9366Z" fill="#272727"/>
<path d="M135.715 46.4335H133.525C133.479 46.4335 133.457 46.4109 133.457 46.3656V46.0159C133.457 45.9593 133.461 45.9148 133.469 45.8837C133.478 45.8526 133.502 45.8088 133.542 45.7515L135.406 42.9475C135.435 42.9015 135.472 42.8634 135.518 42.8323C135.564 42.8012 135.624 42.7856 135.699 42.7856H135.956C136.076 42.7856 136.173 42.8168 136.248 42.8789C136.322 42.9418 136.359 43.0464 136.359 43.1948V45.8455H136.669C136.926 45.8455 137.055 45.9678 137.055 46.2123V46.3487C137.055 46.4052 137.024 46.4335 136.961 46.4335H136.359V47.4482C136.359 47.4991 136.34 47.5246 136.3 47.5246H135.784C135.738 47.5246 135.715 47.4991 135.715 47.4482V46.4335ZM134.135 45.8455H135.715V43.4676L134.135 45.8455Z" fill="#272727"/>
<path d="M137.922 46.6809C138.054 46.6809 138.165 46.7261 138.253 46.8173C138.342 46.9085 138.386 47.0187 138.386 47.1494C138.386 47.2745 138.342 47.3841 138.253 47.478C138.165 47.5713 138.054 47.6187 137.922 47.6187C137.797 47.6187 137.688 47.5713 137.596 47.478C137.505 47.3841 137.459 47.2745 137.459 47.1494C137.459 47.0187 137.505 46.9085 137.596 46.8173C137.688 46.7261 137.797 46.6809 137.922 46.6809Z" fill="#272727"/>
<path d="M141.126 43.3821H138.799C138.753 43.3821 138.73 43.3566 138.73 43.3051V42.862C138.73 42.8111 138.753 42.7856 138.799 42.7856H141.41C141.673 42.7856 141.805 42.9072 141.805 43.1517V43.2457C141.805 43.3192 141.798 43.3835 141.783 43.4372C141.769 43.4916 141.745 43.558 141.71 43.6379L139.958 47.4221C139.93 47.4907 139.884 47.5246 139.821 47.5246H139.297C139.274 47.5246 139.258 47.5161 139.249 47.4991C139.241 47.4822 139.239 47.4652 139.245 47.4482L141.126 43.3821Z" fill="#272727"/>
</g>
<defs>
<clipPath id="clip0_543_3820">
<rect width="142" height="48" fill="white"/>
</clipPath>
</defs>
</svg>
