<svg xmlns="http://www.w3.org/2000/svg" width="142" height="48" fill="none"><g clip-path="url(#a)"><path fill="#ffb477" fill-rule="evenodd" d="M12.374 40.761c.984 2.442.763 4.784-1.41 5.99-3.021 1.678-6.05-1.337-7.102-3.203-1.53-2.715-2.182-7.612-1.542-12.749 1.039-8.35 7.034-16.18 15.316-17.976 9.776-2.12 19.37 2.789 20.826 9.822.656 3.208-.666 7.721-2.938 10.094-2.47 2.58-7.021 4.476-11.204 4.731-1.652.1-4.933-.783-5.502-4.137-.485-2.858 2.096-5.326 5.52-5.16 3.61.176 7.574-1.059 6.193-4.642-1.625-4.218-9.138-4.55-13.708-2.333-3.823 1.855-6.063 5.548-6.321 9.42-.26 3.885.214 6.03 1.872 10.143M18.963 7.97c-1.81.468-3.38-.837-3.99-2.755-.631-1.98.657-3.995 2.127-4.531 2.662-.971 6.155-.86 8.536-.003 1.747.629 2.66 2.326 2.274 4.331s-1.809 3.12-3.62 2.73c-2.615-.562-5.328.229-5.328.229M8.431 11.786c-2.835 1.51-5.522 4.784-7.293 3.434S-.948 7.594 4.708 5.027c2.028-.92 4.717-.181 5.775 1.77s-.089 3.944-2.052 4.99m26.224-1.143c2.737 1.679 5.319 5.15 7.17 3.91s2.636-7.563-2.853-10.47c-1.966-1.041-4.786-.389-5.961 1.495s-.252 3.902 1.643 5.065" clip-rule="evenodd"/><path fill="#272727" fill-rule="evenodd" d="M56.474 35.779V47.01c0 .371-.127.614-.298.761a.8.8 0 0 1-.544.192h-3.436c-.303 0-.522-.108-.675-.275-.136-.153-.224-.37-.224-.678V16.558c0-.294.097-.505.241-.652.15-.147.36-.237.658-.237h.29c1.191 0 2.09.358 2.708 1.036.394.435.697.915.907 1.452.636-.748 1.438-1.4 2.41-1.944q1.9-1.067 4.528-1.068c3.371 0 5.983 1.113 7.85 3.306 1.85 2.175 2.784 4.938 2.784 8.29 0 2.11-.404 4.036-1.206 5.788-.81 1.772-1.99 3.18-3.528 4.228-1.547 1.05-3.414 1.58-5.61 1.58q-2.36 0-4.366-.844a7.3 7.3 0 0 1-2.49-1.714m6.04-2.348q1.307 0 2.673-.652 1.348-.643 2.236-2.092c.609-.985.902-2.302.902-3.946 0-2.245-.57-3.921-1.757-5.008q-1.776-1.623-4.168-1.625-1.268.002-2.674.55c-.912.352-1.679 1.01-2.306 1.95-.644.967-.946 2.348-.946 4.133 0 1.752.315 3.121.977 4.106q.967 1.441 2.367 2.009 1.434.575 2.696.575m31.754 2.156a8.2 8.2 0 0 1-2.472 1.842c-1.262.601-2.665.908-4.208.908-2.235 0-4.133-.53-5.693-1.58-1.565-1.042-2.752-2.456-3.563-4.228-.802-1.752-1.206-3.678-1.206-5.788 0-2.232.447-4.215 1.333-5.949.89-1.752 2.139-3.127 3.738-4.132q2.4-1.515 5.563-1.515 2.563.002 4.483.972 1.5.758 2.499 1.88c.25-.69.622-1.215 1.095-1.58.653-.492 1.477-.748 2.477-.748h.293c.228 0 .403.07.54.186.175.147.297.39.297.76v20.251c0 .37-.122.614-.298.761a.77.77 0 0 1-.539.186h-3.44c-.303 0-.522-.103-.67-.27-.137-.153-.229-.37-.229-.677zm-6.04-2.156c.916 0 1.846-.192 2.78-.575q1.37-.558 2.309-2.009c.644-.985.951-2.354.951-4.106 0-1.785-.302-3.166-.947-4.132-.626-.947-1.385-1.6-2.279-1.95q-1.375-.55-2.638-.551-2.348.002-4.142 1.625c-1.205 1.087-1.784 2.763-1.784 5.008 0 1.644.294 2.961.898 3.946.597.966 1.329 1.663 2.214 2.092.89.435 1.766.652 2.638.652m18.869-13.093h-3.533c-.293 0-.508-.096-.657-.236-.145-.148-.241-.359-.241-.653v-2.89c0-.295.096-.506.241-.653.149-.147.364-.237.657-.237h3.533V9.574c0-.371.123-.614.298-.762a.8.8 0 0 1 .539-.185h.294c1.262 0 2.249.39 2.967 1.145.702.742 1.078 1.848 1.078 3.332v2.565h4.059c.285 0 .487.096.631.256.123.147.206.352.206.633v2.891c0 .282-.083.486-.206.627-.144.16-.346.262-.631.262h-4.059v16.528c0 .307-.092.524-.227.678-.149.166-.369.269-.671.269h-3.441a.78.78 0 0 1-.539-.186c-.175-.147-.298-.39-.298-.761zm29.677 15.249a8.2 8.2 0 0 1-2.472 1.842c-1.262.601-2.664.908-4.207.908-2.236 0-4.133-.53-5.694-1.58-1.564-1.042-2.752-2.456-3.563-4.228-.802-1.752-1.205-3.678-1.205-5.788 0-2.232.447-4.215 1.332-5.949q1.337-2.626 3.739-4.132 2.397-1.515 5.566-1.515 2.559.002 4.479.972 1.5.758 2.499 1.88c.25-.69.622-1.215 1.095-1.58.654-.492 1.478-.748 2.477-.748h.293c.228 0 .404.07.54.186.175.147.298.39.298.76v20.251c0 .37-.123.614-.298.761a.78.78 0 0 1-.54.186h-3.44c-.303 0-.522-.103-.671-.27-.135-.153-.223-.37-.223-.677zm-6.039-2.156c.916 0 1.845-.192 2.778-.575.917-.371 1.683-1.043 2.31-2.009.645-.985.956-2.354.956-4.106 0-1.785-.307-3.166-.951-4.132-.627-.947-1.385-1.6-2.279-1.95q-1.375-.55-2.639-.551-2.347.002-4.142 1.625c-1.205 1.087-1.784 2.763-1.784 5.008 0 1.644.294 2.961.899 3.946.596.966 1.328 1.663 2.213 2.092q1.333.652 2.639.652" clip-rule="evenodd"/><path fill="#272727" d="M62.582 44.867a2 2 0 0 0-.394-.17 1.6 1.6 0 0 0-.451-.056q-.447 0-.737.301-.29.302-.289.867 0 .547.285.863t.816.316q.314 0 .527-.114.214-.113.338-.235a.4.4 0 0 1 .052-.043.1.1 0 0 1 .062-.023q.095 0 .095.141 0 .19-.138.4-.138.213-.409.359t-.679.145q-.75.001-1.215-.484-.465-.486-.465-1.334 0-.556.218-.966t.608-.637q.39-.225.902-.226a2.5 2.5 0 0 1 .432.034q.185.032.366.108.37.15.266.519l-.048.188q-.019.075-.067.075a.16.16 0 0 1-.075-.028m2.506 2.752q-.778 0-1.167-.457-.39-.457-.39-1.258V44.14q0-.084.076-.085h.048q.579 0 .579.651v1.272q0 .5.232.745.233.245.622.245.39 0 .623-.222.232-.22.232-.74V44.14q0-.084.076-.085h.047q.59 0 .59.651v1.244q0 .773-.394 1.22-.395.448-1.174.448m2.46-4.494a.422.422 0 0 1 .722-.311.42.42 0 0 1 .123.31q0 .18-.123.302a.4.4 0 0 1-.295.123.417.417 0 0 1-.427-.424m.143 4.4q-.077 0-.077-.084v-3.3q0-.084.077-.085h.047q.275 0 .432.16t.156.491v2.733q0 .084-.075.085zm4.282-3.015v-2.14q0-.084.076-.084h.048q.275 0 .431.16.158.16.158.49v4.505q0 .084-.077.085h-.56q-.075 0-.076-.085v-.405q-.2.292-.498.433-.3.141-.66.141-.514.001-.879-.245a1.6 1.6 0 0 1-.56-.66 2.1 2.1 0 0 1-.195-.914q0-.528.209-.937.21-.411.584-.645.375-.236.888-.236.361 0 .655.14.295.143.456.397M70.92 46.95q.237 0 .48-.099a.9.9 0 0 0 .408-.354q.166-.255.166-.707 0-.46-.166-.711a.9.9 0 0 0-.404-.344 1.3 1.3 0 0 0-.455-.094q-.409 0-.722.282-.314.284-.314.867 0 .425.157.679t.39.368q.232.113.46.113m5.402.085q-.209.292-.502.433a1.5 1.5 0 0 1-.656.141q-.522.001-.888-.245a1.55 1.55 0 0 1-.555-.66 2.2 2.2 0 0 1-.19-.914q0-.528.208-.937.21-.411.585-.645.376-.237.868-.237.399 0 .699.152.298.15.47.395.046-.244.19-.353a.58.58 0 0 1 .36-.109h.048q.065 0 .066.085v3.299q0 .084-.066.085h-.56q-.077 0-.077-.085zm-1.054-.085q.238 0 .48-.099a.9.9 0 0 0 .408-.354q.165-.254.166-.707 0-.46-.166-.711a.9.9 0 0 0-.403-.344 1.3 1.3 0 0 0-.456-.094q-.408 0-.722.282-.313.284-.313.867 0 .425.156.679.158.254.39.368t.46.113m3.456-2.431a1.24 1.24 0 0 1 1.064-.538q.417 0 .722.17.304.17.484.471.17-.245.47-.443t.746-.198q.674 0 1.049.405t.375 1.103v1.95q0 .086-.076.086h-.551q-.076 0-.076-.085v-1.828q0-.5-.228-.74t-.617-.24q-.409 0-.65.249-.243.25-.243.768v1.79q0 .086-.075.086h-.56q-.077 0-.077-.085v-1.828q0-.5-.222-.74-.225-.24-.614-.24-.417 0-.66.249-.241.25-.242.768v1.79q0 .086-.066.086h-.56q-.076 0-.076-.085v-3.308q0-.075.076-.076h.047q.476 0 .56.463m7.512 3.091q-.807 0-1.287-.495t-.48-1.315.48-1.324 1.277-.505q.807 0 1.291.505.485.505.485 1.314 0 .82-.48 1.32t-1.286.5m-.01-.67q.446 0 .746-.282.3-.284.299-.858 0-.556-.3-.858a1 1 0 0 0-.745-.301q-.455 0-.74.301-.285.302-.286.858 0 .555.286.848.285.292.74.292m4.577-2.13a2 2 0 0 0-.436-.178 1.7 1.7 0 0 0-.456-.057.8.8 0 0 0-.404.094.31.31 0 0 0-.156.283q0 .179.18.292t.447.207a7 7 0 0 1 .536.217q.27.122.451.316.18.193.18.523 0 .5-.356.81-.356.312-.973.311-.39 0-.674-.137a1.1 1.1 0 0 1-.437-.343.7.7 0 0 1-.152-.415q0-.16.104-.16.038 0 .086.047.18.16.418.283.237.123.589.122.342 0 .512-.122a.39.39 0 0 0 .171-.33q0-.19-.18-.302a2 2 0 0 0-.451-.202 6 6 0 0 1-.541-.212 1.4 1.4 0 0 1-.451-.321q-.18-.197-.181-.528 0-.5.38-.768a1.54 1.54 0 0 1 .911-.269q.465 0 .808.17.19.075.246.194.057.117.01.315l-.028.123q-.011.066-.067.066a.1.1 0 0 1-.043-.01zm3.334 1.235q.057.49.36.721.305.23.798.23.399 0 .636-.103.238-.103.437-.245a.4.4 0 0 0 .071-.047q.033-.029.062-.028.047 0 .072.042a.2.2 0 0 1 .023.09.7.7 0 0 1-.157.41q-.157.212-.465.353t-.765.141q-.465 0-.869-.193a1.56 1.56 0 0 1-.654-.594q-.252-.399-.252-1.032 0-.528.209-.937.208-.411.584-.645.375-.237.869-.237.56 0 .902.232.342.23.498.593.157.363.157.768 0 .123-.005.207-.004.085-.014.16-.01.114-.142.114zm.019-.537h1.794a1.2 1.2 0 0 0-.062-.424.7.7 0 0 0-.26-.35q-.19-.14-.542-.14-.4 0-.641.24t-.29.674m7.712 1.527q-.21.292-.504.433a1.5 1.5 0 0 1-.655.141q-.523.001-.888-.245a1.56 1.56 0 0 1-.556-.66 2.2 2.2 0 0 1-.19-.914q0-.528.21-.937.208-.411.584-.645.374-.237.868-.237.4 0 .698.152.299.15.47.395.048-.244.19-.353a.58.58 0 0 1 .361-.109h.047q.067 0 .067.085v3.299q0 .084-.067.085h-.56q-.075 0-.075-.085zm-1.055-.085q.237 0 .48-.099a.9.9 0 0 0 .408-.354q.167-.254.167-.707 0-.46-.167-.711a.9.9 0 0 0-.403-.344 1.3 1.3 0 0 0-.456-.094q-.409 0-.722.282-.314.284-.314.867 0 .425.157.679.158.254.39.368t.46.113m3.457-2.431a1.25 1.25 0 0 1 1.064-.537q.418 0 .721.169.304.17.484.471.172-.245.47-.443.3-.198.746-.198.674 0 1.049.405t.375 1.103v1.95q0 .086-.076.086h-.55q-.077 0-.077-.085v-1.828q0-.5-.228-.74-.227-.24-.617-.24-.407 0-.65.249-.243.25-.242.768v1.79q0 .086-.076.086h-.561q-.075 0-.075-.085v-1.828q0-.5-.223-.74-.225-.24-.613-.24-.418 0-.66.249-.243.25-.242.768v1.79q0 .086-.067.086h-.56q-.076 0-.076-.085v-3.308q0-.075.076-.076h.047q.475 0 .561.463m8.536 2.516q-.209.292-.503.433a1.5 1.5 0 0 1-.655.141q-.522.001-.888-.245a1.55 1.55 0 0 1-.555-.66 2.2 2.2 0 0 1-.19-.914q0-.528.209-.937.209-.411.583-.645.376-.237.869-.237.4 0 .698.152.3.15.47.395.048-.244.19-.353a.6.6 0 0 1 .361-.109h.048q.066 0 .066.085v3.299q0 .084-.066.085h-.561q-.076 0-.076-.085zm-1.054-.085q.239 0 .48-.099a.9.9 0 0 0 .408-.354q.166-.254.166-.707 0-.46-.166-.711a.9.9 0 0 0-.404-.344 1.2 1.2 0 0 0-.455-.094q-.408 0-.722.282-.312.284-.313.867 0 .425.157.679a.94.94 0 0 0 .389.368q.233.113.46.113m3.457-2.431a1.2 1.2 0 0 1 .413-.378q.271-.16.65-.16.419 0 .722.17.304.17.484.471.171-.245.47-.443.3-.198.746-.198.674 0 1.049.405t.375 1.103v1.95q0 .086-.075.086h-.551q-.076 0-.076-.085v-1.828q0-.5-.228-.74t-.618-.24q-.408 0-.65.249-.242.25-.242.768v1.79q0 .086-.076.086h-.561q-.075 0-.075-.085v-1.828q0-.5-.224-.74-.222-.24-.612-.24-.418 0-.66.249-.242.25-.242.768v1.79q0 .086-.067.086h-.56q-.076 0-.076-.085v-3.308q0-.075.076-.076h.048q.474 0 .56.463m7.511 3.091q-.807 0-1.286-.495-.48-.495-.48-1.315t.48-1.324q.479-.505 1.277-.505.808 0 1.291.505.484.505.484 1.314 0 .82-.479 1.32-.48.5-1.287.5m-.009-.67q.445 0 .745-.282.299-.284.299-.858 0-.556-.299-.858a1 1 0 0 0-.745-.301q-.456 0-.741.301-.285.302-.285.858 0 .555.285.848t.741.292m4.577-2.13a2 2 0 0 0-.437-.178 1.7 1.7 0 0 0-.456-.057.8.8 0 0 0-.404.094.31.31 0 0 0-.157.283q0 .179.181.292t.446.207q.267.094.537.217.271.122.451.316.18.193.181.523 0 .5-.357.81-.355.312-.973.311-.39 0-.674-.137a1.1 1.1 0 0 1-.437-.343.7.7 0 0 1-.152-.415q0-.16.105-.16.038 0 .085.047.18.16.418.283.237.123.588.122.342 0 .514-.122a.39.39 0 0 0 .171-.33q0-.19-.181-.302a2 2 0 0 0-.451-.202 6 6 0 0 1-.542-.212 1.4 1.4 0 0 1-.451-.321q-.18-.197-.18-.528 0-.5.38-.768.38-.269.911-.269.466 0 .807.17.19.075.248.194.057.117.009.315l-.028.123q-.01.066-.067.066a.1.1 0 0 1-.043-.01q-.023-.009-.042-.019m3.352 2.127h1.967q.387 0 .386.357v.137q0 .093-.094.094h-2.946q-.068 0-.068-.077 0-.528.175-.895.177-.367.452-.618.275-.252.579-.452.305-.201.58-.396.274-.197.451-.435a.97.97 0 0 0 .176-.588q0-.375-.236-.58-.237-.204-.666-.204-.31 0-.592.098a2.8 2.8 0 0 0-.559.268.23.23 0 0 1-.111.043q-.044 0-.069-.068l-.052-.171q-.06-.187.017-.307.078-.12.292-.204.233-.095.507-.171.275-.075.61-.076.696 0 1.108.344.412.345.412 1.02 0 .392-.159.686a1.9 1.9 0 0 1-.412.52q-.254.226-.545.417-.293.191-.554.38a2.5 2.5 0 0 0-.442.396.84.84 0 0 0-.207.482m5.076-.503h-2.19q-.069 0-.068-.068v-.35q0-.085.012-.132a.5.5 0 0 1 .073-.133l1.864-2.803a.32.32 0 0 1 .293-.162h.257q.18 0 .292.093t.111.316v2.65h.31q.386 0 .386.367v.137q0 .084-.094.085h-.602v1.014q0 .077-.059.077h-.516q-.069 0-.069-.077zm-1.58-.588h1.58v-2.378zm3.787.834q.198 0 .331.137a.46.46 0 0 1 .133.332.46.46 0 0 1-.133.329.44.44 0 0 1-.331.14.44.44 0 0 1-.326-.14.45.45 0 0 1-.137-.329q0-.195.137-.332a.45.45 0 0 1 .326-.136m3.204-3.299h-2.327q-.069 0-.069-.077v-.443q0-.075.069-.076h2.611q.395 0 .395.366v.094a.7.7 0 0 1-.022.191q-.02.082-.073.2l-1.752 3.785q-.042.103-.137.103h-.524q-.035 0-.048-.026a.07.07 0 0 1-.004-.05z"/></g><defs><clipPath id="a"><path fill="#fff" d="M0 0h142v48H0z"/></clipPath></defs></svg>