<svg xmlns="http://www.w3.org/2000/svg" width="142" height="48" fill="none" viewBox="0 0 142 48"><g fill="#fefeff" clip-path="url(#clip0_337_3469)"><path fill-rule="evenodd" d="M12.375 40.76c.984 2.443.763 4.785-1.41 5.991-3.021 1.677-6.05-1.338-7.102-3.204C2.333 40.832 1.68 35.936 2.32 30.8c1.04-8.35 7.035-16.181 15.316-17.977 9.777-2.12 19.37 2.79 20.826 9.822.656 3.209-.665 7.722-2.937 10.095-2.47 2.579-7.022 4.475-11.205 4.73-1.652.1-4.932-.782-5.501-4.137-.485-2.858 2.096-5.325 5.52-5.16 3.61.176 7.573-1.058 6.193-4.642-1.625-4.218-9.138-4.55-13.708-2.332-3.823 1.855-6.063 5.548-6.322 9.42-.26 3.884.215 6.03 1.872 10.143" clip-rule="evenodd"/><path fill-rule="evenodd" d="M18.962 7.97c-1.81.468-3.38-.838-3.99-2.755-.631-1.981.658-3.996 2.127-4.532 2.662-.97 6.155-.859 8.536-.002 1.747.628 2.66 2.325 2.274 4.33-.386 2.007-1.809 3.121-3.62 2.731-2.615-.562-5.327.228-5.327.228" clip-rule="evenodd"/><path fill-rule="evenodd" d="M8.431 11.786c-2.835 1.51-5.521 4.784-7.293 3.435C-.632 13.87-.948 7.594 4.71 5.028c2.028-.92 4.717-.182 5.774 1.77s-.088 3.943-2.052 4.988" clip-rule="evenodd"/><path fill-rule="evenodd" d="M34.655 10.644c2.737 1.679 5.319 5.15 7.17 3.91s2.636-7.564-2.853-10.47c-1.966-1.042-4.786-.389-5.961 1.495s-.252 3.902 1.643 5.065" clip-rule="evenodd"/><path fill-rule="evenodd" d="M56.475 35.779V47.01c0 .371-.127.614-.298.761a.8.8 0 0 1-.543.192h-3.437c-.302 0-.521-.108-.675-.275-.135-.153-.223-.37-.223-.678V16.558c0-.294.096-.505.24-.652.15-.147.36-.237.658-.237h.29c1.192 0 2.09.358 2.708 1.036.395.435.697.915.908 1.452.635-.748 1.437-1.4 2.41-1.944q1.9-1.067 4.528-1.068c3.37 0 5.983 1.113 7.85 3.306 1.85 2.175 2.783 4.938 2.783 8.29 0 2.11-.403 4.036-1.205 5.788q-1.219 2.657-3.529 4.228c-1.547 1.05-3.414 1.58-5.61 1.58q-2.36 0-4.365-.844a7.3 7.3 0 0 1-2.49-1.714m6.04-2.348q1.307 0 2.674-.652 1.347-.643 2.235-2.092c.61-.985.903-2.302.903-3.946 0-2.245-.57-3.921-1.758-5.008q-1.775-1.623-4.168-1.625-1.268.002-2.674.55c-.911.352-1.678 1.01-2.305 1.95-.644.967-.947 2.348-.947 4.133 0 1.752.316 3.121.978 4.106q.966 1.441 2.366 2.009 1.434.575 2.696.575m31.755 2.156a8.2 8.2 0 0 1-2.472 1.842c-1.263.601-2.665.908-4.208.908-2.235 0-4.133-.53-5.693-1.58-1.565-1.042-2.753-2.456-3.564-4.228-.802-1.752-1.205-3.678-1.205-5.788 0-2.232.447-4.215 1.332-5.949.89-1.752 2.14-3.127 3.739-4.132q2.4-1.515 5.562-1.515 2.564.002 4.484.972 1.499.758 2.498 1.88c.25-.69.622-1.215 1.096-1.58.653-.492 1.477-.748 2.476-.748h.294a.8.8 0 0 1 .539.186c.175.147.298.39.298.76v20.251c0 .37-.123.614-.298.761a.77.77 0 0 1-.54.186h-3.44c-.302 0-.521-.103-.67-.27-.136-.153-.228-.37-.228-.677zm-6.04-2.156q1.376 0 2.779-.575c.916-.371 1.683-1.043 2.31-2.009.644-.985.95-2.354.95-4.106 0-1.785-.302-3.166-.946-4.132-.627-.947-1.385-1.6-2.28-1.95q-1.374-.55-2.638-.551-2.346.002-4.142 1.625c-1.205 1.087-1.784 2.763-1.784 5.008 0 1.644.294 2.961.899 3.946.596.966 1.328 1.663 2.213 2.092q1.333.652 2.639.652m18.869-13.093h-3.533c-.294 0-.508-.096-.657-.236-.145-.148-.242-.359-.242-.653v-2.89c0-.295.097-.506.242-.653.149-.147.363-.237.657-.237h3.533V9.574c0-.371.122-.614.298-.762a.8.8 0 0 1 .539-.185h.294c1.262 0 2.248.39 2.967 1.145.701.742 1.078 1.848 1.078 3.332v2.565h4.059c.285 0 .486.096.631.256.122.147.206.352.206.633v2.891c0 .282-.084.486-.206.627a.8.8 0 0 1-.631.262h-4.059v16.528c0 .307-.092.524-.228.678-.149.166-.368.269-.671.269h-3.44a.78.78 0 0 1-.539-.186c-.176-.147-.298-.39-.298-.761zm29.677 15.249a8.2 8.2 0 0 1-2.472 1.842c-1.262.601-2.665.908-4.208.908-2.235 0-4.133-.53-5.693-1.58-1.565-1.042-2.753-2.456-3.564-4.228-.802-1.752-1.205-3.678-1.205-5.788 0-2.232.447-4.215 1.332-5.949q1.337-2.626 3.739-4.132 2.399-1.515 5.567-1.515 2.558.002 4.479.972 1.499.758 2.498 1.88c.25-.69.623-1.215 1.096-1.58.653-.492 1.477-.748 2.476-.748h.294a.8.8 0 0 1 .539.186c.175.147.298.39.298.76v20.251c0 .37-.123.614-.298.761a.77.77 0 0 1-.539.186h-3.441c-.302 0-.521-.103-.67-.27-.136-.153-.224-.37-.224-.677zm-6.04-2.156q1.376 0 2.779-.575c.916-.371 1.683-1.043 2.31-2.009.644-.985.955-2.354.955-4.106 0-1.785-.307-3.166-.951-4.132-.627-.947-1.385-1.6-2.279-1.95q-1.375-.55-2.638-.551-2.348.002-4.142 1.625c-1.206 1.087-1.784 2.763-1.784 5.008 0 1.644.293 2.961.898 3.946.596.966 1.328 1.663 2.213 2.092.89.435 1.767.652 2.639.652" clip-rule="evenodd"/><path d="M62.582 44.867a2 2 0 0 0-.394-.17 1.6 1.6 0 0 0-.45-.056q-.447 0-.737.302-.29.3-.29.867 0 .546.285.862.286.316.817.316.314 0 .527-.113.214-.114.337-.236a.4.4 0 0 1 .053-.043.1.1 0 0 1 .061-.023q.096 0 .095.141 0 .19-.138.4-.137.213-.408.36-.27.145-.68.145-.748 0-1.215-.485-.465-.485-.465-1.334 0-.556.219-.965.219-.41.607-.637.39-.225.903-.226.246 0 .432.033.185.033.365.108.37.15.266.519l-.048.188q-.018.075-.066.075a.16.16 0 0 1-.076-.028"/><path d="M65.088 47.619q-.779 0-1.168-.456-.39-.458-.389-1.26v-1.761q0-.085.076-.085h.048q.579 0 .579.65v1.273q0 .498.232.744.233.245.622.245.39 0 .622-.221.234-.222.233-.74V44.14q0-.084.076-.084h.047q.59 0 .589.65v1.244q.001.773-.394 1.22-.394.448-1.173.448"/><path d="M67.549 43.124a.422.422 0 0 1 .722-.311.42.42 0 0 1 .123.31q0 .18-.123.302a.4.4 0 0 1-.294.123.417.417 0 0 1-.428-.424m.143 4.4q-.076 0-.077-.084v-3.3q0-.084.077-.085h.047q.276 0 .432.16t.157.491v2.733q0 .084-.076.085z"/><path d="M71.974 44.51v-2.14q0-.085.076-.085h.047q.275 0 .432.16t.157.49v4.505q0 .085-.076.085h-.56q-.076 0-.076-.085v-.405q-.2.293-.499.434-.3.14-.66.14-.512.001-.878-.244a1.6 1.6 0 0 1-.56-.66 2.1 2.1 0 0 1-.195-.914q0-.527.209-.938.208-.41.584-.645.375-.237.888-.236.36 0 .654.141.295.142.457.396m-1.055 2.44q.238 0 .48-.098a.9.9 0 0 0 .408-.354q.166-.255.167-.707 0-.461-.167-.712a.9.9 0 0 0-.403-.344 1.3 1.3 0 0 0-.456-.094q-.408 0-.722.283-.313.283-.313.867 0 .425.157.678.156.255.39.368.231.113.46.114"/><path d="M76.323 47.035a1.3 1.3 0 0 1-.503.433 1.5 1.5 0 0 1-.655.142q-.523 0-.888-.246a1.56 1.56 0 0 1-.556-.659 2.2 2.2 0 0 1-.19-.914q0-.528.21-.938.207-.41.584-.645.376-.236.868-.236.4 0 .698.15.3.151.47.397.047-.246.19-.354a.58.58 0 0 1 .36-.108h.048q.066 0 .067.084v3.299q0 .084-.067.085h-.56q-.075 0-.076-.085zm-1.054-.085q.237 0 .48-.099a.9.9 0 0 0 .408-.354q.166-.255.166-.706 0-.462-.166-.712a.9.9 0 0 0-.403-.344 1.3 1.3 0 0 0-.456-.094q-.409 0-.722.282-.314.284-.314.868 0 .423.157.678.158.255.39.368t.46.113"/><path d="M78.725 44.52a1.24 1.24 0 0 1 1.064-.538q.417 0 .721.17t.485.471a1.7 1.7 0 0 1 .47-.443q.299-.198.745-.198.674 0 1.05.405.374.405.374 1.103v1.95q0 .086-.076.086h-.55q-.076 0-.076-.085v-1.828q0-.5-.228-.74t-.618-.24q-.408 0-.65.249-.243.25-.242.768v1.79q0 .086-.076.086h-.56q-.076 0-.077-.085v-1.828q0-.5-.222-.74-.225-.24-.613-.24-.418 0-.66.249-.243.25-.243.768v1.79q0 .086-.065.086h-.561q-.076 0-.076-.085v-3.308q0-.075.076-.076h.047q.476 0 .56.462"/><path d="M86.237 47.61q-.807 0-1.286-.495-.48-.495-.48-1.315t.48-1.324 1.277-.504q.807 0 1.29.504.486.504.485 1.315 0 .82-.479 1.319-.48.5-1.287.5m-.01-.67q.447 0 .746-.282.3-.283.3-.858 0-.556-.3-.857a1 1 0 0 0-.745-.302q-.456 0-.74.302-.285.3-.286.858 0 .555.285.847t.74.292"/><path d="M90.803 44.81a2 2 0 0 0-.437-.178 1.7 1.7 0 0 0-.455-.057.8.8 0 0 0-.404.094.31.31 0 0 0-.157.283q0 .18.18.292.181.113.447.207.265.094.537.217.27.123.451.316.18.193.18.523 0 .5-.356.81-.356.312-.973.312-.39 0-.674-.137a1.1 1.1 0 0 1-.437-.344.7.7 0 0 1-.152-.415q0-.16.104-.16.038 0 .086.047.18.16.418.283.237.123.588.122.343 0 .513-.122a.39.39 0 0 0 .17-.33q0-.188-.18-.302a2 2 0 0 0-.45-.202 6 6 0 0 1-.542-.212 1.4 1.4 0 0 1-.45-.32q-.182-.198-.182-.529.001-.499.38-.768a1.54 1.54 0 0 1 .912-.268q.466 0 .807.17.191.075.247.193.057.118.01.315l-.029.123q-.009.066-.066.066a.1.1 0 0 1-.043-.01z"/><path d="M94.137 46.045q.057.49.36.721.305.23.798.23.399 0 .636-.103.238-.103.437-.245a.4.4 0 0 0 .071-.047q.033-.028.062-.028.047 0 .072.042a.2.2 0 0 1 .023.09.7.7 0 0 1-.157.41q-.157.212-.465.353-.308.142-.765.142-.465 0-.869-.193a1.56 1.56 0 0 1-.654-.595q-.252-.4-.252-1.031 0-.528.209-.938.208-.41.584-.645.375-.236.869-.236.56 0 .902.23.342.233.498.594.157.363.157.769 0 .122-.005.207-.004.085-.014.16-.01.113-.142.113zm.019-.537h1.794a1.2 1.2 0 0 0-.062-.424.7.7 0 0 0-.26-.35q-.19-.14-.542-.14-.4 0-.641.24t-.29.674"/><path d="M101.867 47.035q-.21.292-.504.433a1.5 1.5 0 0 1-.655.142q-.523 0-.888-.246a1.56 1.56 0 0 1-.556-.659 2.2 2.2 0 0 1-.19-.914q0-.528.21-.938.208-.41.584-.645.374-.236.868-.236.4 0 .698.15.299.151.47.397.048-.246.19-.354a.58.58 0 0 1 .361-.108h.047q.067 0 .067.084v3.299q0 .084-.067.085h-.56q-.075 0-.075-.085zm-1.055-.085q.237 0 .48-.099a.9.9 0 0 0 .408-.354q.167-.255.167-.706 0-.462-.167-.712a.9.9 0 0 0-.403-.344 1.3 1.3 0 0 0-.456-.094q-.409 0-.722.282-.314.284-.314.868 0 .423.157.678.158.255.39.368t.46.113"/><path d="M104.27 44.52a1.24 1.24 0 0 1 1.064-.538q.418 0 .721.17.304.17.484.471.172-.245.471-.443t.745-.198q.675 0 1.049.405.376.405.376 1.103v1.95q0 .086-.077.086h-.55q-.077 0-.077-.085v-1.828q0-.5-.227-.74-.228-.24-.617-.24-.409 0-.651.249-.242.25-.242.768v1.79q0 .086-.076.086h-.56q-.076 0-.076-.085v-1.828q0-.5-.223-.74-.224-.24-.613-.24-.417 0-.66.249-.243.25-.242.768v1.79q0 .086-.066.086h-.561q-.076 0-.076-.085v-3.308q0-.075.076-.076h.047q.475 0 .561.462"/><path d="M112.805 47.035q-.209.292-.503.433a1.5 1.5 0 0 1-.655.142q-.522 0-.888-.246a1.55 1.55 0 0 1-.555-.659 2.15 2.15 0 0 1-.19-.914q0-.528.209-.938a1.6 1.6 0 0 1 .583-.645q.376-.236.869-.236.4 0 .698.15.3.151.47.397.048-.246.19-.354a.6.6 0 0 1 .361-.108h.048q.066 0 .066.084v3.299q0 .084-.066.085h-.561q-.076 0-.076-.085zm-1.054-.085q.238 0 .48-.099a.9.9 0 0 0 .408-.354q.166-.255.166-.706 0-.462-.166-.712a.9.9 0 0 0-.404-.344 1.2 1.2 0 0 0-.455-.094q-.408 0-.722.282-.313.284-.313.868 0 .423.157.678.156.255.389.368.232.113.46.113"/><path d="M115.209 44.52a1.2 1.2 0 0 1 .413-.378q.271-.16.65-.16.419 0 .722.17.304.17.484.471.171-.245.47-.443.3-.198.746-.198.674 0 1.049.405t.375 1.103v1.95q0 .086-.075.086h-.551q-.076 0-.076-.085v-1.828q0-.5-.228-.74t-.618-.24q-.408 0-.65.249-.242.25-.242.768v1.79q0 .086-.076.086h-.561q-.075 0-.075-.085v-1.828q0-.5-.224-.74-.222-.24-.612-.24-.418 0-.66.249-.242.25-.242.768v1.79q0 .086-.067.086h-.56q-.076 0-.076-.085v-3.308q0-.075.076-.076h.048q.474 0 .56.462"/><path d="M122.719 47.61q-.807 0-1.286-.495-.48-.495-.48-1.315t.48-1.324q.479-.504 1.277-.504.808 0 1.291.504.485.504.485 1.315 0 .82-.48 1.319-.48.5-1.287.5m-.009-.67q.446 0 .746-.282.299-.283.299-.858 0-.556-.299-.857a1 1 0 0 0-.746-.302q-.456 0-.741.302-.285.3-.285.858 0 .555.285.847t.741.292"/><path d="M127.287 44.81a1.73 1.73 0 0 0-.892-.235q-.248 0-.404.094a.31.31 0 0 0-.157.283q0 .18.181.292.18.113.446.207t.537.217q.27.123.451.316.18.193.181.523 0 .5-.357.81-.357.312-.973.312-.39 0-.675-.137a1.15 1.15 0 0 1-.437-.344.7.7 0 0 1-.151-.415q0-.16.105-.16.037 0 .085.047.18.16.418.283.237.123.588.122.342 0 .513-.122a.39.39 0 0 0 .171-.33q0-.188-.181-.302a2 2 0 0 0-.451-.202 6 6 0 0 1-.541-.212 1.4 1.4 0 0 1-.451-.32q-.18-.198-.18-.529 0-.499.38-.768.38-.268.911-.268.465 0 .807.17.19.075.248.193.056.118.009.315l-.028.123q-.01.066-.067.066a.1.1 0 0 1-.043-.01z"/><path d="M130.64 46.937h1.967q.387 0 .386.358v.136q0 .094-.094.094h-2.946q-.068 0-.068-.076 0-.529.175-.895.177-.367.452-.618.274-.252.579-.452t.58-.397a2 2 0 0 0 .451-.434.97.97 0 0 0 .176-.588q0-.375-.236-.58-.237-.205-.666-.205-.31 0-.592.099-.285.097-.559.268a.23.23 0 0 1-.111.043q-.044 0-.069-.068l-.052-.171q-.06-.187.017-.307.078-.12.292-.204.233-.094.507-.171.275-.077.61-.077.696 0 1.108.345t.412 1.02q0 .39-.159.685-.159.294-.412.52-.254.226-.545.418-.293.191-.554.379a2.5 2.5 0 0 0-.442.396.84.84 0 0 0-.207.482"/><path d="M135.716 46.434h-2.19q-.069 0-.069-.068v-.35q0-.084.013-.132a.5.5 0 0 1 .073-.132l1.864-2.804a.4.4 0 0 1 .111-.115.3.3 0 0 1 .181-.047h.257q.181 0 .293.093.111.094.111.316v2.651h.309q.387 0 .386.367v.136q0 .085-.093.085h-.602v1.015q0 .076-.06.076h-.515q-.07 0-.069-.076zm-1.581-.588h1.581v-2.378z"/><path d="M137.922 46.682q.198 0 .331.136a.46.46 0 0 1 .133.332.46.46 0 0 1-.133.329.44.44 0 0 1-.331.14.44.44 0 0 1-.326-.14.45.45 0 0 1-.137-.329q0-.195.137-.332a.45.45 0 0 1 .326-.136"/><path d="M141.127 43.383h-2.328q-.069 0-.069-.078v-.443q0-.075.069-.076h2.611q.395 0 .395.366v.094a.8.8 0 0 1-.021.192q-.022.08-.074.2l-1.752 3.785q-.042.102-.137.102h-.524q-.033 0-.047-.025a.06.06 0 0 1-.004-.051z"/></g><defs><clipPath id="clip0_337_3469"><path fill="#fff" d="M0 0h142v48H0z"/></clipPath></defs></svg>