<svg xmlns="http://www.w3.org/2000/svg" width="22" height="22" fill="none" viewBox="0 0 22 22"><path fill="#7d7d7d" d="M18.333 5.593v-1.01A4.59 4.59 0 0 0 13.75 0h-5.5a4.59 4.59 0 0 0-4.583 4.583v1.01A4.59 4.59 0 0 0 0 10.083v7.334A4.59 4.59 0 0 0 4.583 22h12.834A4.59 4.59 0 0 0 22 17.417v-7.334a4.59 4.59 0 0 0-3.667-4.49m-16.5 11.824v-7.334c0-1.195.767-2.213 1.834-2.592v12.518a2.75 2.75 0 0 1-1.834-2.592M5.5 4.583a2.753 2.753 0 0 1 2.75-2.75h5.5a2.753 2.753 0 0 1 2.75 2.75v15.584h-11zm14.667 12.834a2.75 2.75 0 0 1-1.834 2.592V7.491a2.75 2.75 0 0 1 1.834 2.592zm-10.084-4.584c0 .506-.41.917-.916.917H8.25a.916.916 0 1 1 0-1.833h.917c.507 0 .916.41.916.916m4.584 0c0 .506-.41.917-.917.917h-.917a.916.916 0 1 1 0-1.833h.917c.507 0 .917.41.917.916M10.083 16.5c0 .506-.41.917-.916.917H8.25a.916.916 0 1 1 0-1.834h.917c.507 0 .916.411.916.917m4.584 0c0 .506-.41.917-.917.917h-.917a.916.916 0 1 1 0-1.834h.917c.507 0 .917.411.917.917m-2.75-8.25a.916.916 0 1 1-1.834 0v-.917h-.916a.916.916 0 1 1 0-1.833h.916v-.917a.916.916 0 1 1 1.834 0V5.5h.916a.916.916 0 1 1 0 1.833h-.916z"/></svg>