<svg xmlns="http://www.w3.org/2000/svg" width="27" height="26" fill="none" viewBox="0 0 27 26"><path fill="#ffb477" fill-rule="evenodd" d="M8.217 22.474c.538 1.329.417 2.603-.77 3.26-1.65.912-3.303-.729-3.878-1.744-.835-1.477-1.191-4.142-.842-6.937.568-4.543 3.841-8.805 8.364-9.782 5.338-1.154 10.577 1.518 11.372 5.345.358 1.745-.363 4.201-1.604 5.493-1.348 1.403-3.834 2.435-6.119 2.574-.902.054-2.693-.426-3.004-2.251-.264-1.556 1.145-2.898 3.015-2.808 1.97.095 4.135-.576 3.381-2.526-.887-2.295-4.99-2.476-7.485-1.27a6.13 6.13 0 0 0-3.452 5.127c-.142 2.113.117 3.28 1.022 5.519" clip-rule="evenodd"/><path fill="#ffb477" fill-rule="evenodd" d="M11.814 4.631c-.988.255-1.845-.455-2.178-1.499-.344-1.078.36-2.175 1.162-2.467 1.454-.529 3.36-.468 4.66-.002.954.341 1.452 1.265 1.241 2.357s-.988 1.699-1.976 1.487c-1.428-.306-2.91.124-2.91.124" clip-rule="evenodd"/><path fill="#ffb477" fill-rule="evenodd" d="M6.065 6.708c-1.548.82-3.014 2.602-3.982 1.867C1.116 7.84.942 4.424 4.03 3.028c1.107-.5 2.576-.097 3.154.965s-.047 2.147-1.12 2.715" clip-rule="evenodd"/><path fill="#ffb477" fill-rule="evenodd" d="M20.383 6.086c1.495.913 2.904 2.801 3.915 2.126 1.01-.675 1.441-4.116-1.556-5.697-1.073-.567-2.613-.21-3.255.815s-.139 2.123.896 2.756" clip-rule="evenodd"/></svg>