<svg xmlns="http://www.w3.org/2000/svg" width="55" height="54" fill="none"><path fill="#3d3d3d" fill-rule="evenodd" d="M42.05 4.288C49.256 9.07 54 17.185 54 26.384 54 41.074 41.902 53 27 53S0 41.074 0 26.384c0-4.294 1.033-8.35 2.868-11.943a.437.437 0 0 1 .821.198q.002 0 .002.002c0 2.033 1.482 3.229 3.526 3.229.456 0 .882.22 1.14.59.26.37.317.841.155 1.26a18.7 18.7 0 0 0-1.21 6.664C7.303 37.1 16.13 45.8 27 45.8s19.697-8.7 19.697-19.417c0-6.627-3.374-12.482-8.52-15.987a20 20 0 0 0-1.055-.67 1.8 1.8 0 0 1-.421-.348 3.7 3.7 0 0 1-.91-2.425c0-2.033 1.66-3.683 3.705-3.683.362 0 .713.052 1.044.149q.208.063.394.173.57.331 1.116.695M8.83 8.74c1.578 0 2.858 1.262 2.858 2.816 0 1.555-1.28 2.817-2.857 2.817s-2.857-1.262-2.857-2.817c0-1.554 1.28-2.816 2.857-2.816m7.606-6.053c2.043 0 3.7 1.634 3.7 3.648 0 2.013-1.657 3.647-3.7 3.647-2.042 0-3.7-1.634-3.7-3.647s1.658-3.648 3.7-3.648M27.706 0c2.401 0 4.35 1.921 4.35 4.287 0 2.367-1.949 4.288-4.35 4.288s-4.348-1.921-4.348-4.288S25.306 0 27.707 0" clip-rule="evenodd"/></svg>