<svg xmlns="http://www.w3.org/2000/svg" width="54" height="54" fill="none" viewBox="0 0 54 54"><g fill="#3d3d3d" fill-rule="evenodd" clip-path="url(#clip0_478_3310)" clip-rule="evenodd"><path d="M15.63 43.063c.475-.079.977-.03 1.454.17 6.907 2.879 12.738 2.672 17.252.64 6.55-2.945 10.267-9.624 10.267-15.343 0-9.556-7.65-17.314-17.073-17.314S10.456 18.974 10.456 28.53c0 1.507-1.206 2.73-2.691 2.73-1.486 0-2.692-1.223-2.692-2.73 0-12.568 10.063-22.771 22.457-22.771S49.987 15.96 49.987 28.53c0 5.908-2.947 12.631-8.369 17.143l2.124 3.98c.707 1.326.22 2.983-1.086 3.7a2.674 2.674 0 0 1-3.648-1.102l-1.944-3.642q-.27.13-.545.255c-5.285 2.377-12.026 2.938-19.962.014l-1.875 3.513a2.674 2.674 0 0 1-3.648 1.102c-1.307-.716-1.793-2.374-1.087-3.699l2.85-5.342a2.68 2.68 0 0 1 2.833-1.39m9.797-12.343a2.3 2.3 0 0 1-.305-1.13l-.094-12.522c-.01-1.255.988-2.282 2.226-2.291 1.238-.01 2.25 1.002 2.26 2.257l.078 10.41 5.655-.07c1.237-.009 2.25 1.003 2.26 2.258s-.989 2.282-2.227 2.291l-7.81.095a2.24 2.24 0 0 1-2.043-1.298"/><path d="M52.56 13.599c.464 1.426-.306 2.974-1.718 3.454a2.67 2.67 0 0 1-3.401-1.714c-1.174-3.604-3.053-6.509-5.818-8.942-1.119-.985-1.23-2.708-.25-3.847a2.676 2.676 0 0 1 3.8-.28c3.507 3.085 5.899 6.761 7.387 11.33"/><path d="M7.45 14.709a2.67 2.67 0 0 1-3.4 1.714 2.753 2.753 0 0 1-1.718-3.454C3.819 8.4 6.21 4.724 9.717 1.639a2.676 2.676 0 0 1 3.801.28c.98 1.14.868 2.863-.25 3.847-2.766 2.434-4.644 5.339-5.818 8.943"/></g><defs><clipPath id="clip0_478_3310"><path fill="#fff" d="M0 0h54v54H0z"/></clipPath></defs></svg>