<svg xmlns="http://www.w3.org/2000/svg" width="54" height="54" fill="none" viewBox="0 0 54 54"><path fill="#fefeff" d="M22.912 47.48q-3.216 0-5.616-1.2-2.4-1.248-4.032-3.504-1.632-2.304-2.448-5.568Q10 33.896 10 29.768q0-6.048 1.584-9.984 1.632-3.936 4.56-5.856t6.768-1.92q3.168 0 5.568 1.248 2.448 1.2 4.08 3.504t2.448 5.616q.816 3.264.816 7.392 0 6.048-1.632 9.984-1.632 3.888-4.512 5.808t-6.768 1.92m0-5.952q1.344 0 2.4-.576t1.824-1.92 1.152-3.6q.384-2.304.384-5.664 0-3.408-.384-5.664-.384-2.304-1.152-3.648t-1.824-1.92q-1.056-.624-2.4-.624t-2.4.624q-1.056.576-1.824 1.92t-1.2 3.648q-.384 2.256-.384 5.664 0 3.36.384 5.664.432 2.256 1.2 3.6t1.824 1.92 2.4.576"/><path fill="#fefeff" d="M43.688 18q-1.282 0-2.344-.386a5.1 5.1 0 0 1-1.813-1.172 5.4 5.4 0 0 1-1.156-1.896q-.405-1.124-.406-2.554 0-1.415.406-2.538.405-1.125 1.156-1.896.766-.771 1.813-1.156Q42.407 6 43.687 6q1.47 0 2.61.53a4.6 4.6 0 0 1 1.844 1.462q.718.932.859 2.185h-2.516a2.5 2.5 0 0 0-.515-1.028 2.4 2.4 0 0 0-.953-.707q-.579-.258-1.328-.257-.97 0-1.688.417-.703.418-1.094 1.27-.39.85-.39 2.12 0 .98.218 1.687.235.706.641 1.188.422.483 1 .723a3.6 3.6 0 0 0 1.313.225q.719 0 1.296-.24.594-.258.985-.707.39-.466.515-1.077H49q-.125 1.269-.86 2.217a4.8 4.8 0 0 1-1.874 1.478q-1.14.514-2.578.514M37 13.855v-1.269h7.266l-.172 1.27zm0-2.441v-1.237h7.625l-.172 1.237z"/></svg>