<svg xmlns="http://www.w3.org/2000/svg" width="54" height="54" fill="none" viewBox="0 0 54 54"><path fill="#fefeff" d="M22.912 47.48q-3.216 0-5.616-1.2-2.4-1.248-4.032-3.504-1.632-2.304-2.448-5.568Q10 33.896 10 29.768q0-6.048 1.584-9.984 1.632-3.936 4.56-5.856t6.768-1.92q3.168 0 5.568 1.248 2.448 1.2 4.08 3.504t2.448 5.616q.816 3.264.816 7.392 0 6.048-1.632 9.984-1.632 3.888-4.512 5.808t-6.768 1.92m0-5.952q1.344 0 2.4-.576t1.824-1.92 1.152-3.6q.384-2.304.384-5.664 0-3.408-.384-5.664-.384-2.304-1.152-3.648t-1.824-1.92q-1.056-.624-2.4-.624t-2.4.624q-1.056.576-1.824 1.92t-1.2 3.648q-.384 2.256-.384 5.664 0 3.36.384 5.664.432 2.256 1.2 3.6t1.824 1.92 2.4.576"/><path fill="#fefeff" d="M37.536 17.854 44.88 6h1.583L39.12 17.854zm.902-5.415q-.729 0-1.282-.341-.555-.358-.855-1.074Q36 10.293 36 9.22q0-1.09.3-1.805.301-.716.856-1.057Q37.71 6 38.438 6t1.267.358q.554.341.854 1.057.3.715.301 1.805 0 1.073-.3 1.804-.301.716-.855 1.074-.54.34-1.267.341m0-1.35q.317 0 .507-.227.189-.228.285-.634.095-.423.095-1.008t-.095-.992q-.096-.423-.285-.65a.63.63 0 0 0-.507-.228.67.67 0 0 0-.522.227q-.19.228-.285.65a4.4 4.4 0 0 0-.095.993q0 .438.047.796.063.342.158.586a.96.96 0 0 0 .285.357q.175.13.412.13M45.578 18q-.728 0-1.283-.358-.554-.357-.854-1.073-.3-.715-.301-1.805 0-1.09.3-1.805.301-.715.855-1.057.554-.357 1.283-.357.727 0 1.266.357.555.342.855 1.057.3.716.301 1.805 0 1.09-.3 1.805-.301.716-.856 1.073-.537.358-1.266.358m0-1.366q.3 0 .49-.211.207-.228.301-.65.095-.423.095-1.009t-.095-.992q-.094-.422-.3-.634a.61.61 0 0 0-.491-.227.67.67 0 0 0-.523.227q-.189.212-.285.634a4.4 4.4 0 0 0-.095.992q0 .586.095 1.008.096.423.285.65.207.212.523.212"/></svg>