<svg xmlns="http://www.w3.org/2000/svg" width="56" height="56" fill="none"><path fill="#3d3d3d" fill-rule="evenodd" d="M52.727 24.735q.012.12.013.244l.144 11.425c.021 1.662-1.33 3.03-3.014 3.05s-3.068-1.312-3.089-2.975l-.106-8.446-37.556.035c.024 4.775.067 14.03.067 19.093 0 1.391 1.142 2.519 2.551 2.519h32.161c1.365 0 2.476-1.084 2.493-2.432.02-1.663 1.403-2.997 3.088-2.977 1.684.02 3.035 1.386 3.015 3.05-.057 4.647-3.888 8.386-8.596 8.386h-32.16c-4.78 0-8.655-3.826-8.655-8.546C3.083 40.148 3 25.074 3 25.074a3 3 0 0 1 .054-.582C3.614 1.809 27.532-5.314 41.93 3.94c6.133 3.942 10.64 10.819 10.797 20.794M9.369 22.04l37.054-.034c-.787-6.068-3.775-10.414-7.822-13.015-10.346-6.65-27.117-2.07-29.232 13.05m17.126 16.284a4.08 4.08 0 0 1-2.057-3.532c0-2.256 1.855-4.088 4.14-4.088s4.14 1.832 4.14 4.088a4.08 4.08 0 0 1-1.99 3.492v6.45c0 1.154-.948 2.09-2.116 2.09s-2.117-.936-2.117-2.09z" clip-rule="evenodd"/></svg>