<svg xmlns="http://www.w3.org/2000/svg" width="180" height="180" fill="none"><path fill="url(#a)" d="M0 0h180v180H0z"/><path fill="#272727" fill-rule="evenodd" d="M66.407 135.907c2.578 6.441 2 12.617-3.692 15.8-7.91 4.423-15.844-3.528-18.597-8.451-4.006-7.16-5.714-20.075-4.04-33.625C42.802 87.609 58.5 66.952 80.187 62.216c25.601-5.591 50.724 7.357 54.537 25.907 1.718 8.462-1.744 20.365-7.693 26.625-6.466 6.802-18.387 11.805-29.341 12.478-4.326.263-12.916-2.065-14.406-10.912-1.27-7.539 5.49-14.047 14.456-13.609 9.451.463 19.831-2.793 16.216-12.245-4.255-11.125-23.93-12.002-35.897-6.153-10.01 4.894-15.876 14.635-16.553 24.848-.68 10.245.56 15.904 4.902 26.752m17.259-86.5c-4.74 1.23-8.855-2.213-10.454-7.267-1.656-5.222 1.716-10.53 5.564-11.94 6.972-2.556 16.122-2.255 22.359.005 4.577 1.659 6.97 6.133 5.963 11.419-1.007 5.285-4.733 8.22-9.478 7.19-6.85-1.486-13.954.593-13.954.593M56.073 59.47c-7.428 3.988-14.472 12.628-19.106 9.075s-5.441-20.1 9.38-26.883c5.312-2.432 12.35-.493 15.115 4.65 2.763 5.142-.245 10.395-5.389 13.157m68.678-3.009c7.172 4.433 13.94 13.589 18.782 10.324 4.842-3.264 6.891-19.937-7.49-27.61-5.148-2.752-12.534-1.036-15.606 3.928s-.652 10.288 4.314 13.358" clip-rule="evenodd"/><defs><linearGradient id="a" x1="90" x2="90" y1="0" y2="180" gradientUnits="userSpaceOnUse"><stop stop-color="#ffb477"/><stop offset="1" stop-color="#ffc392"/></linearGradient></defs></svg>