<svg xmlns="http://www.w3.org/2000/svg" width="54" height="54" fill="none"><path fill="#3d3d3d" fill-rule="evenodd" d="M35.128 26.296v14.037C35.128 47.33 29.497 53 22.55 53h-9.696a1.72 1.72 0 0 1-1.711-1.724c0-.95.767-1.723 1.711-1.723h9.696c5.056 0 9.154-4.128 9.154-9.22V4.447H3.423v46.586c0 .951-.767 1.724-1.711 1.724A1.72 1.72 0 0 1 0 51.033V2.723C0 1.773.766 1 1.712 1h31.704c.946 0 1.712.772 1.712 1.724v13.51h17.16c.946 0 1.712.772 1.712 1.724v25.1C54 48.547 49.58 53 44.127 53h-1.35a1.72 1.72 0 0 1-1.712-1.724c0-.95.767-1.723 1.711-1.723h1.351c3.563 0 6.45-2.908 6.45-6.496V19.681h-15.44v6.44q0 .089-.01.175M15.435 14.332h-1.62a1.72 1.72 0 0 1-1.71-1.723c0-.951.766-1.724 1.71-1.724h1.62v-1.63c0-.952.767-1.724 1.712-1.724s1.711.772 1.711 1.723v1.631h1.62c.944 0 1.711.773 1.711 1.724s-.767 1.723-1.711 1.723h-1.62v1.632c0 .95-.767 1.723-1.711 1.723a1.72 1.72 0 0 1-1.711-1.723zM8.094 24.514a1.72 1.72 0 0 1-1.712-1.724c0-.951.767-1.723 1.712-1.723h5.136c.944 0 1.711.772 1.711 1.723s-.767 1.724-1.711 1.724zm12.659 0a1.72 1.72 0 0 1-1.711-1.724c0-.951.767-1.723 1.711-1.723h5.136c.945 0 1.712.772 1.712 1.723s-.767 1.724-1.712 1.724zM8.093 37.906a1.72 1.72 0 0 1-1.71-1.723c0-.952.766-1.724 1.71-1.724h5.137c.944 0 1.711.772 1.711 1.724 0 .951-.767 1.723-1.711 1.723zm12.66 0a1.72 1.72 0 0 1-1.711-1.723c0-.952.767-1.724 1.711-1.724h5.136c.945 0 1.712.772 1.712 1.724 0 .951-.767 1.723-1.712 1.723zM8.272 31.277a1.72 1.72 0 0 1-1.711-1.723c0-.952.766-1.724 1.71-1.724h5.137c.945 0 1.712.772 1.712 1.724 0 .951-.767 1.723-1.712 1.723zm12.66 0a1.72 1.72 0 0 1-1.712-1.723c0-.952.767-1.724 1.711-1.724h5.137c.944 0 1.71.772 1.71 1.724 0 .951-.766 1.723-1.71 1.723zM40.2 34.425a1.72 1.72 0 0 1-1.712-1.724c0-.951.767-1.723 1.712-1.723h5.136c.945 0 1.711.772 1.711 1.723s-.766 1.724-1.711 1.724zm.178-6.63a1.72 1.72 0 0 1-1.711-1.723c0-.951.767-1.723 1.711-1.723h5.136c.945 0 1.712.772 1.712 1.723s-.767 1.724-1.712 1.724z" clip-rule="evenodd"/></svg>