<svg xmlns="http://www.w3.org/2000/svg" width="64" height="64" fill="none"><path fill="#3d3d3d" fill-rule="evenodd" d="M32.216 49.082c-.282.004-.607.183-.783.303-1.588 1.083-3.488 1.237-5.62.41-1.905-.74-.864-3.52.252-3.039 1.995.86 2.88.1 5.109-1.18.327-.187.812-.205 1.014-.205h.009c.202 0 .687.018 1.014.206 2.228 1.28 3.069 1.924 5.108 1.18 1.415-.517 2.213 2.298.307 3.038-2.132.827-4.031.673-5.62-.41-.176-.12-.5-.3-.782-.303z" clip-rule="evenodd"/><path fill="#3d3d3d" fill-rule="evenodd" d="M31.923 25.361c2.609-.058 4.517.156 7.015.645l5.945-3.745a2.56 2.56 0 0 1 2.038-.304 2.57 2.57 0 0 1 1.605 1.297c5.642 10.857 6.225 22.055-.442 30.538-1.031 1.313-2.288 2.327-3.51 3.272a2.56 2.56 0 0 1-3.604-.471 2.593 2.593 0 0 1 .47-3.622c.899-.697 1.851-1.414 2.611-2.38 4.929-6.273 4.644-14.364 1.127-22.42l-4.38 2.76a2.56 2.56 0 0 1-1.889.34c-2.428-.51-4.123-.766-6.403-.752q-.183.021-.371.016l-.212-.006-.21.006a3 3 0 0 1-.372-.016c-2.28-.014-3.976.242-6.403.751a2.56 2.56 0 0 1-1.89-.34l-4.38-2.758c-3.516 8.055-3.801 16.146 1.128 22.418.76.967 1.712 1.684 2.612 2.38a2.593 2.593 0 0 1 .468 3.623 2.56 2.56 0 0 1-3.604.471c-1.221-.945-2.478-1.959-3.51-3.272-6.666-8.483-6.083-19.68-.441-30.538a2.57 2.57 0 0 1 1.605-1.297 2.56 2.56 0 0 1 2.037.304l5.945 3.745c2.499-.49 4.407-.703 7.015-.645" clip-rule="evenodd"/><path fill="#3d3d3d" fill-rule="evenodd" d="M36.3 49.695a1.213 1.213 0 0 1-1.592-.647 1.224 1.224 0 0 1 .643-1.6l6.481-2.769a1.213 1.213 0 0 1 1.593.646 1.224 1.224 0 0 1-.643 1.601z" clip-rule="evenodd"/><path fill="#3d3d3d" fill-rule="evenodd" d="M43.062 42.5a2.934 2.934 0 0 1 2.5 3.304 2.924 2.924 0 0 1-3.287 2.513 2.934 2.934 0 0 1-2.5-3.304 2.924 2.924 0 0 1 3.287-2.512m-19.207-.896a1.84 1.84 0 0 1-1.832-1.842c0-1.016.82-1.841 1.832-1.841h4.304c1.01 0 1.832.825 1.832 1.841s-.821 1.842-1.832 1.842zm12.235-.031a1.84 1.84 0 0 1-1.833-1.841c0-1.017.821-1.842 1.832-1.842h4.304c1.011 0 1.832.825 1.832 1.842a1.84 1.84 0 0 1-1.832 1.841zm-17.662 1.933c0-.323.26-.586.582-.586s.583.263.583.586v1.38a.52.52 0 0 0 .515.518.517.517 0 0 0 .516-.518v-1.342a.583.583 0 1 1 1.165 0v1.342a1.677 1.677 0 0 1-2.87 1.194 1.7 1.7 0 0 1-.491-1.194z" clip-rule="evenodd"/></svg>