<svg xmlns="http://www.w3.org/2000/svg" width="40" height="40" fill="none"><path fill="#ffb477" fill-rule="evenodd" d="M12.852 34.492c.795 2.074.617 4.062-1.145 5.09-2.45 1.428-4.91-1.138-5.762-2.72-1.242-2.302-1.77-6.467-1.25-10.835.844-7.097 5.706-13.752 12.434-15.281 7.938-1.802 15.722 2.37 16.907 8.346.536 2.728-.544 6.56-2.386 8.575-2.005 2.193-5.698 3.808-9.09 4.02-1.34.085-4.002-.663-4.465-3.518-.39-2.431 1.705-4.53 4.48-4.386 2.93.153 6.145-.9 5.025-3.943-1.315-3.587-7.419-3.867-11.128-1.98-3.1 1.58-4.919 4.716-5.13 8.005-.21 3.298.17 5.125 1.518 8.618zm5.623-28.117c-1.594.376-2.976-.671-3.513-2.206-.554-1.582.581-3.197 1.875-3.62 2.342-.775 5.423-.687 7.518 0 1.54.503 2.34 1.862 1.998 3.46-.344 1.607-1.594 2.494-3.187 2.182-2.306-.447-4.691.184-4.691.184m-8.273 3.422c-2.348 1.25-4.58 3.96-6.05 2.842-1.468-1.119-1.734-6.322 2.963-8.443 1.685-.762 3.917-.149 4.788 1.467.88 1.615-.075 3.264-1.701 4.134m20.631-.73c2.31 1.545 4.485 4.735 6.045 3.595s2.226-6.951-2.403-9.627c-1.661-.956-4.039-.358-5.025 1.37s-.21 3.586 1.383 4.653z" clip-rule="evenodd"/></svg>