<svg width="142" height="48" viewBox="0 0 142 48" fill="none" xmlns="http://www.w3.org/2000/svg">
<g clip-path="url(#clip0_337_3469)">
<path fill-rule="evenodd" clip-rule="evenodd" d="M12.3745 40.7607C13.359 43.2028 13.138 45.5445 10.9645 46.7512C7.94371 48.4282 4.91427 45.4134 3.86272 43.5471C2.3332 40.8324 1.68075 35.9358 2.32032 30.7986C3.35973 22.4493 9.35486 14.6176 17.6362 12.822C27.4127 10.7022 37.0066 15.6114 38.4624 22.6442C39.1185 25.8525 37.7967 30.3655 35.5248 32.7387C33.0555 35.3178 28.5033 37.2144 24.3202 37.4696C22.6683 37.5694 19.3878 36.6866 18.8189 33.3323C18.3342 30.4741 20.9151 28.0067 24.3393 28.1729C27.9484 28.3482 31.9123 27.1138 30.5318 23.5301C28.9068 19.3125 21.3938 18.9797 16.8238 21.1976C13.0007 23.0529 10.7609 26.7459 10.5024 30.618C10.2429 34.5025 10.7166 36.6478 12.3745 40.7607Z" fill="#FEFEFF"/>
<path fill-rule="evenodd" clip-rule="evenodd" d="M18.9616 7.97006C17.152 8.43776 15.5815 7.13208 14.9721 5.21494C14.341 3.234 15.6295 1.21942 17.0988 0.683285C19.7609 -0.287862 23.254 -0.175585 25.6348 0.680798C27.3818 1.30921 28.2942 3.00616 27.9086 5.01191C27.523 7.01766 26.1001 8.13197 24.289 7.74237C21.6738 7.17985 18.9616 7.97006 18.9616 7.97006Z" fill="#FEFEFF"/>
<path fill-rule="evenodd" clip-rule="evenodd" d="M8.43125 11.7864C5.59631 13.296 2.90971 16.5705 1.13842 15.2207C-0.632868 13.8709 -0.948192 7.59435 4.70896 5.02752C6.73671 4.10742 9.42562 4.84583 10.4833 6.79774C11.541 8.74966 10.3946 10.7409 8.43125 11.7864Z" fill="#FEFEFF"/>
<path fill-rule="evenodd" clip-rule="evenodd" d="M34.6545 10.6435C37.3919 12.3227 39.974 15.7933 41.8241 14.5539C43.6742 13.3145 44.4613 6.99044 38.9717 4.08438C37.0064 3.04242 34.1856 3.69509 33.011 5.57881C31.8364 7.46253 32.7587 9.48063 34.6545 10.6435Z" fill="#FEFEFF"/>
<path fill-rule="evenodd" clip-rule="evenodd" d="M56.4752 35.7786V47.0102C56.4752 47.3812 56.3481 47.6243 56.1771 47.7714C56.0413 47.8929 55.8616 47.9633 55.6337 47.9633H52.1973C51.8949 47.9633 51.6758 47.8545 51.5224 47.6882C51.3866 47.5347 51.2988 47.3172 51.2988 47.0102V16.5582C51.2988 16.264 51.3953 16.0529 51.5399 15.9058C51.6889 15.7586 51.8993 15.6691 52.1973 15.6691H52.4867C53.6789 15.6691 54.5774 16.0273 55.1954 16.7053C55.5899 17.1402 55.8923 17.6199 56.1027 18.1572C56.7382 17.4089 57.5403 16.7564 58.5133 16.2128C59.78 15.5028 61.2878 15.1446 63.041 15.1446C66.4115 15.1446 69.0236 16.2575 70.8908 18.4514C72.7404 20.6261 73.674 23.3892 73.674 26.7408C73.674 28.8515 73.2707 30.7768 72.4687 32.5293C71.6578 34.301 70.4788 35.7082 68.9404 36.7572C67.3932 37.8062 65.526 38.3371 63.3301 38.3371C61.7566 38.3371 60.3016 38.0556 58.9648 37.4928C58.0005 37.0834 57.1677 36.5142 56.4752 35.7786ZM62.515 33.4312C63.3872 33.4312 64.277 33.2137 65.1886 32.7788C66.0871 32.3502 66.8322 31.6531 67.4239 30.6872C68.0332 29.7022 68.3267 28.3846 68.3267 26.7408C68.3267 24.4957 67.757 22.82 66.5693 21.7326C65.3859 20.6517 63.9964 20.108 62.401 20.108C61.5551 20.108 60.6653 20.2935 59.7273 20.6581C58.8157 21.0099 58.0486 21.6687 57.4218 22.6089C56.7775 23.5747 56.4752 24.9563 56.4752 26.7408C56.4752 28.4933 56.7908 29.8621 57.4526 30.8471C58.0969 31.8066 58.8859 32.4782 59.8195 32.8556C60.7749 33.2393 61.6735 33.4312 62.515 33.4312ZM94.2697 35.5867C93.5465 36.3734 92.7181 36.9811 91.7976 37.4288C90.5353 38.03 89.1328 38.3371 87.59 38.3371C85.3546 38.3371 83.4569 37.8062 81.8965 36.7572C80.3318 35.7146 79.144 34.301 78.3331 32.5293C77.531 30.7768 77.1278 28.8515 77.1278 26.7408C77.1278 24.5085 77.5748 22.5257 78.4602 20.7924C79.3499 19.0398 80.5991 17.6647 82.1989 16.6605C83.7987 15.6499 85.6528 15.1446 87.761 15.1446C89.4704 15.1446 90.9648 15.4708 92.2447 16.1168C93.244 16.6221 94.0767 17.249 94.743 17.9973C94.9928 17.3065 95.3653 16.782 95.8387 16.4175C96.4918 15.9249 97.3158 15.6691 98.3151 15.6691H98.6089C98.8368 15.6691 99.012 15.7395 99.1479 15.8546C99.3232 16.0017 99.4459 16.2447 99.4459 16.6157V36.866C99.4459 37.2369 99.3232 37.4799 99.1479 37.6271C99.012 37.7486 98.8368 37.8126 98.6089 37.8126H95.1682C94.8658 37.8126 94.6466 37.7102 94.4976 37.5439C94.3617 37.3904 94.2697 37.173 94.2697 36.866V35.5867ZM88.2299 33.4312C89.146 33.4312 90.0751 33.2393 91.0087 32.8556C91.9247 32.4846 92.6917 31.813 93.3185 30.8471C93.9628 29.8621 94.2697 28.4933 94.2697 26.7408C94.2697 24.9563 93.9672 23.5747 93.3229 22.6089C92.6962 21.6623 91.9379 21.0099 91.0438 20.6581C90.1277 20.2935 89.2468 20.108 88.4053 20.108C86.8405 20.108 85.4599 20.6517 84.2633 21.7326C83.058 22.82 82.4795 24.4957 82.4795 26.7408C82.4795 28.3846 82.7732 29.7022 83.378 30.6872C83.9741 31.6531 84.7061 32.3502 85.5914 32.7788C86.4812 33.2137 87.3577 33.4312 88.2299 33.4312ZM107.099 20.3383H103.566C103.272 20.3383 103.058 20.2423 102.909 20.1016C102.764 19.9545 102.667 19.7434 102.667 19.4492V16.5582C102.667 16.264 102.764 16.0529 102.909 15.9058C103.058 15.7586 103.272 15.6691 103.566 15.6691H107.099V9.57357C107.099 9.20259 107.221 8.95952 107.397 8.8124C107.533 8.69727 107.712 8.62695 107.936 8.62695H108.23C109.492 8.62695 110.478 9.01708 111.197 9.77183C111.898 10.5138 112.275 11.6204 112.275 13.1043V15.6691H116.334C116.619 15.6691 116.82 15.765 116.965 15.9249C117.087 16.072 117.171 16.2767 117.171 16.5582V19.4492C117.171 19.7306 117.087 19.9353 116.965 20.0761C116.82 20.236 116.619 20.3383 116.334 20.3383H112.275V36.866C112.275 37.173 112.183 37.3904 112.047 37.5439C111.898 37.7102 111.679 37.8126 111.376 37.8126H107.936C107.712 37.8126 107.533 37.7486 107.397 37.6271C107.221 37.4799 107.099 37.2369 107.099 36.866V20.3383ZM136.776 35.5867C136.053 36.3734 135.224 36.9811 134.304 37.4288C133.042 38.03 131.639 38.3371 130.096 38.3371C127.861 38.3371 125.963 37.8062 124.403 36.7572C122.838 35.7146 121.65 34.301 120.839 32.5293C120.037 30.7768 119.634 28.8515 119.634 26.7408C119.634 24.5085 120.081 22.5257 120.966 20.7924C121.856 19.0398 123.105 17.6647 124.705 16.6605C126.305 15.6499 128.159 15.1446 130.272 15.1446C131.977 15.1446 133.471 15.4708 134.751 16.1168C135.75 16.6221 136.583 17.249 137.249 17.9973C137.499 17.3065 137.872 16.782 138.345 16.4175C138.998 15.9249 139.822 15.6691 140.821 15.6691H141.115C141.343 15.6691 141.518 15.7395 141.654 15.8546C141.829 16.0017 141.952 16.2447 141.952 16.6157V36.866C141.952 37.2369 141.829 37.4799 141.654 37.6271C141.518 37.7486 141.343 37.8126 141.115 37.8126H137.674C137.372 37.8126 137.153 37.7102 137.004 37.5439C136.868 37.3904 136.78 37.173 136.78 36.866L136.776 35.5867ZM130.736 33.4312C131.652 33.4312 132.581 33.2393 133.515 32.8556C134.431 32.4846 135.198 31.813 135.825 30.8471C136.469 29.8621 136.78 28.4933 136.78 26.7408C136.78 24.9563 136.473 23.5747 135.829 22.6089C135.202 21.6623 134.444 21.0099 133.55 20.6581C132.634 20.2935 131.753 20.108 130.912 20.108C129.347 20.108 127.966 20.6517 126.77 21.7326C125.564 22.82 124.986 24.4957 124.986 26.7408C124.986 28.3846 125.279 29.7022 125.884 30.6872C126.48 31.6531 127.212 32.3502 128.097 32.7788C128.987 33.2137 129.864 33.4312 130.736 33.4312Z" fill="#FEFEFF"/>
<path d="M62.582 44.867C62.4427 44.7921 62.3119 44.7349 62.1885 44.6974C62.0643 44.66 61.9144 44.6409 61.7373 44.6409C61.4398 44.6409 61.1938 44.7412 61.0008 44.9426C60.8078 45.1433 60.7117 45.4323 60.7117 45.8097C60.7117 46.1743 60.8063 46.4613 60.9963 46.6719C61.1863 46.8824 61.4587 46.9878 61.813 46.9878C62.0219 46.9878 62.1976 46.9503 62.3399 46.8747C62.4822 46.7991 62.5949 46.7206 62.6774 46.6394C62.6896 46.6266 62.7069 46.6125 62.7296 46.5963C62.7516 46.5807 62.7721 46.5729 62.791 46.5729C62.8546 46.5729 62.8863 46.6203 62.8863 46.7143C62.8863 46.84 62.8401 46.9736 62.7485 47.1149C62.6562 47.2563 62.5208 47.3757 62.3399 47.4732C62.1597 47.5707 61.9333 47.6188 61.6608 47.6188C61.1613 47.6188 60.7556 47.4577 60.4453 47.134C60.1357 46.8104 59.9805 46.3659 59.9805 45.8005C59.9805 45.4295 60.0532 45.1073 60.1985 44.8345C60.3446 44.561 60.5467 44.349 60.8063 44.1978C61.0659 44.0473 61.3664 43.9717 61.7085 43.9717C61.8728 43.9717 62.0173 43.983 62.1407 44.0049C62.2641 44.0268 62.386 44.0628 62.5063 44.113C62.7531 44.2141 62.8417 44.3865 62.7721 44.6317L62.7243 44.8204C62.7122 44.8705 62.6895 44.8953 62.6577 44.8953C62.6388 44.8953 62.6138 44.8861 62.582 44.867Z" fill="#FEFEFF"/>
<path d="M65.0882 47.619C64.5689 47.619 64.1799 47.467 63.9203 47.1625C63.6607 46.8572 63.5312 46.4381 63.5312 45.9039V44.1415C63.5312 44.0849 63.5562 44.0566 63.6069 44.0566H63.6546C64.0406 44.0566 64.2336 44.2736 64.2336 44.7075V45.9795C64.2336 46.3124 64.3108 46.5604 64.466 46.7243C64.6212 46.8876 64.8286 46.9689 65.0882 46.9689C65.3478 46.9689 65.5552 46.8953 65.7104 46.7476C65.8655 46.5999 65.9427 46.3533 65.9427 46.0078V44.1415C65.9427 44.0849 65.9685 44.0566 66.0192 44.0566H66.0661C66.459 44.0566 66.655 44.2736 66.655 44.7075V45.9512C66.655 46.4664 66.5241 46.8734 66.2614 47.1716C65.998 47.4699 65.6074 47.619 65.0882 47.619Z" fill="#FEFEFF"/>
<path d="M67.5488 43.1236C67.5488 42.9978 67.5904 42.8947 67.6722 42.8127C67.7547 42.7307 67.8562 42.6904 67.9765 42.6904C68.0901 42.6904 68.1884 42.7307 68.2709 42.8127C68.3534 42.8947 68.3943 42.9978 68.3943 43.1236C68.3943 43.243 68.3534 43.3434 68.2709 43.4254C68.1884 43.5066 68.0901 43.5476 67.9765 43.5476C67.8562 43.5476 67.7547 43.5066 67.6722 43.4254C67.5904 43.3434 67.5488 43.243 67.5488 43.1236ZM67.6919 47.5247C67.6411 47.5247 67.6154 47.4965 67.6154 47.4399V44.1412C67.6154 44.0847 67.6411 44.0564 67.6919 44.0564H67.7388C67.9227 44.0564 68.0665 44.1101 68.171 44.2168C68.2755 44.3235 68.3277 44.4868 68.3277 44.7073V47.4399C68.3277 47.4965 68.3027 47.5247 68.252 47.5247H67.6919Z" fill="#FEFEFF"/>
<path d="M71.9739 44.5091V42.37C71.9739 42.3134 71.9989 42.2852 72.0496 42.2852H72.0973C72.2804 42.2852 72.425 42.3389 72.5287 42.4456C72.6339 42.5523 72.6862 42.7155 72.6862 42.9353V47.4403C72.6862 47.4968 72.6604 47.5251 72.6097 47.5251H72.0496C71.9989 47.5251 71.9739 47.4968 71.9739 47.4403V47.0354C71.8407 47.2297 71.6742 47.3746 71.4751 47.4686C71.2753 47.5626 71.0558 47.6099 70.8151 47.6099C70.473 47.6099 70.1807 47.5286 69.937 47.3647C69.6933 47.2014 69.5064 46.9817 69.3762 46.7054C69.2468 46.4291 69.1816 46.1238 69.1816 45.7909C69.1816 45.439 69.2513 45.1267 69.3905 44.8532C69.5298 44.5797 69.7243 44.3649 69.9749 44.208C70.2246 44.0504 70.5206 43.972 70.8628 43.972C71.1035 43.972 71.3215 44.0193 71.5175 44.1133C71.7143 44.208 71.8657 44.3395 71.9739 44.5091ZM70.9195 46.9506C71.0777 46.9506 71.2374 46.9174 71.3994 46.8517C71.5606 46.7852 71.6968 46.6672 71.8074 46.4976C71.9179 46.328 71.9739 46.0927 71.9739 45.7909C71.9739 45.4835 71.9179 45.2461 71.8074 45.0793C71.6968 44.9133 71.5622 44.7988 71.404 44.7352C71.2458 44.673 71.0936 44.6412 70.9483 44.6412C70.6758 44.6412 70.4351 44.7352 70.2262 44.9238C70.0173 45.1125 69.9128 45.4016 69.9128 45.7909C69.9128 46.0736 69.965 46.2997 70.0695 46.4693C70.1739 46.6396 70.3041 46.7619 70.4593 46.8375C70.6145 46.9124 70.7674 46.9506 70.9195 46.9506Z" fill="#FEFEFF"/>
<path d="M76.3228 47.0351C76.1835 47.2294 76.0162 47.3743 75.8202 47.4683C75.6234 47.5623 75.4054 47.6096 75.1647 47.6096C74.8165 47.6096 74.5205 47.5283 74.2768 47.3644C74.0331 47.2011 73.8476 46.9814 73.7212 46.7051C73.5948 46.4288 73.5312 46.1235 73.5312 45.7906C73.5312 45.4387 73.6009 45.1264 73.7401 44.8529C73.8794 44.5794 74.0739 44.3646 74.3245 44.2077C74.5742 44.0501 74.8642 43.9717 75.1927 43.9717C75.4591 43.9717 75.6915 44.0219 75.8913 44.1229C76.0904 44.2233 76.2471 44.3554 76.3613 44.5186C76.3924 44.3554 76.456 44.2374 76.5514 44.1653C76.646 44.0932 76.7663 44.0565 76.9117 44.0565H76.9593C77.0032 44.0565 77.0259 44.0847 77.0259 44.1413V47.44C77.0259 47.4965 77.0032 47.5248 76.9593 47.5248H76.3992C76.3485 47.5248 76.3228 47.4965 76.3228 47.44V47.0351ZM75.2691 46.9503C75.4273 46.9503 75.587 46.9171 75.7483 46.8514C75.9103 46.7849 76.0465 46.6669 76.157 46.4973C76.2675 46.3277 76.3228 46.0924 76.3228 45.7906C76.3228 45.4832 76.2675 45.2458 76.157 45.079C76.0465 44.913 75.9118 44.7985 75.7536 44.7349C75.5954 44.6727 75.4432 44.6409 75.2979 44.6409C75.0254 44.6409 74.7847 44.7349 74.5758 44.9235C74.3669 45.1122 74.2624 45.4013 74.2624 45.7906C74.2624 46.0733 74.3146 46.2994 74.4191 46.469C74.5235 46.6393 74.6538 46.7616 74.8082 46.8372C74.9634 46.9121 75.117 46.9503 75.2691 46.9503Z" fill="#FEFEFF"/>
<path d="M78.7245 44.5195C78.8199 44.3746 78.9577 44.2495 79.1378 44.1421C79.3187 44.0354 79.5352 43.9824 79.7887 43.9824C80.0665 43.9824 80.3072 44.0389 80.5101 44.152C80.713 44.2651 80.8742 44.422 80.9946 44.6234C81.1081 44.4594 81.2648 44.3117 81.4646 44.1803C81.6637 44.0481 81.9127 43.9824 82.2101 43.9824C82.659 43.9824 83.0095 44.1174 83.2593 44.3873C83.509 44.6573 83.6339 45.0247 83.6339 45.4897V47.4409C83.6339 47.4974 83.6089 47.5256 83.5582 47.5256H83.0072C82.9565 47.5256 82.9315 47.4974 82.9315 47.4409V45.6127C82.9315 45.2799 82.8558 45.0332 82.7036 44.8728C82.5515 44.7124 82.3457 44.6325 82.086 44.6325C81.8143 44.6325 81.597 44.7159 81.4358 44.882C81.2745 45.0488 81.1936 45.3046 81.1936 45.6501V47.4409C81.1936 47.4974 81.1686 47.5256 81.1179 47.5256H80.5578C80.5071 47.5256 80.4813 47.4974 80.4813 47.4409V45.6127C80.4813 45.2799 80.4071 45.0332 80.2588 44.8728C80.1097 44.7124 79.9053 44.6325 79.6457 44.6325C79.3672 44.6325 79.1477 44.7159 78.9857 44.882C78.8245 45.0488 78.7435 45.3046 78.7435 45.6501V47.4409C78.7435 47.4974 78.7215 47.5256 78.6776 47.5256H78.1167C78.0668 47.5256 78.041 47.4974 78.041 47.4409V44.1329C78.041 44.0828 78.0668 44.0573 78.1167 44.0573H78.1644C78.4808 44.0573 78.6678 44.2114 78.7245 44.5195Z" fill="#FEFEFF"/>
<path d="M86.2374 47.6096C85.6992 47.6096 85.2701 47.445 84.9507 47.1149C84.6312 46.7849 84.4707 46.3468 84.4707 45.8005C84.4707 45.2536 84.6312 44.8119 84.9507 44.4763C85.2701 44.1399 85.6962 43.9717 86.2275 43.9717C86.7657 43.9717 87.1964 44.1399 87.5189 44.4763C87.8421 44.8119 88.0032 45.2507 88.0032 45.7906C88.0032 46.3376 87.8436 46.7772 87.5242 47.11C87.204 47.4436 86.7756 47.6096 86.2374 47.6096ZM86.2275 46.9404C86.525 46.9404 86.7741 46.8464 86.9731 46.6577C87.1729 46.469 87.2721 46.1835 87.2721 45.8005C87.2721 45.4295 87.1729 45.1433 86.9731 44.9426C86.7741 44.7412 86.525 44.6409 86.2275 44.6409C85.924 44.6409 85.6773 44.7412 85.4873 44.9426C85.2973 45.1433 85.2019 45.4295 85.2019 45.8005C85.2019 46.1708 85.2973 46.4535 85.4873 46.6485C85.6773 46.8429 85.924 46.9404 86.2275 46.9404Z" fill="#FEFEFF"/>
<path d="M90.8031 44.8105C90.651 44.7292 90.5056 44.6692 90.3663 44.6317C90.227 44.5935 90.0749 44.5752 89.9107 44.5752C89.7464 44.5752 89.6117 44.6063 89.5072 44.6692C89.4028 44.7321 89.3505 44.826 89.3505 44.9518C89.3505 45.0713 89.4103 45.1688 89.5307 45.2444C89.651 45.3193 89.8002 45.3885 89.9773 45.4514C90.1544 45.5143 90.333 45.5864 90.5139 45.6684C90.6941 45.7496 90.8447 45.8549 90.965 45.9843C91.0846 46.1129 91.1452 46.2874 91.1452 46.5072C91.1452 46.84 91.0264 47.11 90.7887 47.3178C90.5518 47.5248 90.2271 47.6287 89.8161 47.6287C89.5564 47.6287 89.3316 47.5828 89.1416 47.4916C88.9517 47.4011 88.8063 47.2859 88.7049 47.1481C88.6034 47.0096 88.5527 46.8711 88.5527 46.7333C88.5527 46.6266 88.5875 46.5729 88.6572 46.5729C88.6822 46.5729 88.7109 46.5885 88.7427 46.6203C88.8631 46.727 89.0024 46.821 89.1606 46.9029C89.3188 46.9849 89.5148 47.0252 89.7495 47.0252C89.9773 47.0252 90.1483 46.9849 90.2619 46.9029C90.3762 46.821 90.4329 46.7114 90.4329 46.5729C90.4329 46.4471 90.3724 46.3468 90.2528 46.2712C90.1324 46.1963 89.9818 46.1284 89.8017 46.0691C89.6207 46.009 89.4406 45.9383 89.2605 45.8571C89.0796 45.7751 88.9297 45.6684 88.8094 45.5363C88.689 45.4041 88.6284 45.2288 88.6284 45.0084C88.6284 44.6755 88.7556 44.4197 89.0084 44.2402C89.262 44.0614 89.5655 43.9717 89.9198 43.9717C90.2301 43.9717 90.4996 44.0282 90.7274 44.1413C90.8538 44.1922 90.9363 44.2565 90.9741 44.3349C91.012 44.4134 91.015 44.5186 90.984 44.6501L90.9552 44.773C90.9492 44.8168 90.9265 44.8388 90.8886 44.8388C90.8757 44.8388 90.8621 44.8359 90.8462 44.8296C90.8303 44.8232 90.816 44.8169 90.8031 44.8105Z" fill="#FEFEFF"/>
<path d="M94.1368 46.045C94.1746 46.3722 94.295 46.6125 94.4971 46.7665C94.6999 46.9199 94.9656 46.9969 95.2948 46.9969C95.5613 46.9969 95.7732 46.9623 95.9314 46.893C96.0896 46.8245 96.2349 46.7425 96.3681 46.6485C96.3931 46.6358 96.4174 46.6203 96.4393 46.6012C96.4613 46.5821 96.4817 46.5729 96.5013 46.5729C96.5324 46.5729 96.5566 46.5871 96.5725 46.6153C96.5877 46.6436 96.596 46.6733 96.596 46.7051C96.596 46.8372 96.5438 46.9736 96.4393 47.1149C96.3349 47.2563 96.1797 47.3743 95.9738 47.4683C95.7679 47.5623 95.5136 47.6096 95.2093 47.6096C94.8997 47.6096 94.6098 47.5453 94.3403 47.4167C94.0716 47.2874 93.8529 47.0895 93.6857 46.8224C93.5176 46.556 93.4336 46.2118 93.4336 45.7906C93.4336 45.4387 93.5032 45.1264 93.6425 44.8529C93.7818 44.5794 93.9763 44.3646 94.2268 44.2077C94.4766 44.0501 94.7665 43.9717 95.0958 43.9717C95.4689 43.9717 95.7702 44.0487 95.998 44.2028C96.2259 44.3568 96.3916 44.5547 96.4961 44.7964C96.6005 45.038 96.6527 45.2946 96.6527 45.5645C96.6527 45.6465 96.6512 45.7157 96.6482 45.7715C96.6452 45.8288 96.6406 45.8818 96.6338 45.932C96.6277 46.0076 96.5801 46.045 96.4915 46.045H94.1368ZM94.1557 45.508H95.9504C95.9564 45.3638 95.9359 45.2225 95.8883 45.084C95.8413 44.9455 95.7543 44.8296 95.6271 44.7349C95.5007 44.6409 95.3206 44.5935 95.086 44.5935C94.8203 44.5935 94.6068 44.6741 94.4448 44.8345C94.2836 44.9942 94.1875 45.2189 94.1557 45.508Z" fill="#FEFEFF"/>
<path d="M101.867 47.0351C101.727 47.2294 101.559 47.3743 101.363 47.4683C101.166 47.5623 100.948 47.6096 100.708 47.6096C100.359 47.6096 100.064 47.5283 99.8198 47.3644C99.5761 47.2011 99.3914 46.9814 99.2642 46.7051C99.1378 46.4288 99.0742 46.1235 99.0742 45.7906C99.0742 45.4387 99.1438 45.1264 99.2831 44.8529C99.4224 44.5794 99.6177 44.3646 99.8675 44.2077C100.117 44.0501 100.407 43.9717 100.736 43.9717C101.002 43.9717 101.235 44.0219 101.434 44.1229C101.633 44.2233 101.79 44.3554 101.904 44.5186C101.936 44.3554 101.999 44.2374 102.094 44.1653C102.189 44.0932 102.309 44.0565 102.455 44.0565H102.502C102.547 44.0565 102.569 44.0847 102.569 44.1413V47.44C102.569 47.4965 102.547 47.5248 102.502 47.5248H101.942C101.892 47.5248 101.867 47.4965 101.867 47.44V47.0351ZM100.812 46.9503C100.97 46.9503 101.13 46.9171 101.292 46.8514C101.453 46.7849 101.589 46.6669 101.7 46.4973C101.811 46.3277 101.867 46.0924 101.867 45.7906C101.867 45.4832 101.811 45.2458 101.7 45.079C101.589 44.913 101.455 44.7985 101.297 44.7349C101.138 44.6727 100.986 44.6409 100.841 44.6409C100.568 44.6409 100.328 44.7349 100.119 44.9235C99.9098 45.1122 99.8054 45.4013 99.8054 45.7906C99.8054 46.0733 99.8577 46.2994 99.9621 46.469C100.067 46.6393 100.197 46.7616 100.352 46.8372C100.507 46.9121 100.66 46.9503 100.812 46.9503Z" fill="#FEFEFF"/>
<path d="M104.27 44.5195C104.365 44.3746 104.503 44.2495 104.683 44.1421C104.864 44.0354 105.08 43.9824 105.334 43.9824C105.612 43.9824 105.853 44.0389 106.055 44.152C106.258 44.2651 106.419 44.422 106.539 44.6234C106.654 44.4594 106.81 44.3117 107.01 44.1803C107.209 44.0481 107.458 43.9824 107.755 43.9824C108.205 43.9824 108.554 44.1174 108.804 44.3873C109.055 44.6573 109.18 45.0247 109.18 45.4897V47.4409C109.18 47.4974 109.154 47.5256 109.103 47.5256H108.553C108.502 47.5256 108.476 47.4974 108.476 47.4409V45.6127C108.476 45.2799 108.401 45.0332 108.249 44.8728C108.097 44.7124 107.891 44.6325 107.632 44.6325C107.359 44.6325 107.143 44.7159 106.981 44.882C106.82 45.0488 106.739 45.3046 106.739 45.6501V47.4409C106.739 47.4974 106.714 47.5256 106.663 47.5256H106.103C106.052 47.5256 106.027 47.4974 106.027 47.4409V45.6127C106.027 45.2799 105.952 45.0332 105.804 44.8728C105.655 44.7124 105.45 44.6325 105.191 44.6325C104.913 44.6325 104.693 44.7159 104.531 44.882C104.369 45.0488 104.289 45.3046 104.289 45.6501V47.4409C104.289 47.4974 104.267 47.5256 104.223 47.5256H103.662C103.612 47.5256 103.586 47.4974 103.586 47.4409V44.1329C103.586 44.0828 103.612 44.0573 103.662 44.0573H103.709C104.026 44.0573 104.213 44.2114 104.27 44.5195Z" fill="#FEFEFF"/>
<path d="M112.805 47.0351C112.666 47.2294 112.498 47.3743 112.302 47.4683C112.106 47.5623 111.887 47.6096 111.647 47.6096C111.299 47.6096 111.003 47.5283 110.759 47.3644C110.515 47.2011 110.33 46.9814 110.204 46.7051C110.076 46.4288 110.014 46.1235 110.014 45.7906C110.014 45.4387 110.083 45.1264 110.223 44.8529C110.362 44.5794 110.556 44.3646 110.806 44.2077C111.057 44.0501 111.346 43.9717 111.675 43.9717C111.941 43.9717 112.174 44.0219 112.373 44.1229C112.573 44.2233 112.729 44.3554 112.843 44.5186C112.875 44.3554 112.938 44.2374 113.033 44.1653C113.128 44.0932 113.249 44.0565 113.394 44.0565H113.442C113.486 44.0565 113.508 44.0847 113.508 44.1413V47.44C113.508 47.4965 113.486 47.5248 113.442 47.5248H112.881C112.831 47.5248 112.805 47.4965 112.805 47.44V47.0351ZM111.751 46.9503C111.91 46.9503 112.069 46.9171 112.231 46.8514C112.392 46.7849 112.528 46.6669 112.639 46.4973C112.75 46.3277 112.805 46.0924 112.805 45.7906C112.805 45.4832 112.75 45.2458 112.639 45.079C112.528 44.913 112.393 44.7985 112.235 44.7349C112.077 44.6727 111.926 44.6409 111.78 44.6409C111.508 44.6409 111.267 44.7349 111.058 44.9235C110.849 45.1122 110.745 45.4013 110.745 45.7906C110.745 46.0733 110.797 46.2994 110.902 46.469C111.006 46.6393 111.135 46.7616 111.291 46.8372C111.446 46.9121 111.599 46.9503 111.751 46.9503Z" fill="#FEFEFF"/>
<path d="M115.209 44.5195C115.304 44.3746 115.441 44.2495 115.622 44.1421C115.802 44.0354 116.02 43.9824 116.272 43.9824C116.551 43.9824 116.792 44.0389 116.994 44.152C117.197 44.2651 117.358 44.422 117.478 44.6234C117.592 44.4594 117.749 44.3117 117.948 44.1803C118.148 44.0481 118.396 43.9824 118.694 43.9824C119.143 43.9824 119.493 44.1174 119.743 44.3873C119.993 44.6573 120.118 45.0247 120.118 45.4897V47.4409C120.118 47.4974 120.093 47.5256 120.043 47.5256H119.492C119.441 47.5256 119.416 47.4974 119.416 47.4409V45.6127C119.416 45.2799 119.339 45.0332 119.188 44.8728C119.036 44.7124 118.83 44.6325 118.57 44.6325C118.298 44.6325 118.081 44.7159 117.92 44.882C117.759 45.0488 117.678 45.3046 117.678 45.6501V47.4409C117.678 47.4974 117.652 47.5256 117.602 47.5256H117.041C116.991 47.5256 116.966 47.4974 116.966 47.4409V45.6127C116.966 45.2799 116.892 45.0332 116.742 44.8728C116.594 44.7124 116.39 44.6325 116.13 44.6325C115.852 44.6325 115.631 44.7159 115.47 44.882C115.309 45.0488 115.228 45.3046 115.228 45.6501V47.4409C115.228 47.4974 115.206 47.5256 115.161 47.5256H114.601C114.55 47.5256 114.525 47.4974 114.525 47.4409V44.1329C114.525 44.0828 114.55 44.0573 114.601 44.0573H114.649C114.965 44.0573 115.152 44.2114 115.209 44.5195Z" fill="#FEFEFF"/>
<path d="M122.719 47.6096C122.182 47.6096 121.752 47.445 121.433 47.1149C121.113 46.7849 120.953 46.3468 120.953 45.8005C120.953 45.2536 121.113 44.8119 121.433 44.4763C121.752 44.1399 122.178 43.9717 122.71 43.9717C123.248 43.9717 123.679 44.1399 124.001 44.4763C124.324 44.8119 124.486 45.2507 124.486 45.7906C124.486 46.3376 124.326 46.7772 124.006 47.11C123.686 47.4436 123.257 47.6096 122.719 47.6096ZM122.71 46.9404C123.007 46.9404 123.256 46.8464 123.456 46.6577C123.655 46.469 123.755 46.1835 123.755 45.8005C123.755 45.4295 123.655 45.1433 123.456 44.9426C123.256 44.7412 123.007 44.6409 122.71 44.6409C122.406 44.6409 122.159 44.7412 121.969 44.9426C121.779 45.1433 121.684 45.4295 121.684 45.8005C121.684 46.1708 121.779 46.4535 121.969 46.6485C122.159 46.8429 122.406 46.9404 122.71 46.9404Z" fill="#FEFEFF"/>
<path d="M127.287 44.8105C127.135 44.7292 126.99 44.6692 126.851 44.6317C126.711 44.5935 126.559 44.5752 126.395 44.5752C126.23 44.5752 126.095 44.6063 125.991 44.6692C125.886 44.7321 125.834 44.826 125.834 44.9518C125.834 45.0713 125.895 45.1688 126.015 45.2444C126.135 45.3193 126.284 45.3885 126.461 45.4514C126.639 45.5143 126.817 45.5864 126.998 45.6684C127.178 45.7496 127.328 45.8549 127.449 45.9843C127.569 46.1129 127.63 46.2874 127.63 46.5072C127.63 46.84 127.511 47.11 127.273 47.3178C127.035 47.5248 126.711 47.6287 126.3 47.6287C126.04 47.6287 125.815 47.5828 125.625 47.4916C125.436 47.4011 125.29 47.2859 125.188 47.1481C125.088 47.0096 125.037 46.8711 125.037 46.7333C125.037 46.6266 125.072 46.5729 125.142 46.5729C125.167 46.5729 125.195 46.5885 125.227 46.6203C125.347 46.727 125.486 46.821 125.645 46.9029C125.803 46.9849 125.999 47.0252 126.233 47.0252C126.461 47.0252 126.632 46.9849 126.746 46.9029C126.86 46.821 126.917 46.7114 126.917 46.5729C126.917 46.4471 126.857 46.3468 126.736 46.2712C126.616 46.1963 126.466 46.1284 126.285 46.0691C126.105 46.009 125.925 45.9383 125.744 45.8571C125.564 45.7751 125.413 45.6684 125.293 45.5363C125.173 45.4041 125.113 45.2288 125.113 45.0084C125.113 44.6755 125.239 44.4197 125.493 44.2402C125.746 44.0614 126.05 43.9717 126.404 43.9717C126.714 43.9717 126.983 44.0282 127.211 44.1413C127.338 44.1922 127.42 44.2565 127.459 44.3349C127.496 44.4134 127.499 44.5186 127.468 44.6501L127.44 44.773C127.433 44.8168 127.411 44.8388 127.373 44.8388C127.36 44.8388 127.346 44.8359 127.33 44.8296C127.314 44.8232 127.3 44.8169 127.287 44.8105Z" fill="#FEFEFF"/>
<path d="M130.64 46.9373H132.607C132.865 46.9373 132.993 47.0568 132.993 47.2949V47.4313C132.993 47.4942 132.962 47.5253 132.899 47.5253H129.953C129.908 47.5253 129.885 47.4998 129.885 47.4489C129.885 47.0963 129.943 46.7981 130.06 46.5536C130.178 46.3091 130.328 46.1035 130.512 45.936C130.695 45.7678 130.888 45.6173 131.091 45.4837C131.294 45.3502 131.488 45.218 131.671 45.0873C131.854 44.9565 132.004 44.8117 132.122 44.6527C132.239 44.4937 132.298 44.2972 132.298 44.0647C132.298 43.8146 132.219 43.6216 132.062 43.4852C131.904 43.3489 131.682 43.2803 131.396 43.2803C131.19 43.2803 130.992 43.3128 130.804 43.3786C130.614 43.4436 130.428 43.5333 130.245 43.6471C130.2 43.6753 130.163 43.6895 130.134 43.6895C130.105 43.6895 130.082 43.6669 130.065 43.6216L130.013 43.4506C129.973 43.3256 129.979 43.2238 130.03 43.1439C130.082 43.0648 130.179 42.9963 130.322 42.9397C130.477 42.8768 130.646 42.8203 130.829 42.7687C131.013 42.7178 131.215 42.6924 131.439 42.6924C131.903 42.6924 132.272 42.8076 132.547 43.0372C132.822 43.2676 132.959 43.6075 132.959 44.0562C132.959 44.3177 132.906 44.546 132.8 44.7424C132.694 44.9382 132.557 45.112 132.388 45.2625C132.219 45.413 132.037 45.5523 131.843 45.6802C131.648 45.8074 131.463 45.9338 131.289 46.0589C131.114 46.184 130.966 46.3162 130.847 46.4554C130.726 46.5946 130.658 46.7557 130.64 46.9373Z" fill="#FEFEFF"/>
<path d="M135.716 46.434H133.526C133.48 46.434 133.457 46.4114 133.457 46.3661V46.0163C133.457 45.9598 133.462 45.9153 133.47 45.8842C133.478 45.8531 133.502 45.8093 133.543 45.752L135.407 42.948C135.436 42.902 135.473 42.8639 135.518 42.8328C135.564 42.8017 135.624 42.7861 135.699 42.7861H135.956C136.077 42.7861 136.174 42.8172 136.249 42.8794C136.323 42.9423 136.36 43.0469 136.36 43.1953V45.846H136.669C136.927 45.846 137.055 45.9683 137.055 46.2128V46.3492C137.055 46.4057 137.024 46.434 136.962 46.434H136.36V47.4487C136.36 47.4996 136.34 47.5251 136.3 47.5251H135.785C135.738 47.5251 135.716 47.4996 135.716 47.4487V46.434ZM134.135 45.846H135.716V43.4681L134.135 45.846Z" fill="#FEFEFF"/>
<path d="M137.922 46.6816C138.054 46.6816 138.164 46.7269 138.253 46.818C138.342 46.9092 138.386 47.0194 138.386 47.1502C138.386 47.2752 138.342 47.3848 138.253 47.4788C138.164 47.5721 138.054 47.6194 137.922 47.6194C137.797 47.6194 137.688 47.5721 137.596 47.4788C137.504 47.3848 137.459 47.2752 137.459 47.1502C137.459 47.0194 137.504 46.9092 137.596 46.818C137.688 46.7269 137.797 46.6816 137.922 46.6816Z" fill="#FEFEFF"/>
<path d="M141.127 43.3826H138.799C138.753 43.3826 138.73 43.3571 138.73 43.3055V42.8625C138.73 42.8116 138.753 42.7861 138.799 42.7861H141.41C141.673 42.7861 141.805 42.9077 141.805 43.1522V43.2462C141.805 43.3197 141.798 43.384 141.784 43.4377C141.769 43.4921 141.745 43.5585 141.71 43.6384L139.958 47.4226C139.93 47.4912 139.884 47.5251 139.821 47.5251H139.297C139.275 47.5251 139.259 47.5166 139.25 47.4996C139.241 47.4827 139.24 47.4657 139.246 47.4487L141.127 43.3826Z" fill="#FEFEFF"/>
</g>
<defs>
<clipPath id="clip0_337_3469">
<rect width="142" height="48" fill="white"/>
</clipPath>
</defs>
</svg>
