<svg xmlns="http://www.w3.org/2000/svg" width="54" height="54" fill="none" viewBox="0 0 54 54"><path fill="#3d3d3d" fill-rule="evenodd" d="M1.07 16.224c0-.76.144-2.81 2.83-2.81l43.108-.016V8.596c0-1.702-1.397-3.081-3.12-3.081H8.926c-1.675 0-2.322.576-2.342 2.23-.018 1.522-1.284 2.742-2.825 2.724S.982 9.201 1 7.68C1.057 3.005 4.193 0 8.926 0h34.962c4.808 0 8.705 3.849 8.705 8.596v7.558q0 .16-.019.316l.223 20.478c.016 1.521-1.221 2.77-2.762 2.786s-2.806-1.206-2.822-2.727l-.196-18.041-40.363.015v26.38c0 1.702 1.397 3.082 3.12 3.082h34.217c1.674 0 3.038-1.33 3.058-2.984.018-1.522 1.284-2.742 2.825-2.724 1.54.018 2.777 1.268 2.758 2.79-.056 4.673-3.909 8.433-8.641 8.433H9.774c-4.807 0-8.704-3.849-8.704-8.596zm26.482 9.843c2.906-2.265 6.88-1.803 9.077.05 2.565 2.163 3.046 6.477.494 10.802-1.1 1.968-3.363 3.982-5.78 5.611a6.77 6.77 0 0 1-7.577.003c-2.42-1.632-4.684-3.645-5.778-5.603-2.559-4.33-2.08-8.648.487-10.814 2.197-1.852 6.171-2.314 9.077-.049m-1.928 4.45c-1.07-1.806-3.177-1.949-4.247-1.046-.478.403-.647 1.035-.647 1.74 0 1.07.398 2.284 1.124 3.509l.032.056c.814 1.471 2.589 2.893 4.399 4.114l.004.003a2.25 2.25 0 0 0 2.526 0l.004-.004c1.81-1.22 3.585-2.642 4.399-4.113l.032-.056c.726-1.225 1.124-2.438 1.124-3.51 0-.704-.169-1.336-.647-1.74-1.07-.902-3.177-.76-4.247 1.046a2.24 2.24 0 0 1-1.928 1.092 2.24 2.24 0 0 1-1.928-1.092" clip-rule="evenodd"/></svg>