<svg xmlns="http://www.w3.org/2000/svg" width="64" height="64" fill="none" viewBox="0 0 64 64"><g clip-path="url(#clip0_84_797)"><path fill="#ff943d" d="M53.496 34.504a4 4 0 0 1 0 5.656 4 4 0 0 1-5.656 0 4 4 0 0 1 5.656-5.656m6.208 14.53c-3.117 3.12-7.45 4.625-11.768 4.227l-8.355 8.355a8.05 8.05 0 0 1-5.656 2.344h-4.57c-2.923 0-5.312-2.381-5.326-5.307l-.024-5.301a3.97 3.97 0 0 1 1.166-2.837 3.97 3.97 0 0 1 2.834-1.179h1.307l.01-1.365a4.01 4.01 0 0 1 4-3.968h2.033v-1.048c-1.894-6.163.362-12.704 5.701-16.4 4.813-3.336 11.317-3.43 16.19-.248 3.783 2.472 6.215 6.424 6.674 10.842a14.6 14.6 0 0 1-4.216 11.891zm-1.088-11.34c-.293-2.854-1.819-5.315-4.285-6.926-3.078-2.01-7.19-1.941-10.238.165-3.485 2.416-4.912 6.731-3.546 10.739.096.277.144.568.144.859v4.133a2.664 2.664 0 0 1-2.667 2.667h-3.373l-.019 2.688a2.667 2.667 0 0 1-2.667 2.645h-2.613l.016 3.96h4.563a2.68 2.68 0 0 0 1.885-.781l9.299-9.299a2.64 2.64 0 0 1 2.402-.728 9.32 9.32 0 0 0 8.419-2.552 9.3 9.3 0 0 0 2.68-7.57M5.333 16c0-8.824 7.176-16 16-16s16 7.176 16 16-7.176 16-16 16-16-7.176-16-16m5.334 0c0 5.883 4.784 10.667 10.666 10.667S32 21.883 32 16 27.216 5.333 21.333 5.333c-5.882 0-10.666 4.784-10.666 10.667M26.64 40.568a2.667 2.667 0 0 0-2.261-3.019 21.5 21.5 0 0 0-3.046-.216C9.571 37.333 0 46.904 0 58.667v2.666a2.666 2.666 0 1 0 5.333 0v-2.666c0-8.824 7.176-16 16-16 .766 0 1.534.056 2.288.165 1.451.195 2.811-.805 3.019-2.264"/></g><defs><clipPath id="clip0_84_797"><path fill="#fff" d="M0 0h64v64H0z"/></clipPath></defs></svg>