<svg xmlns="http://www.w3.org/2000/svg" width="22" height="22" fill="none" viewBox="0 0 22 22"><path fill="#ff943d" d="M22 6.417V4.583h-1.833a2.753 2.753 0 0 0-2.75-2.75V0h-1.834v1.833H13.75V0h-1.833v1.833h-1.834V0H8.25v1.833H6.417V0H4.583v1.833a2.753 2.753 0 0 0-2.75 2.75H0v1.834h1.833V8.25H0v1.833h1.833v1.834H0v1.833h1.833v1.833H0v1.834h1.833v2.75h2.75V22h1.834v-1.833H8.25V22h1.833v-1.833h1.834V22h1.833v-1.833h1.833V22h1.834v-1.833h2.75v-2.75H22v-1.834h-1.833V13.75H22v-1.833h-1.833v-1.834H22V8.25h-1.833V6.417zm-3.667 11.916H3.667V4.583c0-.506.411-.916.916-.916h12.834c.505 0 .916.41.916.916zM9.97 6.582c-1.204-.505-2.43.202-2.693 1.336L5.5 15.583h1.882l.213-.916h3.144l.212.916h1.882l-1.761-7.6c-.142-.607-.528-1.16-1.102-1.4zm-1.95 6.251 1.043-4.5a.106.106 0 0 1 .104-.083c.05 0 .092.034.103.082l1.043 4.501zm5.73-6.416h1.833v9.166H13.75z"/></svg>