<svg xmlns="http://www.w3.org/2000/svg" width="124" height="124" fill="none" viewBox="0 0 124 124"><g clip-path="url(#clip0_87_787)"><path fill="#ff943d" d="M18.342 100.714c8.829 5.098 20.108 2.075 25.205-6.754a18.4 18.4 0 0 0 2.034-13.208l40.14-10.756a18.4 18.4 0 0 0 8.33 10.296c8.83 5.098 20.11 2.075 25.207-6.754 5.098-8.828 2.075-20.108-6.753-25.205a18.41 18.41 0 0 0-6.847-25.046c-8.829-5.098-20.108-2.075-25.206 6.753a18.4 18.4 0 0 0-2.033 13.21l-40.14 10.755a18.4 18.4 0 0 0-8.331-10.297c-8.83-5.098-20.11-2.075-25.207 6.754-5.097 8.828-2.075 20.109 6.754 25.206a18.41 18.41 0 0 0 6.847 25.046m31.57-31.506q-.983.263-1.838.028a3.1 3.1 0 0 1-1.487-.956q-.627-.707-.931-1.842-.31-1.16-.096-2.093.211-.945.844-1.593.646-.653 1.628-.915.523-.14.942-.156.42-.017.789.034.418.08.565.272.16.19.185.539l.01.34q-.015.153-.09.174a.5.5 0 0 1-.21-.013 4 4 0 0 0-.879-.12q-.417-.025-.965.122-.945.253-1.363 1.036-.423.77-.085 2.031.329 1.225 1.093 1.677.763.45 1.719.195.675-.18 1.09-.579.412-.398.58-.743.043-.094.078-.117a.24.24 0 0 1 .095-.052q.19-.052.273.254.058.217.013.557t-.258.725q-.201.37-.618.7-.408.314-1.085.495m15.158-4.061q-.981.262-1.838.027a3.1 3.1 0 0 1-1.486-.956q-.627-.706-.931-1.842-.312-1.16-.096-2.093.211-.946.845-1.593.645-.653 1.627-.915.523-.14.943-.156.419-.017.787.034.418.08.566.272.16.19.186.539l.009.34q-.015.153-.091.173a.5.5 0 0 1-.209-.012 4 4 0 0 0-.88-.12q-.416-.025-.964.122-.945.253-1.364 1.036-.422.77-.084 2.032.328 1.224 1.092 1.675t1.72.196q.676-.18 1.09-.578.412-.399.58-.744.042-.094.077-.117a.24.24 0 0 1 .095-.053q.192-.051.274.255.058.217.013.557t-.257.725q-.202.37-.62.7-.407.315-1.084.496m6.453-1.73q-1.581.424-2.712-.326-1.134-.763-1.585-2.446-.3-1.122-.127-2.058t.793-1.579q.63-.66 1.662-.938 1.047-.28 1.897-.016.86.249 1.476.972.618.723.92 1.845.45 1.684-.15 2.91-.593 1.213-2.174 1.636m18.699-5.01a4 4 0 0 1-1.824.078q-.88-.174-1.56-.867-.675-.693-1.021-1.982-.304-1.135-.103-2.064.2-.942.86-1.584.673-.658 1.743-.945.536-.143.969-.164.44-.035.835.009.42.037.594.223.172.187.166.571l.015.31q.006.176-.096.203a.2.2 0 0 1-.097-.001.3.3 0 0 0-.127-.02 3.7 3.7 0 0 0-1.851.031q-1.045.281-1.494 1.057-.44.76-.084 2.086.31 1.162 1.034 1.665.72.49 1.714.224.408-.11.725-.305.317-.194.609-.532l-.335-1.25-.982.264q-.74.198-.93-.516l-.062-.23q-.051-.19.115-.236l2.589-.693q.14-.037.184.128l.67 2.5a.8.8 0 0 1 .028.307.8.8 0 0 1-.143.284 4.1 4.1 0 0 1-.93.92q-.51.34-1.211.53m7.048-1.888q-1.581.423-2.712-.327-1.135-.762-1.585-2.446-.301-1.122-.128-2.057.173-.936.794-1.58.63-.66 1.663-.938 1.045-.28 1.895-.015a3 3 0 0 1 1.477.97q.618.724.919 1.846.45 1.685-.15 2.91-.59 1.212-2.173 1.637M24.833 75.79q-.14.038-.177-.102l-1.822-6.798q-.041-.153.099-.191l2.436-.653q1.097-.294 1.814.034.73.324.962 1.19.18.678-.068 1.127-.249.45-.609.737.637-.02 1.143.336.502.345.672.982.254.944-.19 1.637-.446.68-1.607.99zm6.204-1.662q-.14.038-.178-.102l-1.822-6.798q-.04-.153.1-.191l2.448-.657q1.34-.358 2.135.112.793.458 1.067 1.478.215.804-.03 1.471a2.26 2.26 0 0 1-.815 1.093l2.147 2.091q.038.044.027.102-.003.041-.066.058l-1.072.287q-.204.055-.334-.074l-1.894-1.967-1.263.339.622 2.321q.037.14-.103.178zm6.364-1.705q-.14.037-.178-.102l-1.821-6.798q-.041-.154.099-.192l.115-.03q.498-.134.808.057.324.186.485.786l1.565 5.842q.037.14-.103.177zm2.69-.721q-.14.038-.178-.102l-1.821-6.798q-.04-.154.1-.192l.382-.102q.396-.105.654-.01.255.082.547.358l3.668 3.487-1.244-4.642q-.04-.153.1-.191l.101-.027q.498-.134.821.053.324.187.485.787l1.565 5.841q.037.14-.103.178l-.905.242a.33.33 0 0 1-.326-.09l-3.993-3.783 1.22 4.554q.037.14-.103.177zm12.678-3.397q-.063.017-.1-.014a.15.15 0 0 1-.04-.098l.647-7.487q.003-.138.118-.17l.422-.112q.459-.123.765 0t.661.63l3.791 5.423q.039.044.027.102-.015.044-.08.062l-1.007.27q-.191.05-.286-.1l-1.008-1.467-2.64.707-.14 1.775q-.007.178-.148.216zm23.166-6.207q-.116.03-.153-.109l-1.439-6.9q-.04-.154.087-.189l.727-.194q.408-.11.684-.047.276.062.479.405l2.589 4.255.128-5.489a.3.3 0 0 1 .037-.12q.025-.06.1-.081l.714-.191a.92.92 0 0 1 .672.052q.312.15.424.516l1.98 6.059q.037.14-.053.163l-1.007.27q-.127.035-.165-.105l-1.601-4.903-.16 5.375q.013.146-.128.184l-.943.252q-.09.024-.204-.095l-2.751-4.553 1.054 5.008q.038.14-.076.17zm8.438-2.261q-.14.037-.178-.102l-1.821-6.798q-.042-.154.099-.192l.114-.03q.498-.134.809.057.324.187.484.786l1.565 5.842q.037.14-.103.177zM71.205 62.23q.55-.147.95-.487.398-.352.535-.964.134-.623-.12-1.567-.252-.944-.68-1.417-.427-.474-.961-.577a2.3 2.3 0 0 0-1.057.038 2.4 2.4 0 0 0-.958.502q-.398.353-.532.977t.12 1.567q.252.945.68 1.417.425.46.945.567a2.5 2.5 0 0 0 1.078-.056m25.747-6.9q.549-.146.95-.486.397-.352.534-.963.135-.624-.119-1.568-.253-.943-.68-1.417-.429-.473-.961-.576a2.3 2.3 0 0 0-1.057.037 2.4 2.4 0 0 0-.959.503q-.398.352-.53.976-.135.624.118 1.568.253.943.68 1.416.425.46.945.567.53.09 1.08-.056M26.25 70.873q.497-.132.63-.456.144-.326.045-.695-.102-.382-.407-.547-.29-.168-.8-.031l-1.378.369.468 1.747zm6.37-1.036q.51-.137.812-.492.299-.367.117-1.042-.147-.549-.566-.737-.42-.189-.969-.042l-1.454.39.62 2.309zm21.727-7.94-.21 2.994 1.9-.509zM27.052 74.02a3 3 0 0 0 .497-.189.9.9 0 0 0 .396-.406q.146-.272.017-.757a1.1 1.1 0 0 0-.48-.664q-.362-.232-.974-.067l-1.416.379.557 2.08z"/></g><defs><clipPath id="clip0_87_787"><path fill="#fff" d="M0 124h124V0H0z"/></clipPath></defs></svg>