<svg xmlns="http://www.w3.org/2000/svg" width="64" height="64" fill="none" viewBox="0 0 64 64"><path fill="#3d3d3d" fill-rule="evenodd" d="M37.42 47.422a1.576 1.576 0 0 1-2.024-.92 1.565 1.565 0 0 1 .923-2.014L43 42.005c.813-.302 1.72.11 2.024.92.303.81-.11 1.712-.924 2.015zM15.727 40.38a.589.589 0 0 1 1.18 0v1.384a.52.52 0 0 0 .521.52h.001a.52.52 0 0 0 .522-.52v-1.346a.589.589 0 0 1 1.18 0v1.346a1.704 1.704 0 0 1-2.905 1.198 1.7 1.7 0 0 1-.499-1.198z" clip-rule="evenodd"/><path fill="#3d3d3d" fill-rule="evenodd" d="M15.551 32.963c-2.327 3.637-3.332 7.802-3.133 11.269.15 2.607.872 4.848 2.626 5.641 1.101.498 2.504.285 4.22-.546a2.47 2.47 0 0 1 3.296 1.134 2.45 2.45 0 0 1-1.14 3.283c-3.402 1.647-6.232 1.59-8.416.601-3.176-1.436-5.239-5.111-5.51-9.832-.213-3.706.838-8.682 2.906-12.77-.611-.497-1.11-1.254-1.067-2.447.039-1.064.879-2.637 1.706-3.923 1.673-2.602 4.43-5.652 6.144-6.94 1.331-1.214 3.391-2.163 5.833-2.812l-1.65-1.806a1.56 1.56 0 0 1-.393-1.275c.37-2.585 2.33-4.137 4.644-4.637 2.155-.466 4.567.045 6.034 1.31 1.605.182 3.211.73 4.781 1.55a1.76 1.76 0 0 1 .854 2.125l-.711 2.094c4.013.587 7.578 1.846 9.592 3.68 2.835 2.579 4.63 6.505 4.81 9.552.007.117.001.417-.014.53 3.642 4.862 5.511 10.763 5.528 15.637.018 4.782-1.783 8.565-4.853 10.163-2.103 1.096-4.926 1.306-8.474-.162a2.453 2.453 0 0 1-1.331-3.21 2.47 2.47 0 0 1 3.223-1.325c1.804.746 3.227.902 4.296.345 1.69-.88 2.217-3.16 2.207-5.794-.014-4.062-1.605-9.046-4.732-13.054-2.477.67-5.166.771-7.96.632-3.683-.184-7.556-.777-11.298-.737-2.55.027-5.378.858-8.179 1.341-1.293.224-2.58.374-3.839.383m9.105-14.186c-2.165.475-3.99 1.225-5.121 2.29q-.08.076-.17.142c-1.179.862-2.955 2.773-4.372 4.669q-.149.198-.291.396c-.783 1.086-1.45 2.118-1.683 2.892 1.02.281 2.091.336 3.186.27.443-1.322 1.61-3.828 4.54-6.36 1.48-1.28 2.96-2.983 3.91-4.3M19.89 28.905c2.627-.51 5.25-1.164 7.64-1.19q1.175-.01 2.363.047c.547-1.614.964-2.322.327-3.648a1.564 1.564 0 0 1 .74-2.089 1.577 1.577 0 0 1 2.097.737c.929 1.933.746 3.057.064 5.222 1.996.17 3.985.376 5.922.473.765.038 1.521.06 2.266.054-.173-1.308-.79-3.206-3.022-5.19-1.206-1.072-3.196-3.761-4.35-5.1a38 38 0 0 0-2.407-.09 37 37 0 0 0-2.95.096q-.046.15-.117.309c-.596 1.351-3.096 4.69-5.658 6.905-1.454 1.257-2.36 2.489-2.915 3.464m6.211-14.56-.432-2.502a1.75 1.75 0 0 1 .021-.704c-.606.233-1.133.623-1.414 1.208zm3.642.296a37 37 0 0 1 3.21.001l.47-1.38c-1.33-.51-2.678-.736-4.004-.496zM44.45 28.267c.984-.16 1.934-.413 2.84-.791-.27-1.307-.858-2.746-1.696-4.044a11 11 0 0 0-1.815-2.17c-1.209-1.1-3.106-1.887-5.33-2.398.706.853 1.396 1.644 1.933 2.12 3.133 2.786 3.872 5.485 4.068 7.283" clip-rule="evenodd"/><path fill="#3d3d3d" fill-rule="evenodd" d="M23.113 39.659a1.96 1.96 0 0 1-1.965-1.958c0-1.08.88-1.957 1.965-1.957h4.618c1.085 0 1.966.877 1.966 1.957s-.88 1.958-1.966 1.958zm13.127-.033a1.963 1.963 0 0 1-1.965-1.957c0-1.08.88-1.958 1.966-1.958h4.618c1.085 0 1.965.877 1.965 1.958s-.88 1.957-1.965 1.957zm-4.245 6.845c.27.004.582.174.75.288 1.525 1.03 3.348 1.176 5.393.39 1.83-.704.83-3.346-.241-2.889-1.914.817-2.764.096-4.902-1.121-.314-.179-.78-.196-.974-.196h-.008c-.194 0-.66.017-.973.196-2.138 1.216-2.945 1.828-4.902 1.121-1.358-.49-2.123 2.185-.294 2.889 2.045.786 3.868.64 5.392-.39.169-.114.48-.285.75-.288zm12.579-6.976a3.396 3.396 0 0 1 2.743 3.944 3.41 3.41 0 0 1-3.962 2.732 3.396 3.396 0 0 1-2.743-3.945 3.41 3.41 0 0 1 3.962-2.731" clip-rule="evenodd"/></svg>