<svg xmlns="http://www.w3.org/2000/svg" width="54" height="54" fill="none" viewBox="0 0 54 54"><path fill="#3d3d3d" fill-rule="evenodd" d="M33.524 32.207c-.514-1.016-2.54-.991-3.113 0-.61 1.053-.544 2.23 0 3.3.494.971 2.496 1.147 3.113 0 .586-1.09.527-2.26 0-3.3m-10.139 0c-.506-1.016-2.494-.991-3.057 0-.598 1.053-.534 2.23 0 3.3.485.971 2.451 1.147 3.057 0 .574-1.09.517-2.26 0-3.3m3.639 9.343c-.238.003-.512.153-.662.255-1.341.91-2.946 1.04-4.747.344-1.61-.622-.73-2.958.213-2.554 1.685.722 2.433.085 4.316-.991.276-.158.686-.173.857-.173h.007c.17 0 .58.015.857.173 1.882 1.076 2.592 1.617 4.316.991 1.195-.434 1.869 1.932.258 2.554-1.8.695-3.405.566-4.747-.344-.149-.102-.423-.252-.661-.255z" clip-rule="evenodd"/><path fill="#3d3d3d" fill-rule="evenodd" d="M26.964 21.612c2.204-.049 3.816.13 5.927.542l5.022-3.148a2.17 2.17 0 0 1 3.078.835c4.766 9.126 5.259 18.537-.374 25.668-.87 1.103-1.933 1.956-2.965 2.75a2.172 2.172 0 0 1-2.648-3.44c.76-.586 1.564-1.189 2.206-2.001 4.164-5.273 3.923-12.073.953-18.844l-3.7 2.32c-.476.297-1.048.4-1.597.285-2.051-.428-3.483-.644-5.41-.631a2 2 0 0 1-.313.012l-.179-.005-.178.006a2 2 0 0 1-.314-.013c-1.926-.013-3.358.203-5.41.63a2.17 2.17 0 0 1-1.596-.285l-3.7-2.319c-2.97 6.77-3.211 13.571.953 18.844.641.812 1.446 1.415 2.206 2a2.172 2.172 0 0 1-2.649 3.441c-1.031-.794-2.093-1.647-2.965-2.75-5.632-7.13-5.14-16.542-.373-25.668a2.17 2.17 0 0 1 3.077-.835l5.023 3.148c2.11-.411 3.723-.59 5.926-.542" clip-rule="evenodd"/></svg>