<svg xmlns="http://www.w3.org/2000/svg" width="56" height="56" fill="none" viewBox="0 0 56 56"><path fill="#3d3d3d" fill-rule="evenodd" d="M52.02 45.336h.916a2.77 2.77 0 0 1 2.777 2.758 2.77 2.77 0 0 1-2.777 2.758H2.778A2.77 2.77 0 0 1 0 48.094a2.77 2.77 0 0 1 2.778-2.758h.752V22.075c0-2.283 1.867-4.137 4.167-4.137s4.166 1.854 4.166 4.137v23.261h4.497V15.37c0-2.283 1.867-4.136 4.166-4.136s4.167 1.853 4.167 4.136v29.967h5.115V23.135c0-2.283 1.867-4.137 4.166-4.137s4.167 1.854 4.167 4.137v22.201h5.546v-36.2C43.687 6.855 45.554 5 47.853 5s4.167 1.854 4.167 4.137z" clip-rule="evenodd"/></svg>