<svg xmlns="http://www.w3.org/2000/svg" width="54" height="54" fill="none" viewBox="0 0 54 54"><path fill="#3d3d3d" fill-rule="evenodd" d="M17.156 41.636c7.014 2.597 12.964 2.299 17.63.228 7.121-3.162 11.172-10.324 11.172-16.462 0-10.258-8.323-18.586-18.574-18.586-10.25 0-18.573 8.328-18.573 18.586a3.41 3.41 0 0 1-3.406 3.408A3.41 3.41 0 0 1 2 25.402C2 11.382 13.374 0 27.384 0s25.384 11.383 25.384 25.402c0 8.43-5.44 18.35-15.22 22.692-5.945 2.639-13.522 3.277-22.442.05l1.034 2.306a2.433 2.433 0 1 1-4.439 1.993l-4.045-9.024a2.435 2.435 0 0 1 1.17-3.192l8.326-3.986a2.433 2.433 0 1 1 2.1 4.392zm22.38-12.038a4.838 4.838 0 1 1-.026-9.2.384.384 0 0 1 .003.731 4.073 4.073 0 0 0 .021 7.738.384.384 0 0 1 .003.731m-18.228-7.926a3.516 3.516 0 0 1 0 7.031 3.516 3.516 0 0 1 0-7.03m4.682.202a.73.73 0 1 1-1.031-1.033l1.463-1.464a.73.73 0 1 1 1.032 1.033zm-1.226 8.063a.73.73 0 1 1 1.032-1.033l1.463 1.465a.73.73 0 0 1-1.032 1.032zm-7.171-9.095a.73.73 0 0 1-1.032 1.032l-1.464-1.464a.73.73 0 0 1 1.032-1.033zm-.837 8.062a.73.73 0 1 1 1.032 1.033l-1.464 1.465a.73.73 0 1 1-1.032-1.033zm10.66-4.115a.73.73 0 0 1 0 1.46h-.463a.73.73 0 0 1 0-1.46zm-11.75 0a.73.73 0 0 1 0 1.46h-.463a.73.73 0 0 1 0-1.46zm4.913-5.63a.73.73 0 0 1 1.46 0v.463a.73.73 0 0 1-1.46 0zm0 11.856a.73.73 0 1 1 1.46 0v.463a.73.73 0 1 1-1.46 0z" clip-rule="evenodd"/></svg>