<svg xmlns="http://www.w3.org/2000/svg" width="64" height="54" fill="none" viewBox="0 0 64 54"><g clip-path="url(#clip0_83_828)"><path fill="#3d3d3d" fill-rule="evenodd" d="M59.601 27.725c-.842-2.027-2.842-3.473-5.203-3.54l-7.471-.214a6.28 6.28 0 0 1-5.019-2.73c-.865-1.275-2.054-3.529-3.145-5.136-1.423-2.096-3.82-3.357-6.387-3.36-1.968-.003-6.887-.007-10.773-.01a3.44 3.44 0 0 0-2.415.978c-.64.628-1 1.48-1.001 2.367l-.001 1.36c0 1.03-.854 1.867-1.905 1.867-1.05 0-1.904-.838-1.903-1.868v-1.36a7 7 0 0 1 2.12-5.008A7.3 7.3 0 0 1 21.605 9l10.775.01c3.84.005 7.424 1.89 9.552 5.026 1.091 1.607 2.28 3.861 3.145 5.136a2.45 2.45 0 0 0 1.96 1.065l7.47.214c5.161.148 9.28 4.268 9.327 9.331.042 4.437.087 7.683.087 7.683.008.498-.189.978-.544 1.334a1.92 1.92 0 0 1-1.35.56l-6.423.033a6.8 6.8 0 0 1-1.86 3.28 7.05 7.05 0 0 1-4.934 2.005c-3.3 0-6.063-2.257-6.77-5.282-4.502-.014-16.575-.046-20.972-.012-.825 3.057-3.65 5.4-6.988 5.4h-.067c-3.254 0-5.974-2.278-6.577-5.306l-5.515-.017c-1.043-.004-1.89-.832-1.897-1.857 0 0-.011-1.977-.024-5.791-.02-6.085 4.934-11.065 11.138-11.193 2.573-.053 25.799-.09 25.799-.09 1.05-.002 1.905.834 1.907 1.864s-.85 1.869-1.901 1.87c0 0-23.158.036-25.724.09-4.128.085-7.424 3.398-7.41 7.446l.014 3.932 5.389.017c1.037.004 1.88.82 1.897 1.837l.011.67c.026 1.55 1.314 2.793 2.894 2.793h.067c1.904 0 3.422-1.63 3.422-3.497 0-.31.049-1.532 1.526-1.832.067-.013.427-.051 1.031-.06 3.953-.06 23.716.007 23.716.007 1.049.004 1.897.839 1.897 1.867v.333c0 1.699 1.405 3.076 3.137 3.076a3.2 3.2 0 0 0 2.241-.91 3.08 3.08 0 0 0 .929-2.198v-.3c0-1.028.846-1.862 1.894-1.868l6.216-.032c-.013-1.053-.03-2.492-.047-4.175H58.48c-1.05 0-1.904-.837-1.904-1.867s.853-1.867 1.904-1.867z" clip-rule="evenodd"/></g><defs><clipPath id="clip0_83_828"><path fill="#fff" d="M0 0h64v54H0z"/></clipPath></defs></svg>