<svg xmlns="http://www.w3.org/2000/svg" width="22" height="22" fill="none" viewBox="0 0 22 22"><g clip-path="url(#clip0_15_615)"><g filter="url(#filter0_dii_15_615)"><path fill="#fff5ee" d="m2.5 20.5 2 .5h1l1-1v-3.5H11v-8L5.5 8 3 10.5z"/></g><g filter="url(#filter1_dii_15_615)"><path fill="#fff5ee" d="M11 16.5v-8l.5-.5 6 3-1 6.5-.5 3-1.5.5-1.5-1v-3.5z"/></g><g filter="url(#filter2_dii_15_615)"><path fill="#fff5ee" d="M17.5 11 12 8l1.5-4.5H17l1 1 2 1 1.5 1-1 2.5-2 1z"/></g><path fill="#ff943d" d="M19.816 4.58a.74.74 0 0 1-.664-.41 2.56 2.56 0 0 0-2.304-1.424h-1.267V.702a.702.702 0 0 0-.93-.665 2.75 2.75 0 0 0-1.82 2.588v1.65l-.883 2.449a1 1 0 0 1-.115.209L2.366.17A.916.916 0 1 0 1.3 1.663L9.235 7.33l-2.821.001c-.997 0-1.913.33-2.666.873-.531-.24-1.916-1.022-1.916-2.709a.917.917 0 0 0-1.833 0c0 2.28 1.479 3.527 2.48 4.112a4.53 4.53 0 0 0-.646 2.309l.002 7.335A2.75 2.75 0 0 0 4.585 22a2.75 2.75 0 0 0 2.748-2.749v-1.835l4.584-.003v1.834a2.754 2.754 0 0 0 2.754 2.75 2.75 2.75 0 0 0 2.75-2.75v-2.535c0-.383.04-.768.12-1.143l.973-4.578A3.67 3.67 0 0 0 22 7.329V6.87c0-1.68-1.306-2.291-2.184-2.291zM6.415 15.583a.917.917 0 0 0-.917.917v2.751a.917.917 0 0 1-1.831 0l-.002-7.335a2.754 2.754 0 0 1 2.748-2.751l3.668-.002v6.418l-3.668.002zm9.17 1.129v2.535a.918.918 0 0 1-1.837 0v-2.75a.92.92 0 0 0-.917-.917h-.915V9.295l4.553 2.483-.725 3.41a7.3 7.3 0 0 0-.16 1.525zm4.58-9.382a1.835 1.835 0 0 1-1.833 1.833c-.576 0-1.095.314-1.381.79L13.336 7.98c.136-.195.253-.405.337-.635l.998-2.766h2.177c.284 0 .537.156.664.41a2.56 2.56 0 0 0 2.303 1.423c.35 0 .35.333.35.458z"/></g><defs><filter id="filter0_dii_15_615" width="24.5" height="29" x="-5.5" y="4" color-interpolation-filters="sRGB" filterUnits="userSpaceOnUse"><feFlood flood-opacity="0" result="BackgroundImageFix"/><feColorMatrix in="SourceAlpha" result="hardAlpha" values="0 0 0 0 0 0 0 0 0 0 0 0 0 0 0 0 0 0 127 0"/><feOffset dy="4"/><feGaussianBlur stdDeviation="4"/><feComposite in2="hardAlpha" operator="out"/><feColorMatrix values="0 0 0 0 1 0 0 0 0 0.705882 0 0 0 0 0.466667 0 0 0 0.15 0"/><feBlend in2="BackgroundImageFix" result="effect1_dropShadow_15_615"/><feBlend in="SourceGraphic" in2="effect1_dropShadow_15_615" result="shape"/><feColorMatrix in="SourceAlpha" result="hardAlpha" values="0 0 0 0 0 0 0 0 0 0 0 0 0 0 0 0 0 0 127 0"/><feOffset/><feGaussianBlur stdDeviation="1"/><feComposite in2="hardAlpha" k2="-1" k3="1" operator="arithmetic"/><feColorMatrix values="0 0 0 0 1 0 0 0 0 0.835827 0 0 0 0 0.702299 0 0 0 0.6 0"/><feBlend in2="shape" result="effect2_innerShadow_15_615"/><feColorMatrix in="SourceAlpha" result="hardAlpha" values="0 0 0 0 0 0 0 0 0 0 0 0 0 0 0 0 0 0 127 0"/><feOffset dy="-2"/><feGaussianBlur stdDeviation="2"/><feComposite in2="hardAlpha" k2="-1" k3="1" operator="arithmetic"/><feColorMatrix values="0 0 0 0 1 0 0 0 0 0.607607 0 0 0 0 0.288462 0 0 0 0.25 0"/><feBlend in2="effect2_innerShadow_15_615" result="effect3_innerShadow_15_615"/></filter><filter id="filter1_dii_15_615" width="22.5" height="29" x="3" y="4" color-interpolation-filters="sRGB" filterUnits="userSpaceOnUse"><feFlood flood-opacity="0" result="BackgroundImageFix"/><feColorMatrix in="SourceAlpha" result="hardAlpha" values="0 0 0 0 0 0 0 0 0 0 0 0 0 0 0 0 0 0 127 0"/><feOffset dy="4"/><feGaussianBlur stdDeviation="4"/><feComposite in2="hardAlpha" operator="out"/><feColorMatrix values="0 0 0 0 1 0 0 0 0 0.705882 0 0 0 0 0.466667 0 0 0 0.15 0"/><feBlend in2="BackgroundImageFix" result="effect1_dropShadow_15_615"/><feBlend in="SourceGraphic" in2="effect1_dropShadow_15_615" result="shape"/><feColorMatrix in="SourceAlpha" result="hardAlpha" values="0 0 0 0 0 0 0 0 0 0 0 0 0 0 0 0 0 0 127 0"/><feOffset/><feGaussianBlur stdDeviation="1"/><feComposite in2="hardAlpha" k2="-1" k3="1" operator="arithmetic"/><feColorMatrix values="0 0 0 0 1 0 0 0 0 0.835827 0 0 0 0 0.702299 0 0 0 0.6 0"/><feBlend in2="shape" result="effect2_innerShadow_15_615"/><feColorMatrix in="SourceAlpha" result="hardAlpha" values="0 0 0 0 0 0 0 0 0 0 0 0 0 0 0 0 0 0 127 0"/><feOffset dy="-2"/><feGaussianBlur stdDeviation="2"/><feComposite in2="hardAlpha" k2="-1" k3="1" operator="arithmetic"/><feColorMatrix values="0 0 0 0 1 0 0 0 0 0.607607 0 0 0 0 0.288462 0 0 0 0.25 0"/><feBlend in2="effect2_innerShadow_15_615" result="effect3_innerShadow_15_615"/></filter><filter id="filter2_dii_15_615" width="25.5" height="23.5" x="4" y="-.5" color-interpolation-filters="sRGB" filterUnits="userSpaceOnUse"><feFlood flood-opacity="0" result="BackgroundImageFix"/><feColorMatrix in="SourceAlpha" result="hardAlpha" values="0 0 0 0 0 0 0 0 0 0 0 0 0 0 0 0 0 0 127 0"/><feOffset dy="4"/><feGaussianBlur stdDeviation="4"/><feComposite in2="hardAlpha" operator="out"/><feColorMatrix values="0 0 0 0 1 0 0 0 0 0.705882 0 0 0 0 0.466667 0 0 0 0.15 0"/><feBlend in2="BackgroundImageFix" result="effect1_dropShadow_15_615"/><feBlend in="SourceGraphic" in2="effect1_dropShadow_15_615" result="shape"/><feColorMatrix in="SourceAlpha" result="hardAlpha" values="0 0 0 0 0 0 0 0 0 0 0 0 0 0 0 0 0 0 127 0"/><feOffset/><feGaussianBlur stdDeviation="1"/><feComposite in2="hardAlpha" k2="-1" k3="1" operator="arithmetic"/><feColorMatrix values="0 0 0 0 1 0 0 0 0 0.835827 0 0 0 0 0.702299 0 0 0 0.6 0"/><feBlend in2="shape" result="effect2_innerShadow_15_615"/><feColorMatrix in="SourceAlpha" result="hardAlpha" values="0 0 0 0 0 0 0 0 0 0 0 0 0 0 0 0 0 0 127 0"/><feOffset dy="-2"/><feGaussianBlur stdDeviation="2"/><feComposite in2="hardAlpha" k2="-1" k3="1" operator="arithmetic"/><feColorMatrix values="0 0 0 0 1 0 0 0 0 0.607607 0 0 0 0 0.288462 0 0 0 0.25 0"/><feBlend in2="effect2_innerShadow_15_615" result="effect3_innerShadow_15_615"/></filter><clipPath id="clip0_15_615"><path fill="#fff" d="M0 0h22v22H0z"/></clipPath></defs></svg>