<svg xmlns="http://www.w3.org/2000/svg" width="54" height="54" fill="none" viewBox="0 0 54 54"><path fill="#ff8f57" fill-rule="evenodd" d="M31.053 34.903a1.36 1.36 0 0 1-1.82.613 1.354 1.354 0 0 1-.614-1.816c.657-1.325 2.092-2.151 3.595-2.233 1.513-.082 3.052.569 3.884 2.05a1.354 1.354 0 0 1-.52 1.845 1.36 1.36 0 0 1-1.849-.52c-.288-.513-.843-.697-1.366-.669-.533.03-1.077.26-1.31.73m-11.263.122a1.36 1.36 0 0 1-1.82.613 1.354 1.354 0 0 1-.614-1.816c.657-1.325 2.091-2.151 3.595-2.233 1.513-.083 3.052.568 3.884 2.05a1.354 1.354 0 0 1-.52 1.844 1.36 1.36 0 0 1-1.85-.519c-.288-.513-.842-.697-1.366-.669-.532.03-1.076.26-1.31.73m7.218 6.379c.228.003.49.147.634.244 1.287.871 2.826.995 4.554.33 1.545-.596.701-2.832-.204-2.445-1.616.691-2.334.08-4.14-.95-.265-.15-.658-.165-.822-.165h-.007c-.164 0-.557.015-.822.166-1.806 1.03-2.487 1.548-4.14.949-1.147-.415-1.794 1.85-.249 2.445 1.728.665 3.267.541 4.554-.33.143-.097.406-.241.635-.244z" clip-rule="evenodd"/><path fill="#ff8f57" fill-rule="evenodd" d="M36.155 47.752a2.08 2.08 0 0 1-1.125-2.717 2.086 2.086 0 0 1 2.723-1.122c1.523.631 2.725.763 3.628.292 1.428-.745 1.872-2.675 1.864-4.903-.024-6.971-5.523-17.145-16.202-17.145-12.053 0-17.252 10.125-16.858 17.004.127 2.206.737 4.103 2.218 4.774.93.422 2.115.241 3.564-.462a2.086 2.086 0 0 1 2.784.96 2.077 2.077 0 0 1-.962 2.778c-2.874 1.394-5.264 1.345-7.109.51-2.682-1.217-4.425-4.327-4.654-8.323C5.532 30.782 11.945 18 27.043 18 40.38 18 47.38 30.581 47.41 39.287c.015 4.047-1.506 7.249-4.1 8.602-1.775.926-4.16 1.104-7.156-.137M26.37 3.7c1.53-1.407 3.752-1.201 4.955-.176 1.36 1.16 1.556 3.472.202 5.788-.695 1.261-2.26 2.546-3.801 3.52a2.54 2.54 0 0 1-2.712 0c-1.54-.973-3.105-2.258-3.8-3.517-1.355-2.318-1.16-4.632.2-5.79 1.204-1.026 3.426-1.232 4.956.175m-.788 1.906C24.834 4.33 23.35 4.271 22.6 4.91c-.351.3-.498.76-.498 1.283 0 .675.24 1.441.693 2.212l.013.024c.571 1.043 1.908 2.06 3.182 2.865a.71.71 0 0 0 .759 0c1.274-.805 2.611-1.822 3.183-2.865l.013-.024c.452-.77.693-1.537.693-2.212 0-.524-.147-.984-.498-1.283-.75-.638-2.234-.58-2.983.697a.913.913 0 0 1-1.575 0" clip-rule="evenodd"/></svg>