<svg xmlns="http://www.w3.org/2000/svg" width="54" height="54" fill="none" viewBox="0 0 54 54"><path fill="#3d3d3d" fill-rule="evenodd" d="M21.133 32.328c.496-.978 2.447-.954 3 0 .587 1.015.524 2.15 0 3.18-.476.936-2.406 1.106-3 0-.564-1.05-.508-2.177 0-3.18m9.77 0c.486-.978 2.402-.954 2.944 0 .577 1.015.515 2.15 0 3.18-.467.936-2.36 1.106-2.945 0-.553-1.05-.498-2.177 0-3.18m-3.506 9.002c.23.003.494.148.637.246 1.293.877 2.84 1.002 4.574.332 1.552-.6.704-2.85-.204-2.46-1.624.695-2.345.08-4.159-.956-.266-.152-.66-.167-.825-.167h-.007c-.165 0-.56.015-.826.167-1.813 1.036-2.498 1.558-4.158.955-1.152-.418-1.801 1.862-.25 2.46 1.736.67 3.281.546 4.575-.331.143-.098.407-.243.637-.245z" clip-rule="evenodd"/><path fill="#3d3d3d" fill-rule="evenodd" d="M36.584 47.72a2.093 2.093 0 0 1 1.604-3.864c1.53.635 2.737.768 3.645.294 1.433-.75 1.88-2.692 1.872-4.935-.026-7.016-5.547-17.256-16.272-17.256-12.105 0-17.326 10.19-16.93 17.114.127 2.22.74 4.13 2.228 4.806.934.424 2.124.242 3.579-.466a2.093 2.093 0 0 1 1.83 3.762c-2.887 1.404-5.287 1.354-7.14.513-2.693-1.224-4.443-4.354-4.673-8.376-.497-8.672 5.943-21.537 21.106-21.537 13.395 0 20.424 12.663 20.455 21.425.015 4.073-1.513 7.296-4.117 8.657-1.784.933-4.179 1.112-7.187-.138" clip-rule="evenodd"/></svg>