<svg xmlns="http://www.w3.org/2000/svg" id="Layer_1" width="32" height="32" data-name="Layer 1" viewBox="0 0 32 32"><path d="M0 0v32h32V0zm24.3 19.4c-.1.9-.2 1.5-.4 2-.3.6-.5 1-1 1.5s-1 .8-1.5 1-1.1.4-2 .4h-6.8c-.9-.1-1.5-.2-2-.4-.6-.3-1-.5-1.5-1s-.8-1-1-1.5-.4-1.1-.4-2v-6.8c.1-.9.2-1.5.4-2 .3-.6.5-1 1-1.5s1-.8 1.5-1 1.1-.4 2-.4h6.8c.9.1 1.5.2 2 .4.6.3 1 .5 1.5 1s.8 1 1 1.5.4 1.1.4 2z" style="fill:none"/><path d="M16 1.88c-7.73 0-14 6.29-14 14.05 0 6.59 4.52 12.12 10.62 13.64v-9.34H9.73v-4.29h2.89v-1.85c0-4.78 2.16-7 6.83-7 .89 0 2.42.17 3.04.35v3.89c-.33-.03-.9-.05-1.62-.05-2.3 0-3.18.87-3.18 3.14v1.52h4.57l-.79 4.29h-3.79v9.65c6.93-.84 12.3-6.76 12.3-13.95 0-7.76-6.27-14.05-14-14.05Z" style="fill:#fff"/></svg>