<svg xmlns="http://www.w3.org/2000/svg" width="37" height="35" fill="none" viewBox="0 0 37 35"><g filter="url(#filter0_dii_15_604)"><path fill="#fff5ee" d="m21.5 23 .5-5h4l2-1 1-1.5v-2l-1.5-2h-6V6L20 4h-2.5L15 6v5h-3l-2 .5-1.5.5-.5 2.5.5 2 2 1.5h5v5.5L17 25h3z"/></g><path fill="#ff943d" stroke="#ff943d" stroke-width=".5" d="M26.292 10.833h-4.125V6.708A3.21 3.21 0 0 0 18.958 3.5h-.916a3.21 3.21 0 0 0-3.209 3.208v4.125h-4.125A3.21 3.21 0 0 0 7.5 14.042v.916c0 1.77 1.44 3.209 3.208 3.209h4.125v4.125a3.21 3.21 0 0 0 3.209 3.208h.916c1.77 0 3.209-1.44 3.209-3.208v-4.125h4.125a3.21 3.21 0 0 0 3.208-3.209v-.916c0-1.77-1.44-3.209-3.208-3.209Zm2.291 4.125a2.295 2.295 0 0 1-2.291 2.292h-4.584a.46.46 0 0 0-.458.458v4.584a2.295 2.295 0 0 1-2.292 2.291h-.916a2.295 2.295 0 0 1-2.292-2.291v-4.584a.46.46 0 0 0-.458-.458h-4.584a2.295 2.295 0 0 1-2.291-2.292v-.916a2.295 2.295 0 0 1 2.291-2.292h4.584a.46.46 0 0 0 .458-.458V6.708a2.295 2.295 0 0 1 2.292-2.291h.916a2.295 2.295 0 0 1 2.292 2.291v4.584c0 .253.205.458.458.458h4.584a2.295 2.295 0 0 1 2.291 2.292z"/><defs><filter id="filter0_dii_15_604" width="37" height="37" x="0" y="0" color-interpolation-filters="sRGB" filterUnits="userSpaceOnUse"><feFlood flood-opacity="0" result="BackgroundImageFix"/><feColorMatrix in="SourceAlpha" result="hardAlpha" values="0 0 0 0 0 0 0 0 0 0 0 0 0 0 0 0 0 0 127 0"/><feOffset dy="4"/><feGaussianBlur stdDeviation="4"/><feComposite in2="hardAlpha" operator="out"/><feColorMatrix values="0 0 0 0 1 0 0 0 0 0.705882 0 0 0 0 0.466667 0 0 0 0.15 0"/><feBlend in2="BackgroundImageFix" result="effect1_dropShadow_15_604"/><feBlend in="SourceGraphic" in2="effect1_dropShadow_15_604" result="shape"/><feColorMatrix in="SourceAlpha" result="hardAlpha" values="0 0 0 0 0 0 0 0 0 0 0 0 0 0 0 0 0 0 127 0"/><feOffset/><feGaussianBlur stdDeviation="1"/><feComposite in2="hardAlpha" k2="-1" k3="1" operator="arithmetic"/><feColorMatrix values="0 0 0 0 1 0 0 0 0 0.835827 0 0 0 0 0.702299 0 0 0 0.6 0"/><feBlend in2="shape" result="effect2_innerShadow_15_604"/><feColorMatrix in="SourceAlpha" result="hardAlpha" values="0 0 0 0 0 0 0 0 0 0 0 0 0 0 0 0 0 0 127 0"/><feOffset dy="-2"/><feGaussianBlur stdDeviation="2"/><feComposite in2="hardAlpha" k2="-1" k3="1" operator="arithmetic"/><feColorMatrix values="0 0 0 0 1 0 0 0 0 0.607607 0 0 0 0 0.288462 0 0 0 0.25 0"/><feBlend in2="effect2_innerShadow_15_604" result="effect3_innerShadow_15_604"/></filter></defs></svg>