<svg xmlns="http://www.w3.org/2000/svg" width="22" height="22" fill="none" viewBox="0 0 22 22"><g clip-path="url(#clip0_15_621)"><g filter="url(#filter0_dii_15_621)"><path fill="#fff5ee" d="M1 19.5v-11l2.5-2h1V21h-1z"/></g><g filter="url(#filter1_dii_15_621)"><path fill="#fff5ee" d="M17 19.5v-11l2.5-2h1V21h-1z"/></g><g filter="url(#filter2_dii_15_621)"><path fill="#fff5ee" d="M17.5 21h-13V4l2-3h9l2 3z"/></g><path fill="#ff943d" d="M18.333 5.593v-1.01A4.59 4.59 0 0 0 13.75 0h-5.5a4.59 4.59 0 0 0-4.583 4.583v1.01A4.59 4.59 0 0 0 0 10.083v7.334A4.59 4.59 0 0 0 4.583 22h12.834A4.59 4.59 0 0 0 22 17.417v-7.334a4.59 4.59 0 0 0-3.667-4.49m-16.5 11.824v-7.334c0-1.195.767-2.213 1.834-2.592v12.518a2.75 2.75 0 0 1-1.834-2.592M5.5 4.583a2.753 2.753 0 0 1 2.75-2.75h5.5a2.753 2.753 0 0 1 2.75 2.75v15.584h-11zm14.667 12.834a2.75 2.75 0 0 1-1.834 2.592V7.491a2.75 2.75 0 0 1 1.834 2.592zm-10.084-4.584c0 .506-.41.917-.916.917H8.25a.916.916 0 1 1 0-1.833h.917c.507 0 .916.41.916.916m4.584 0c0 .506-.41.917-.917.917h-.917a.916.916 0 1 1 0-1.833h.917c.507 0 .917.41.917.916M10.083 16.5c0 .506-.41.917-.916.917H8.25a.916.916 0 1 1 0-1.834h.917c.507 0 .916.411.916.917m4.584 0c0 .506-.41.917-.917.917h-.917a.916.916 0 1 1 0-1.834h.917c.507 0 .917.411.917.917m-2.75-8.25a.916.916 0 1 1-1.834 0v-.917h-.916a.916.916 0 1 1 0-1.833h.916v-.917a.916.916 0 1 1 1.834 0V5.5h.916a.916.916 0 1 1 0 1.833h-.916z"/></g><defs><filter id="filter0_dii_15_621" width="19.5" height="30.5" x="-7" y="2.5" color-interpolation-filters="sRGB" filterUnits="userSpaceOnUse"><feFlood flood-opacity="0" result="BackgroundImageFix"/><feColorMatrix in="SourceAlpha" result="hardAlpha" values="0 0 0 0 0 0 0 0 0 0 0 0 0 0 0 0 0 0 127 0"/><feOffset dy="4"/><feGaussianBlur stdDeviation="4"/><feComposite in2="hardAlpha" operator="out"/><feColorMatrix values="0 0 0 0 1 0 0 0 0 0.705882 0 0 0 0 0.466667 0 0 0 0.15 0"/><feBlend in2="BackgroundImageFix" result="effect1_dropShadow_15_621"/><feBlend in="SourceGraphic" in2="effect1_dropShadow_15_621" result="shape"/><feColorMatrix in="SourceAlpha" result="hardAlpha" values="0 0 0 0 0 0 0 0 0 0 0 0 0 0 0 0 0 0 127 0"/><feOffset/><feGaussianBlur stdDeviation="1"/><feComposite in2="hardAlpha" k2="-1" k3="1" operator="arithmetic"/><feColorMatrix values="0 0 0 0 1 0 0 0 0 0.835827 0 0 0 0 0.702299 0 0 0 0.6 0"/><feBlend in2="shape" result="effect2_innerShadow_15_621"/><feColorMatrix in="SourceAlpha" result="hardAlpha" values="0 0 0 0 0 0 0 0 0 0 0 0 0 0 0 0 0 0 127 0"/><feOffset dy="-2"/><feGaussianBlur stdDeviation="2"/><feComposite in2="hardAlpha" k2="-1" k3="1" operator="arithmetic"/><feColorMatrix values="0 0 0 0 1 0 0 0 0 0.607607 0 0 0 0 0.288462 0 0 0 0.25 0"/><feBlend in2="effect2_innerShadow_15_621" result="effect3_innerShadow_15_621"/></filter><filter id="filter1_dii_15_621" width="19.5" height="30.5" x="9" y="2.5" color-interpolation-filters="sRGB" filterUnits="userSpaceOnUse"><feFlood flood-opacity="0" result="BackgroundImageFix"/><feColorMatrix in="SourceAlpha" result="hardAlpha" values="0 0 0 0 0 0 0 0 0 0 0 0 0 0 0 0 0 0 127 0"/><feOffset dy="4"/><feGaussianBlur stdDeviation="4"/><feComposite in2="hardAlpha" operator="out"/><feColorMatrix values="0 0 0 0 1 0 0 0 0 0.705882 0 0 0 0 0.466667 0 0 0 0.15 0"/><feBlend in2="BackgroundImageFix" result="effect1_dropShadow_15_621"/><feBlend in="SourceGraphic" in2="effect1_dropShadow_15_621" result="shape"/><feColorMatrix in="SourceAlpha" result="hardAlpha" values="0 0 0 0 0 0 0 0 0 0 0 0 0 0 0 0 0 0 127 0"/><feOffset/><feGaussianBlur stdDeviation="1"/><feComposite in2="hardAlpha" k2="-1" k3="1" operator="arithmetic"/><feColorMatrix values="0 0 0 0 1 0 0 0 0 0.835827 0 0 0 0 0.702299 0 0 0 0.6 0"/><feBlend in2="shape" result="effect2_innerShadow_15_621"/><feColorMatrix in="SourceAlpha" result="hardAlpha" values="0 0 0 0 0 0 0 0 0 0 0 0 0 0 0 0 0 0 127 0"/><feOffset dy="-2"/><feGaussianBlur stdDeviation="2"/><feComposite in2="hardAlpha" k2="-1" k3="1" operator="arithmetic"/><feColorMatrix values="0 0 0 0 1 0 0 0 0 0.607607 0 0 0 0 0.288462 0 0 0 0.25 0"/><feBlend in2="effect2_innerShadow_15_621" result="effect3_innerShadow_15_621"/></filter><filter id="filter2_dii_15_621" width="29" height="36" x="-3.5" y="-3" color-interpolation-filters="sRGB" filterUnits="userSpaceOnUse"><feFlood flood-opacity="0" result="BackgroundImageFix"/><feColorMatrix in="SourceAlpha" result="hardAlpha" values="0 0 0 0 0 0 0 0 0 0 0 0 0 0 0 0 0 0 127 0"/><feOffset dy="4"/><feGaussianBlur stdDeviation="4"/><feComposite in2="hardAlpha" operator="out"/><feColorMatrix values="0 0 0 0 1 0 0 0 0 0.705882 0 0 0 0 0.466667 0 0 0 0.15 0"/><feBlend in2="BackgroundImageFix" result="effect1_dropShadow_15_621"/><feBlend in="SourceGraphic" in2="effect1_dropShadow_15_621" result="shape"/><feColorMatrix in="SourceAlpha" result="hardAlpha" values="0 0 0 0 0 0 0 0 0 0 0 0 0 0 0 0 0 0 127 0"/><feOffset/><feGaussianBlur stdDeviation="1"/><feComposite in2="hardAlpha" k2="-1" k3="1" operator="arithmetic"/><feColorMatrix values="0 0 0 0 1 0 0 0 0 0.835827 0 0 0 0 0.702299 0 0 0 0.6 0"/><feBlend in2="shape" result="effect2_innerShadow_15_621"/><feColorMatrix in="SourceAlpha" result="hardAlpha" values="0 0 0 0 0 0 0 0 0 0 0 0 0 0 0 0 0 0 127 0"/><feOffset dy="-2"/><feGaussianBlur stdDeviation="2"/><feComposite in2="hardAlpha" k2="-1" k3="1" operator="arithmetic"/><feColorMatrix values="0 0 0 0 1 0 0 0 0 0.607607 0 0 0 0 0.288462 0 0 0 0.25 0"/><feBlend in2="effect2_innerShadow_15_621" result="effect3_innerShadow_15_621"/></filter><clipPath id="clip0_15_621"><path fill="#fff" d="M0 0h22v22H0z"/></clipPath></defs></svg>