<svg xmlns="http://www.w3.org/2000/svg" width="56" height="56" fill="none" viewBox="0 0 56 56"><path fill="#3d3d3d" fill-rule="evenodd" d="M26.013 46.17c2.706 0 4.903 2.167 4.903 4.835s-2.197 4.835-4.903 4.835c-2.707 0-4.904-2.166-4.904-4.835s2.197-4.834 4.904-4.834m3.674-7.439c0 2.054-1.69 3.72-3.773 3.72s-3.773-1.666-3.773-3.72c0-8.62 5.541-12.251 7.936-13.622.839-.48 8.377-3 6.984-10.136-1.144-5.864-6.373-8.06-11.138-7.418-3.207.431-6.289 2.09-7.807 4.95-.966 1.818-3.248 2.521-5.093 1.569-1.845-.953-2.558-3.203-1.592-5.022 2.65-4.99 7.874-8.116 13.471-8.87 8.442-1.135 17.542 2.995 19.57 13.385 2.364 12.111-9.184 17.164-10.608 17.978-1.262.722-4.177 2.641-4.177 7.186" clip-rule="evenodd"/></svg>