<svg xmlns="http://www.w3.org/2000/svg" width="49" height="54" fill="none" viewBox="0 0 49 54"><g fill="#3d3d3d" fill-rule="evenodd" clip-path="url(#clip0_83_829)" clip-rule="evenodd"><path d="M24.113 23.971c2.75-2.196 6.512-1.749 8.59.047 2.429 2.099 2.884 6.28.469 10.474-1.04 1.908-3.184 3.86-5.471 5.44a6.28 6.28 0 0 1-7.172.003c-2.291-1.582-4.433-3.534-5.469-5.432-2.421-4.199-1.968-8.385.462-10.485 2.079-1.796 5.84-2.243 8.59-.047m-1.825 4.313c-1.013-1.75-3.007-1.889-4.02-1.013-.452.39-.612 1.003-.612 1.687 0 1.038.377 2.215 1.063 3.402l.031.055c.77 1.426 2.45 2.805 4.163 3.988l.005.003c.72.5 1.67.5 2.39 0l.004-.003c1.714-1.183 3.393-2.562 4.163-3.988l.031-.055c.687-1.187 1.064-2.364 1.064-3.402 0-.684-.16-1.296-.613-1.687-1.012-.876-3.007-.737-4.02 1.013a2.11 2.11 0 0 1-1.824 1.059 2.11 2.11 0 0 1-1.825-1.059"/><path d="M43.518 45.52c.018-1.475 1.216-2.659 2.675-2.641s2.628 1.23 2.61 2.705c-.053 4.531-3.7 8.176-8.179 8.176H8.24C3.689 53.76 0 50.029 0 45.426V19.53c0-3.62 1.83-6.988 4.85-8.93l14.255-9.163a9.03 9.03 0 0 1 10.043.177c3.481 2.414 11.683 8.391 15.9 11.474a9.16 9.16 0 0 1 3.75 7.26l.16 10.016c.025 1.476-1.14 2.693-2.599 2.717-1.458.024-2.661-1.154-2.685-2.63l-.161-10.015a3.8 3.8 0 0 0-1.555-3.011l-.002-.002c-4.192-3.063-12.338-9-15.797-11.398a3.79 3.79 0 0 0-4.22-.075L7.685 15.114a5.25 5.25 0 0 0-2.399 4.417v25.895c0 1.65 1.323 2.987 2.954 2.987h32.385c1.585 0 2.875-1.29 2.894-2.893"/></g><defs><clipPath id="clip0_83_829"><path fill="#fff" d="M0 0h49v54H0z"/></clipPath></defs></svg>