<svg xmlns="http://www.w3.org/2000/svg" width="16" height="16" fill="none" viewBox="0 0 16 16"><path fill="#ffb477" fill-rule="evenodd" d="M5.14 13.797c.319.83.247 1.625-.457 2.036-.98.571-1.964-.456-2.305-1.088-.497-.921-.708-2.587-.5-4.334.337-2.839 2.282-5.5 4.974-6.113 3.175-.72 6.288.949 6.762 3.339.215 1.09-.217 2.624-.954 3.43-.802.877-2.28 1.523-3.636 1.608-.536.034-1.601-.265-1.786-1.408-.156-.972.682-1.812 1.792-1.754 1.172.061 2.458-.36 2.01-1.577-.526-1.435-2.968-1.547-4.451-.792-1.24.632-1.968 1.886-2.052 3.202-.085 1.32.068 2.05.607 3.447zM7.39 2.55c-.638.15-1.19-.269-1.405-.882-.222-.633.232-1.279.75-1.448.936-.31 2.169-.275 3.007 0 .616.201.936.744.799 1.384-.137.642-.637.997-1.275.872-.922-.179-1.876.074-1.876.074M4.08 3.919c-.939.5-1.831 1.584-2.419 1.136-.588-.447-.694-2.528 1.185-3.376.674-.305 1.567-.06 1.915.586.352.646-.03 1.306-.68 1.654m8.252-.292c.924.618 1.794 1.894 2.418 1.438s.89-2.78-.96-3.85c-.665-.383-1.616-.144-2.011.547s-.084 1.434.553 1.861z" clip-rule="evenodd"/></svg>