<svg xmlns="http://www.w3.org/2000/svg" width="22" height="22" fill="none" viewBox="0 0 22 22"><g clip-path="url(#clip0_15_609)"><g filter="url(#filter0_dii_15_609)"><path fill="#fff5ee" d="M3 17v-7h3l1.5-1.5 1 1.5h4l2-1.5.5 1 2 .5h2l.5 7.5h-5l-1 1h-4l-1.5-1z"/></g><g filter="url(#filter1_dii_15_609)"><path fill="#fff4e6" d="M2.5 17.5 1 19l1 2h18l1.5-1.5-1.5-2h-5l-1.5 1-5-.5-1-.5z"/></g><g filter="url(#filter2_dii_15_609)"><path fill="#fff5ee" d="M.5 7.5 2 10h3.5L7 8.5 8.5 10h4L15 8.5l2.5 2 3-1 .5-4L18 1H5.5L3 2z"/></g><path fill="#ff943d" d="M20.167 16.669v-6.18C21.257 9.853 22 8.684 22 7.332a1 1 0 0 0-.035-.252l-1.074-3.757a4.6 4.6 0 0 0-4.407-3.324H5.515a4.61 4.61 0 0 0-4.408 3.325L.035 7.08A1 1 0 0 0 0 7.333c0 1.351.743 2.521 1.833 3.157v6.18A2.75 2.75 0 0 0 0 19.25 2.753 2.753 0 0 0 2.75 22h16.5A2.753 2.753 0 0 0 22 19.25c0-1.193-.77-2.202-1.833-2.581M2.87 3.828a2.765 2.765 0 0 1 2.645-1.995h.9v1.834a.916.916 0 1 0 1.834 0V1.833h5.5v1.834a.916.916 0 1 0 1.833 0V1.833h.9c1.221 0 2.31.82 2.645 1.995l1.035 3.622a1.836 1.836 0 0 1-1.83 1.718h-.916a1.835 1.835 0 0 1-1.834-1.834.916.916 0 1 0-1.833 0 1.835 1.835 0 0 1-1.833 1.834h-1.834A1.835 1.835 0 0 1 8.25 7.334a.916.916 0 1 0-1.833 0 1.835 1.835 0 0 1-1.834 1.834h-.916c-.973 0-1.77-.761-1.83-1.718zM4.583 11a3.64 3.64 0 0 0 2.75-1.267A3.64 3.64 0 0 0 10.083 11h1.834c1.1 0 2.077-.497 2.75-1.267A3.64 3.64 0 0 0 17.417 11h.916v5.5h-4.125a.9.9 0 0 0-.648.268l-.648.649H9.088l-.648-.649a.9.9 0 0 0-.648-.268H3.667V11zm14.667 9.167H2.75a.918.918 0 0 1 0-1.834h4.662l.648.648a.9.9 0 0 0 .648.269h4.584a.9.9 0 0 0 .648-.269l.648-.648h4.662a.918.918 0 0 1 0 1.834"/></g><defs><filter id="filter0_dii_15_609" width="32.5" height="26" x="-5" y="4.5" color-interpolation-filters="sRGB" filterUnits="userSpaceOnUse"><feFlood flood-opacity="0" result="BackgroundImageFix"/><feColorMatrix in="SourceAlpha" result="hardAlpha" values="0 0 0 0 0 0 0 0 0 0 0 0 0 0 0 0 0 0 127 0"/><feOffset dy="4"/><feGaussianBlur stdDeviation="4"/><feComposite in2="hardAlpha" operator="out"/><feColorMatrix values="0 0 0 0 1 0 0 0 0 0.705882 0 0 0 0 0.466667 0 0 0 0.15 0"/><feBlend in2="BackgroundImageFix" result="effect1_dropShadow_15_609"/><feBlend in="SourceGraphic" in2="effect1_dropShadow_15_609" result="shape"/><feColorMatrix in="SourceAlpha" result="hardAlpha" values="0 0 0 0 0 0 0 0 0 0 0 0 0 0 0 0 0 0 127 0"/><feOffset/><feGaussianBlur stdDeviation="1"/><feComposite in2="hardAlpha" k2="-1" k3="1" operator="arithmetic"/><feColorMatrix values="0 0 0 0 1 0 0 0 0 0.835827 0 0 0 0 0.702299 0 0 0 0.6 0"/><feBlend in2="shape" result="effect2_innerShadow_15_609"/><feColorMatrix in="SourceAlpha" result="hardAlpha" values="0 0 0 0 0 0 0 0 0 0 0 0 0 0 0 0 0 0 127 0"/><feOffset dy="-2"/><feGaussianBlur stdDeviation="2"/><feComposite in2="hardAlpha" k2="-1" k3="1" operator="arithmetic"/><feColorMatrix values="0 0 0 0 1 0 0 0 0 0.607607 0 0 0 0 0.288462 0 0 0 0.25 0"/><feBlend in2="effect2_innerShadow_15_609" result="effect3_innerShadow_15_609"/></filter><filter id="filter1_dii_15_609" width="36.5" height="19.5" x="-7" y="13.5" color-interpolation-filters="sRGB" filterUnits="userSpaceOnUse"><feFlood flood-opacity="0" result="BackgroundImageFix"/><feColorMatrix in="SourceAlpha" result="hardAlpha" values="0 0 0 0 0 0 0 0 0 0 0 0 0 0 0 0 0 0 127 0"/><feOffset dy="4"/><feGaussianBlur stdDeviation="4"/><feComposite in2="hardAlpha" operator="out"/><feColorMatrix values="0 0 0 0 1 0 0 0 0 0.705882 0 0 0 0 0.466667 0 0 0 0.15 0"/><feBlend in2="BackgroundImageFix" result="effect1_dropShadow_15_609"/><feBlend in="SourceGraphic" in2="effect1_dropShadow_15_609" result="shape"/><feColorMatrix in="SourceAlpha" result="hardAlpha" values="0 0 0 0 0 0 0 0 0 0 0 0 0 0 0 0 0 0 127 0"/><feOffset/><feGaussianBlur stdDeviation="1"/><feComposite in2="hardAlpha" k2="-1" k3="1" operator="arithmetic"/><feColorMatrix values="0 0 0 0 1 0 0 0 0 0.835827 0 0 0 0 0.702299 0 0 0 0.6 0"/><feBlend in2="shape" result="effect2_innerShadow_15_609"/><feColorMatrix in="SourceAlpha" result="hardAlpha" values="0 0 0 0 0 0 0 0 0 0 0 0 0 0 0 0 0 0 127 0"/><feOffset dy="-2"/><feGaussianBlur stdDeviation="2"/><feComposite in2="hardAlpha" k2="-1" k3="1" operator="arithmetic"/><feColorMatrix values="0 0 0 0 1 0 0 0 0 0.607607 0 0 0 0 0.288462 0 0 0 0.25 0"/><feBlend in2="effect2_innerShadow_15_609" result="effect3_innerShadow_15_609"/></filter><filter id="filter2_dii_15_609" width="36.5" height="25.5" x="-7.5" y="-3" color-interpolation-filters="sRGB" filterUnits="userSpaceOnUse"><feFlood flood-opacity="0" result="BackgroundImageFix"/><feColorMatrix in="SourceAlpha" result="hardAlpha" values="0 0 0 0 0 0 0 0 0 0 0 0 0 0 0 0 0 0 127 0"/><feOffset dy="4"/><feGaussianBlur stdDeviation="4"/><feComposite in2="hardAlpha" operator="out"/><feColorMatrix values="0 0 0 0 1 0 0 0 0 0.705882 0 0 0 0 0.466667 0 0 0 0.15 0"/><feBlend in2="BackgroundImageFix" result="effect1_dropShadow_15_609"/><feBlend in="SourceGraphic" in2="effect1_dropShadow_15_609" result="shape"/><feColorMatrix in="SourceAlpha" result="hardAlpha" values="0 0 0 0 0 0 0 0 0 0 0 0 0 0 0 0 0 0 127 0"/><feOffset/><feGaussianBlur stdDeviation="1"/><feComposite in2="hardAlpha" k2="-1" k3="1" operator="arithmetic"/><feColorMatrix values="0 0 0 0 1 0 0 0 0 0.835827 0 0 0 0 0.702299 0 0 0 0.6 0"/><feBlend in2="shape" result="effect2_innerShadow_15_609"/><feColorMatrix in="SourceAlpha" result="hardAlpha" values="0 0 0 0 0 0 0 0 0 0 0 0 0 0 0 0 0 0 127 0"/><feOffset dy="-2"/><feGaussianBlur stdDeviation="2"/><feComposite in2="hardAlpha" k2="-1" k3="1" operator="arithmetic"/><feColorMatrix values="0 0 0 0 1 0 0 0 0 0.607607 0 0 0 0 0.288462 0 0 0 0.25 0"/><feBlend in2="effect2_innerShadow_15_609" result="effect3_innerShadow_15_609"/></filter><clipPath id="clip0_15_609"><path fill="#fff" d="M0 0h22v22H0z"/></clipPath></defs></svg>