<svg xmlns="http://www.w3.org/2000/svg" width="64" height="64" fill="none" viewBox="0 0 64 64"><path fill="#ff943d" d="M50.667 8H13.333C5.981 8 0 13.981 0 21.333v21.334C0 50.019 5.981 56 13.333 56h37.334C58.019 56 64 50.019 64 42.667V21.333C64 13.981 58.019 8 50.667 8m8 34.667c0 4.41-3.59 8-8 8H13.333c-4.41 0-8-3.59-8-8V21.333c0-4.41 3.59-8 8-8h37.334c4.41 0 8 3.59 8 8zm-5.334-21.334A2.666 2.666 0 0 1 50.667 24H40a2.666 2.666 0 1 1 0-5.333h10.667a2.666 2.666 0 0 1 2.666 2.666m0 10.667a2.666 2.666 0 0 1-2.666 2.667H40a2.666 2.666 0 1 1 0-5.334h10.667A2.666 2.666 0 0 1 53.333 32M48 42.667a2.666 2.666 0 0 1-2.667 2.666H40A2.666 2.666 0 1 1 40 40h5.333A2.666 2.666 0 0 1 48 42.667M33.213 29.288a2 2 0 0 1-.592 2.216l-4.73 3.853 1.957 5.96a2 2 0 0 1-2.99 2.304l-5.506-3.586-5.416 3.624a1.99 1.99 0 0 1-2.312-.061 2 2 0 0 1-.71-2.2l1.883-6.033-4.754-3.869a1.997 1.997 0 0 1 1.293-3.523h6.003l2.125-5.96a2.002 2.002 0 0 1 3.75 0l2.125 5.96h6.002c.84 0 1.592.526 1.88 1.315z"/></svg>