<svg xmlns="http://www.w3.org/2000/svg" width="74" height="73" fill="none" viewBox="0 0 74 73"><g filter="url(#filter0_dii_83_1238)"><path fill="#fff5ee" d="M9.568 54.391 8 24.652 66 23v29.74L61.297 61H14.27z"/></g><g filter="url(#filter1_dii_83_1238)"><path fill="#fff5ee" d="M66 23H8v-8.4L14.444 9h41.89L66 13.2z"/></g><path fill="#ff943d" d="M26.333 32H21a5.34 5.34 0 0 0-5.333 5.333v5.334A5.34 5.34 0 0 0 21 48h5.333a5.34 5.34 0 0 0 5.334-5.333v-5.334A5.34 5.34 0 0 0 26.333 32M21 42.667v-5.334h5.333v5.334zM55.667 5.333H53V2.667a2.666 2.666 0 1 0-5.333 0v2.666H26.333V2.667a2.666 2.666 0 1 0-5.333 0v2.666h-2.667C10.981 5.333 5 11.315 5 18.667v32C5 58.019 10.981 64 18.333 64h37.334C63.019 64 69 58.019 69 50.667v-32c0-7.352-5.981-13.334-13.333-13.334m-37.334 5.334h37.334c4.41 0 8 3.589 8 8v2.666H10.333v-2.666c0-4.411 3.59-8 8-8m37.334 48H18.333c-4.41 0-8-3.59-8-8v-24h53.334v24c0 4.41-3.59 8-8 8"/><defs><filter id="filter0_dii_83_1238" width="74" height="54" x="0" y="19" color-interpolation-filters="sRGB" filterUnits="userSpaceOnUse"><feFlood flood-opacity="0" result="BackgroundImageFix"/><feColorMatrix in="SourceAlpha" result="hardAlpha" values="0 0 0 0 0 0 0 0 0 0 0 0 0 0 0 0 0 0 127 0"/><feOffset dy="4"/><feGaussianBlur stdDeviation="4"/><feComposite in2="hardAlpha" operator="out"/><feColorMatrix values="0 0 0 0 1 0 0 0 0 0.705882 0 0 0 0 0.466667 0 0 0 0.15 0"/><feBlend in2="BackgroundImageFix" result="effect1_dropShadow_83_1238"/><feBlend in="SourceGraphic" in2="effect1_dropShadow_83_1238" result="shape"/><feColorMatrix in="SourceAlpha" result="hardAlpha" values="0 0 0 0 0 0 0 0 0 0 0 0 0 0 0 0 0 0 127 0"/><feOffset/><feGaussianBlur stdDeviation="1"/><feComposite in2="hardAlpha" k2="-1" k3="1" operator="arithmetic"/><feColorMatrix values="0 0 0 0 1 0 0 0 0 0.835827 0 0 0 0 0.702299 0 0 0 0.6 0"/><feBlend in2="shape" result="effect2_innerShadow_83_1238"/><feColorMatrix in="SourceAlpha" result="hardAlpha" values="0 0 0 0 0 0 0 0 0 0 0 0 0 0 0 0 0 0 127 0"/><feOffset dy="-2"/><feGaussianBlur stdDeviation="2"/><feComposite in2="hardAlpha" k2="-1" k3="1" operator="arithmetic"/><feColorMatrix values="0 0 0 0 1 0 0 0 0 0.607607 0 0 0 0 0.288462 0 0 0 0.25 0"/><feBlend in2="effect2_innerShadow_83_1238" result="effect3_innerShadow_83_1238"/></filter><filter id="filter1_dii_83_1238" width="74" height="30" x="0" y="5" color-interpolation-filters="sRGB" filterUnits="userSpaceOnUse"><feFlood flood-opacity="0" result="BackgroundImageFix"/><feColorMatrix in="SourceAlpha" result="hardAlpha" values="0 0 0 0 0 0 0 0 0 0 0 0 0 0 0 0 0 0 127 0"/><feOffset dy="4"/><feGaussianBlur stdDeviation="4"/><feComposite in2="hardAlpha" operator="out"/><feColorMatrix values="0 0 0 0 1 0 0 0 0 0.705882 0 0 0 0 0.466667 0 0 0 0.15 0"/><feBlend in2="BackgroundImageFix" result="effect1_dropShadow_83_1238"/><feBlend in="SourceGraphic" in2="effect1_dropShadow_83_1238" result="shape"/><feColorMatrix in="SourceAlpha" result="hardAlpha" values="0 0 0 0 0 0 0 0 0 0 0 0 0 0 0 0 0 0 127 0"/><feOffset/><feGaussianBlur stdDeviation="1"/><feComposite in2="hardAlpha" k2="-1" k3="1" operator="arithmetic"/><feColorMatrix values="0 0 0 0 1 0 0 0 0 0.835827 0 0 0 0 0.702299 0 0 0 0.6 0"/><feBlend in2="shape" result="effect2_innerShadow_83_1238"/><feColorMatrix in="SourceAlpha" result="hardAlpha" values="0 0 0 0 0 0 0 0 0 0 0 0 0 0 0 0 0 0 127 0"/><feOffset dy="-2"/><feGaussianBlur stdDeviation="2"/><feComposite in2="hardAlpha" k2="-1" k3="1" operator="arithmetic"/><feColorMatrix values="0 0 0 0 1 0 0 0 0 0.607607 0 0 0 0 0.288462 0 0 0 0.25 0"/><feBlend in2="effect2_innerShadow_83_1238" result="effect3_innerShadow_83_1238"/></filter></defs></svg>