<svg xmlns="http://www.w3.org/2000/svg" width="49" height="48" fill="none" viewBox="0 0 49 48"><path fill="#ffd2ad" fill-rule="evenodd" d="M15.048 41.297c.984 2.442.763 4.784-1.41 5.99-3.02 1.677-6.05-1.337-7.102-3.204-1.53-2.715-2.182-7.611-1.542-12.748 1.04-8.35 7.034-16.181 15.316-17.977 9.776-2.12 19.37 2.79 20.826 9.822.656 3.209-.666 7.722-2.938 10.095-2.47 2.579-7.021 4.476-11.204 4.73-1.652.1-4.933-.782-5.502-4.137-.484-2.858 2.096-5.325 5.52-5.159 3.61.175 7.574-1.059 6.193-4.643-1.625-4.217-9.138-4.55-13.708-2.332-3.823 1.855-6.063 5.548-6.321 9.42-.26 3.885.214 6.03 1.872 10.143m6.589-32.791c-1.81.468-3.38-.838-3.99-2.755-.63-1.98.658-3.995 2.127-4.532 2.662-.97 6.155-.858 8.536-.002 1.747.628 2.66 2.325 2.274 4.331s-1.809 3.12-3.62 2.73c-2.615-.562-5.327.228-5.327.228m-10.532 3.816c-2.835 1.51-5.521 4.784-7.293 3.434-1.771-1.35-2.086-7.626 3.57-10.193 2.029-.92 4.717-.182 5.775 1.77s-.089 3.943-2.052 4.989m26.224-1.142c2.737 1.679 5.32 5.15 7.17 3.91s2.636-7.564-2.853-10.47c-1.965-1.042-4.786-.389-5.96 1.495-1.175 1.883-.253 3.902 1.643 5.064" clip-rule="evenodd"/></svg>