<svg xmlns="http://www.w3.org/2000/svg" width="64" height="64" fill="none" viewBox="0 0 64 64"><g clip-path="url(#clip0_84_784)"><g filter="url(#filter0_dii_84_784)"><path fill="#fff5ee" d="M9.333 29.333 12 14.667 13.333 12l20-1.333 28 28v8l-16 16-6.666-1.334-26.667-24z"/></g><path fill="#ff943d" d="M60.203 33.387 36.93 10.266a10.38 10.38 0 0 0-8.59-2.907L12.867 9.096 4.552.78a2.664 2.664 0 0 0-3.77 0 2.664 2.664 0 0 0 0 3.77l8.314 8.316L7.24 29.1a10.3 10.3 0 0 0 3.03 8.166L33.503 60.32a12.77 12.77 0 0 0 9.067 3.744h.053a12.77 12.77 0 0 0 9.088-3.816l8.56-8.645c4.987-5.04 4.957-13.214-.067-18.22zM56.48 47.856 47.92 56.5a7.47 7.47 0 0 1-5.317 2.232h-.03a7.5 7.5 0 0 1-5.312-2.194l-23.237-23.06c-1.05-1.04-1.584-2.48-1.477-3.863l1.365-11.93 4.952 4.951a5.3 5.3 0 0 0-.197 1.366A5.33 5.33 0 0 0 24 29.336a5.33 5.33 0 0 0 5.333-5.333A5.33 5.33 0 0 0 24 18.669a5.4 5.4 0 0 0-1.365.197l-4.944-4.943 11.269-1.264.056-.009c1.515-.2 3.07.326 4.157 1.4l23.27 23.115c2.946 2.939 2.962 7.73.037 10.69M45.883 34.12a2.664 2.664 0 0 0-3.771 0l-8 8a2.664 2.664 0 0 0 0 3.77l6.667 6.667a2.66 2.66 0 0 0 1.885.782 2.66 2.66 0 0 0 1.885-.782l8-8a2.664 2.664 0 0 0 0-3.77zm-3.22 12.78-2.895-2.896 4.23-4.23 2.895 2.897z"/></g><defs><clipPath id="clip0_84_784"><path fill="#fff" d="M0 0h64v64H0z"/></clipPath><filter id="filter0_dii_84_784" width="68" height="68" x="1.333" y="6.667" color-interpolation-filters="sRGB" filterUnits="userSpaceOnUse"><feFlood flood-opacity="0" result="BackgroundImageFix"/><feColorMatrix in="SourceAlpha" result="hardAlpha" values="0 0 0 0 0 0 0 0 0 0 0 0 0 0 0 0 0 0 127 0"/><feOffset dy="4"/><feGaussianBlur stdDeviation="4"/><feComposite in2="hardAlpha" operator="out"/><feColorMatrix values="0 0 0 0 1 0 0 0 0 0.705882 0 0 0 0 0.466667 0 0 0 0.15 0"/><feBlend in2="BackgroundImageFix" result="effect1_dropShadow_84_784"/><feBlend in="SourceGraphic" in2="effect1_dropShadow_84_784" result="shape"/><feColorMatrix in="SourceAlpha" result="hardAlpha" values="0 0 0 0 0 0 0 0 0 0 0 0 0 0 0 0 0 0 127 0"/><feOffset/><feGaussianBlur stdDeviation="1"/><feComposite in2="hardAlpha" k2="-1" k3="1" operator="arithmetic"/><feColorMatrix values="0 0 0 0 1 0 0 0 0 0.835827 0 0 0 0 0.702299 0 0 0 0.6 0"/><feBlend in2="shape" result="effect2_innerShadow_84_784"/><feColorMatrix in="SourceAlpha" result="hardAlpha" values="0 0 0 0 0 0 0 0 0 0 0 0 0 0 0 0 0 0 127 0"/><feOffset dy="-2"/><feGaussianBlur stdDeviation="2"/><feComposite in2="hardAlpha" k2="-1" k3="1" operator="arithmetic"/><feColorMatrix values="0 0 0 0 1 0 0 0 0 0.607607 0 0 0 0 0.288462 0 0 0 0.25 0"/><feBlend in2="effect2_innerShadow_84_784" result="effect3_innerShadow_84_784"/></filter></defs></svg>