<svg xmlns="http://www.w3.org/2000/svg" width="32" height="28" fill="none" viewBox="0 0 32 28"><g clip-path="url(#clip0_89_14245)"><path fill="#3d3d3d" fill-rule="evenodd" d="M10.322 21.865c.428 1.865-.153 3.498-2.397 3.994-2.031.448-3.882-.988-4.38-3.949-1.04-6.197 3.383-10.99 9.513-12.332 7.236-1.583 14.337 2.084 15.415 7.338.485 2.396-.493 5.767-2.175 7.54-1.827 1.927-5.197 3.343-8.293 3.534-1.223.075-3.651-.585-4.072-3.09-.359-2.136 1.551-3.979 4.086-3.854 2.671.13 5.606-.792 4.584-3.469-1.203-3.15-6.787-3.445-10.147-1.742-3.392 1.72-2.475 4.547-2.134 6.03M14.04 5.95c-1.34.348-2.503-.627-2.955-2.058-.468-1.48.485-2.982 1.572-3.382 1.971-.724 4.557-.638 6.32.002 1.294.47 1.97 1.737 1.686 3.234s-1.338 2.328-2.679 2.036c-1.936-.42-3.944.168-3.944.168M6.242 8.8c-2.1 1.129-4.09 3.576-5.4 2.57s-1.539-5.691 2.65-7.613c1.502-.688 3.491-.14 4.272 1.317S7.696 8.018 6.242 8.8m19.414-.853c-1.404-.87-2.088-2.377-1.22-3.783s2.956-1.892 4.411-1.112c4.065 2.173 3.486 6.895 2.118 7.82-1.369.924-3.282-1.67-5.309-2.925" clip-rule="evenodd"/></g><defs><clipPath id="clip0_89_14245"><path fill="#fff" d="M0 0h32v28H0z"/></clipPath></defs></svg>