<svg xmlns="http://www.w3.org/2000/svg" width="56" height="56" fill="none" viewBox="0 0 56 56"><path fill="#3d3d3d" fill-rule="evenodd" d="M39.632 11.327a16 16 0 0 1 2.058-.317c4.863-.4 10.456 1.438 12.919 6.06 2.916 5.474.49 10.491-4.168 13.74-.923.643-1.944 1.196-3.025 1.697.634 3.302.104 6.698-2.463 9.47q-.552.597-1.153 1.078c.2 1.948-.189 4.122-1.33 6.408-1.442 2.892-3.876 4.328-6.37 4.462-2.444.13-5.04-1.007-6.891-3.572-1.887-2.615-2.43-5.749-1.747-8.76a21 21 0 0 1-1.848-1.58c-4.282 1.3-8.155 3.742-11.806 6.666a2.26 2.26 0 0 1-3.197-.373 2.313 2.313 0 0 1 .37-3.227c2.559-2.05 5.225-3.869 8.035-5.305-.923.062-1.846.05-2.747-.05-3.449-.385-6.556-2.008-8.345-5.437l-.124-.244a2.3 2.3 0 0 1-.924 1.742 2.263 2.263 0 0 1-3.181-.489C-6.002 19.99 5.05 8.076 17.675 3.415c6.697-2.473 15.23-2.076 19.891 4.193a15.5 15.5 0 0 1 2.066 3.718M7.1 30.206c-.87-3.17.018-6.226 1.868-8.827 2.02-2.84 5.236-5.093 8.23-6.197 4.426-1.63 9.114-1.422 13.464.028a31.7 31.7 0 0 1 4.615-2.457 10.6 10.6 0 0 0-1.35-2.387c-3.422-4.602-9.77-4.452-14.688-2.637C9.498 11.326.017 19.977 7.098 30.206m13.905 2.648a10.4 10.4 0 0 1-.352-1.707c-.477-4.09 1.464-8.18 4.699-11.595q.375-.395.77-.777c-2.445-.353-4.947-.167-7.363.723-2.213.815-4.603 2.462-6.095 4.56-1.26 1.772-1.851 3.907-.713 6.088 1.02 1.956 2.85 2.791 4.819 3.01 1.389.156 2.85.019 4.235-.302m18.189 12.26c-2.027.34-4.184.099-6.305-.605a17 17 0 0 1-1.148-.43 6.03 6.03 0 0 0 1.147 3.568c.815 1.13 1.896 1.747 2.972 1.69 1.026-.055 1.953-.75 2.547-1.94.394-.79.656-1.556.787-2.283m3.916-10.88c-1.102.406-2.213.807-3.3 1.237q-.48.19-.952.387c1.259.674 2.306 1.556 3.107 2.588.99-1.275 1.278-2.74 1.145-4.211m-2.567-18.418c.055 1.602-.162 3.2-.605 4.763a27.4 27.4 0 0 1 3.979 4.289 21 21 0 0 1 2.012 3.293c.68-.341 1.327-.714 1.927-1.132 2.678-1.867 4.423-4.635 2.746-7.782-1.604-3.01-5.374-3.918-8.54-3.658q-.73.061-1.52.227m-4.794 1.73.138.082.018-.159zm-1.304 4.546c-1-.67-2.052-1.262-3.14-1.76a23.4 23.4 0 0 0-2.665 2.396c-2.226 2.35-3.796 5.066-3.467 7.881q.034.295.096.59c3.53-1.912 6.92-5.04 8.934-8.656q.125-.225.242-.45m-6.068 12.605a27 27 0 0 1 3.792-.29c1.744-1.346 3.804-2.354 5.983-3.214 1.169-.462 2.373-.88 3.559-1.306a18 18 0 0 0-1.435-2.263 23 23 0 0 0-2.243-2.588c-2.253 3.928-5.837 7.37-9.656 9.661m9.436 5.967c-.975-.881-2.365-1.428-4.023-1.6a8 8 0 0 0-.554.67c1.513.665 3.096 1.041 4.577.93" clip-rule="evenodd"/></svg>