<svg xmlns="http://www.w3.org/2000/svg" id="Layer_1" width="32" height="32" data-name="Layer 1" viewBox="0 0 32 32"><path d="M0 0h32v32H0z" style="fill:none"/><path d="M26.4 9.75v4.12c-2.14 0-4.12-.69-5.73-1.85v8.39c0 4.18-3.42 7.59-7.59 7.59-1.62 0-3.12-.51-4.35-1.38-1.96-1.38-3.24-3.64-3.24-6.21 0-4.2 3.41-7.61 7.57-7.59.36 0 .69.03 1.04.07v4.2c-.33-.09-.68-.15-1.04-.15-1.9 0-3.46 1.54-3.46 3.46 0 1.32.77 2.47 1.86 3.06.03.03.05.05.06.07-.02-.03-.03-.04-.05-.07.48.26 1.02.41 1.61.41a3.47 3.47 0 0 0 3.46-3.34V4h4.12c0 .36.03.7.09 1.05.3 1.57 1.23 2.91 2.52 3.77.9.58 1.96.93 3.12.93Z" style="fill:#fff;fill-rule:evenodd"/></svg>