<svg xmlns="http://www.w3.org/2000/svg" width="54" height="54" fill="none" viewBox="0 0 54 54"><path fill="#3d3d3d" fill-rule="evenodd" d="M15.63 43.063c.475-.079.977-.03 1.454.17 6.907 2.879 12.738 2.672 17.252.64 6.55-2.945 10.268-9.624 10.268-15.343 0-9.556-7.651-17.314-17.074-17.314S10.456 18.974 10.456 28.53c0 1.507-1.206 2.73-2.691 2.73-1.486 0-2.692-1.223-2.692-2.73 0-12.568 10.063-22.771 22.457-22.771S49.987 15.96 49.987 28.53c0 5.908-2.947 12.631-8.369 17.143l2.124 3.98c.707 1.326.22 2.983-1.086 3.7a2.674 2.674 0 0 1-3.648-1.102l-1.944-3.642q-.27.13-.545.255c-5.285 2.377-12.026 2.938-19.962.014l-1.875 3.513a2.674 2.674 0 0 1-3.648 1.102c-1.307-.716-1.793-2.374-1.087-3.699l2.85-5.342a2.68 2.68 0 0 1 2.834-1.39m9.797-12.343a2.3 2.3 0 0 1-.305-1.13l-.094-12.522c-.01-1.255.988-2.282 2.226-2.291 1.238-.01 2.25 1.002 2.26 2.257l.078 10.41 5.655-.07c1.237-.009 2.25 1.003 2.26 2.258s-.989 2.282-2.227 2.291l-7.81.095a2.24 2.24 0 0 1-2.043-1.298M5.938 12.348a2.67 2.67 0 0 1-3.728.775C.97 12.295.627 10.6 1.445 9.344 4.064 5.314 7.325 2.382 11.51.31a2.676 2.676 0 0 1 3.6 1.254c.652 1.354.097 2.99-1.237 3.65-3.302 1.636-5.868 3.956-7.935 7.133m47.543-3.04c.818 1.258.476 2.953-.764 3.782a2.67 2.67 0 0 1-3.73-.776c-2.065-3.177-4.632-5.497-7.934-7.132-1.334-.661-1.889-2.297-1.237-3.65a2.676 2.676 0 0 1 3.6-1.255C47.6 2.35 50.862 5.281 53.48 9.31" clip-rule="evenodd"/></svg>