<svg xmlns="http://www.w3.org/2000/svg" width="62" height="54" fill="none" viewBox="0 0 62 54"><g clip-path="url(#clip0_83_830)"><path fill="#3d3d3d" fill-rule="evenodd" d="M7.184 27.284c-.472 1.501-1.864 2.59-3.507 2.59-2.03 0-3.677-1.662-3.677-3.71s1.648-3.711 3.677-3.711a3.63 3.63 0 0 1 2.11.672c2.854-.781 5.314-.662 7.388.128 2.459.936 4.439 2.83 5.88 5.57 1.883 3.579 2.85 8.72 2.85 14.869 0 4.02 4.04 5.73 7.858 5.73s7.858-1.71 7.858-5.73v-5.083c-10.705-2.143-17.216-8.434-19.943-18.458l-.02-.079c-1.746-7.498-.85-12.921 2.259-16.21C22.05 1.601 25.217.118 29.769 0c3.258-.085 4.838 4.756.956 6.054-1.372.458-2.848.613-4.24 1.353a2.164 2.164 0 0 1-2.935-.918l-.024-.047a6 6 0 0 0-.465.443c-2.318 2.454-2.478 6.557-1.183 12.144 2.358 8.62 8.128 13.866 17.595 15.465 9.352-1.638 15.059-6.871 17.4-15.432 1.296-5.587 1.136-9.69-1.183-12.144a6 6 0 0 0-.22-.221 2.16 2.16 0 0 1-2.811.71c-1.393-.74-2.843-.988-4.242-1.353-3.326-.87-2.187-6.104.566-6.02 4.48.136 7.717 1.6 9.852 3.86 3.108 3.29 4.005 8.712 2.258 16.21l-.02.08c-2.655 9.76-8.897 15.98-19.107 18.28v5.227c0 6.547-5.985 10.114-12.203 10.114S17.56 50.24 17.56 43.692c0-4.453-.521-8.31-1.65-11.27-.953-2.497-2.307-4.32-4.269-5.067-1.271-.484-2.752-.503-4.457-.071m32.18-3.787c-.936.026-1.99.675-2.944 1.002-.816.28-1.572.337-2.183-.073-1.43-.96-1.596-2.951-.253-4.987.802-1.295 2.811-2.643 4.611-3.594a1.26 1.26 0 0 1 1.115-.032c1.85.85 3.93 2.082 4.8 3.33 1.455 1.958 1.398 3.956.024 4.994-.587.444-1.345.428-2.175.195-.972-.273-2.06-.861-2.995-.835m10.67-8.538a2.496 2.496 0 0 1 .882 3.396 2.45 2.45 0 0 1-3.365.89 2.496 2.496 0 0 1-.883-3.395 2.45 2.45 0 0 1 3.366-.89m-13.346-4.496a2.495 2.495 0 0 1 .883 3.396 2.45 2.45 0 0 1-3.366.89 2.496 2.496 0 0 1-.882-3.396 2.45 2.45 0 0 1 3.365-.89m-5.572 5.069A2.496 2.496 0 0 1 32 18.928a2.45 2.45 0 0 1-3.366.89 2.496 2.496 0 0 1-.882-3.396 2.45 2.45 0 0 1 3.365-.89m13-5.26A2.496 2.496 0 0 1 45 13.668a2.45 2.45 0 0 1-3.366.89 2.496 2.496 0 0 1-.882-3.395 2.45 2.45 0 0 1 3.365-.89" clip-rule="evenodd"/></g><defs><clipPath id="clip0_83_830"><path fill="#fff" d="M0 0h62v54H0z"/></clipPath></defs></svg>