<svg xmlns="http://www.w3.org/2000/svg" width="64" height="64" fill="none" viewBox="0 0 64 64"><g clip-path="url(#clip0_101_828)"><path fill="#ff943d" d="M64 25.333a6.67 6.67 0 0 0-5.333-6.533V2.667A2.666 2.666 0 0 0 56.22.008c-1.37-.128-2.621.85-2.85 2.219-1.038 6.221-9.654 8.44-17.371 8.44H14.667C6.579 10.667 0 17.245 0 25.333c0 4.403 1.952 8.36 5.035 11.051l8.378 22.355a7.95 7.95 0 0 0 4.139 4.512 7.96 7.96 0 0 0 6.117.264 7.95 7.95 0 0 0 4.512-4.139 7.94 7.94 0 0 0 .264-6.112L23.637 40H36c7.717 0 16.333 2.216 17.37 8.44a2.666 2.666 0 0 0 2.627 2.227q.113.002.222-.008A2.664 2.664 0 0 0 58.664 48V31.867A6.67 6.67 0 0 0 64 25.333M14.667 16h3.989l-.08 18.667h-3.907c-5.146 0-9.333-4.187-9.333-9.334S9.52 16 14.666 16m8.768 39.085a2.65 2.65 0 0 1-.088 2.038 2.66 2.66 0 0 1-1.504 1.381 2.64 2.64 0 0 1-2.038-.088 2.67 2.67 0 0 1-1.389-1.525l-6.421-17.134c.866.16 1.76.246 2.672.246h3.298l5.47 15.085zm29.898-15.888c-3.965-2.92-9.92-4.53-17.333-4.53H23.907L23.987 16h12.01c7.414 0 13.368-1.61 17.334-4.53v27.725z"/></g><defs><clipPath id="clip0_101_828"><path fill="#fff" d="M0 0h64v64H0z"/></clipPath></defs></svg>